<svg width="114" height="114" viewBox="0 0 114 114" fill="none" xmlns="http://www.w3.org/2000/svg">
<rect width="114" height="114" rx="57" fill="black"/>
<mask id="mask0_201_3" style="mask-type:luminance" maskUnits="userSpaceOnUse" x="20" y="20" width="74" height="60">
<path d="M20 20H94V79.2H20V20Z" fill="white"/>
</mask>
<g mask="url(#mask0_201_3)">
<mask id="mask1_201_3" style="mask-type:luminance" maskUnits="userSpaceOnUse" x="20" y="20" width="74" height="60">
<path d="M56.2885 21.1555C56.2885 21.1555 53.4143 26.1758 52.2447 28.2047C49.7439 32.5391 46.5822 38.0235 44.4064 43.8133C42.4658 43.2422 38.8627 41.711 36.5775 37.8516L35.3564 35.7915L34.5432 38.0438C34.4549 38.2782 32.4658 43.8868 32.9096 51.736C33.0111 53.5469 33.2541 55.5649 33.7229 57.718C28.1939 57.393 23.1611 53.9821 23.108 53.9461L20.1494 51.9055L21.4064 55.2711C26.0518 67.7063 32.7291 73.5126 37.5127 76.1938C42.4658 78.9688 46.4385 79.0821 47.0455 79.0821H47.1221L49.9846 79.0141L47.8479 77.1063C40.0189 70.1305 35.7549 61.5829 35.1729 51.7024C34.9018 47.1133 35.5314 43.2821 36.0572 41.0219C38.5775 44.0336 41.708 45.379 43.6525 45.9547C42.115 50.668 41.3463 55.5079 42.2166 60.0352C45.1494 75.2868 56.2768 77.8243 56.7486 77.9258C48.3424 73.5211 45.5369 63.7672 45.4525 63.4649C45.4494 63.4594 45.4494 63.4563 45.4494 63.4563C45.051 62.2868 44.7064 61.004 44.4377 59.6055C42.5135 49.5969 49.5463 37.4024 54.2025 29.3352C55.051 27.8657 55.7963 26.5688 56.4096 25.4329L56.6127 25.0547L56.8111 24.6758L56.8814 24.543L57.0002 24.3227L57.1189 24.543L57.1893 24.6758L57.3869 25.0547L57.5908 25.4329C58.2041 26.5688 58.9494 27.8657 59.7971 29.3352C64.4541 37.4024 71.4869 49.5969 69.5627 59.6055C69.2939 61.004 68.9494 62.2868 68.551 63.4563C68.551 63.4563 68.551 63.4594 68.5479 63.4649C68.4635 63.7672 65.658 73.5211 57.2518 77.9258C57.7236 77.8243 68.851 75.2868 71.7838 60.0352C72.6541 55.5079 71.8854 50.668 70.3479 45.9547C72.2924 45.379 75.4229 44.0336 77.9432 41.0219C78.4689 43.2821 79.0986 47.1133 78.8275 51.7024C78.2455 61.5829 73.9814 70.1305 66.1525 77.1063L64.0158 79.0141L66.8783 79.0821H66.9549C67.5619 79.0821 71.5354 78.9688 76.4877 76.1938C81.2713 73.5126 87.9486 67.7063 92.5939 55.2711L93.851 51.9055L90.8924 53.9461C90.8393 53.9821 85.8064 57.393 80.2775 57.718C80.7463 55.5649 80.9893 53.5469 81.0908 51.736C81.5346 43.8868 79.5455 38.2782 79.4572 38.0438L78.6439 35.7915L77.4229 37.8516C75.1377 41.711 71.5354 43.2422 69.5939 43.8133C67.4182 38.0235 64.2564 32.5391 61.7557 28.2047C60.5861 26.1758 57.7119 21.1555 57.7119 21.1555L57.0002 20.0422L56.2885 21.1555ZM79.7064 60.0008C83.433 59.9446 86.9283 58.611 89.265 57.4633C85.015 67.1383 79.5338 71.8625 75.5135 74.1485C73.5127 75.2868 71.6814 75.9399 70.2291 76.3157C75.4314 70.8876 78.2424 65.1547 79.7064 60.0008ZM38.4869 74.1485C34.4666 71.8625 28.9846 67.1383 24.7354 57.4633C27.0721 58.611 30.5674 59.9446 34.2939 60.0008C35.758 65.1547 38.5689 70.8876 43.7713 76.3157C42.3189 75.9399 40.4877 75.2868 38.4869 74.1485Z" fill="white"/>
</mask>
<g mask="url(#mask1_201_3)">
<path d="M93.851 20.0422H20.1494V79.0821H93.851V20.0422Z" fill="white"/>
</g>
</g>
<mask id="mask2_201_3" style="mask-type:luminance" maskUnits="userSpaceOnUse" x="20" y="75" width="74" height="11">
<path d="M75.8384 75.385C83.9642 76.1749 89.2673 77.4702 89.2673 78.935C89.2673 81.3405 74.9923 83.2897 57.3821 83.2897C39.7728 83.2897 25.4978 81.3405 25.4978 78.935C25.4978 77.5241 30.4149 76.2702 38.0368 75.4749C38.022 75.4381 38.0103 75.4006 37.997 75.3639C27.5618 76.3006 20.6001 77.9842 20.6001 79.9069C20.6001 82.8475 36.8978 85.2319 57.0024 85.2319C77.1071 85.2319 93.4048 82.8475 93.4048 79.9069C93.4048 77.9749 86.3743 76.2834 75.8524 75.3499C75.8478 75.3616 75.8431 75.3741 75.8384 75.385Z" fill="white"/>
</mask>
<g mask="url(#mask2_201_3)">
<path d="M93.4048 75.3499H20.6001V85.2319H93.4048V75.3499Z" fill="white"/>
</g>
</svg>
