<svg width="33" height="32" viewBox="0 0 33 32" fill="none" xmlns="http://www.w3.org/2000/svg">
<rect x="0.501953" width="32" height="32" rx="16" fill="#3F8DE5"/>
<path d="M16.5036 8.13083C19.0688 8.13083 19.3699 8.14226 20.3838 8.188C21.3214 8.22993 21.8283 8.3862 22.1676 8.51961C22.6173 8.69494 22.9375 8.90076 23.2729 9.23618C23.6083 9.57159 23.818 9.89176 23.9895 10.3415C24.1191 10.6808 24.2792 11.1877 24.3211 12.1253C24.3668 13.1392 24.3783 13.4403 24.3783 16.0055C24.3783 18.5706 24.3668 18.8717 24.3211 19.8856C24.2792 20.8233 24.1229 21.3302 23.9895 21.6694C23.8142 22.1192 23.6083 22.4394 23.2729 22.7748C22.9375 23.1102 22.6173 23.3198 22.1676 23.4913C21.8283 23.6209 21.3214 23.781 20.3838 23.8229C19.3699 23.8687 19.0688 23.8801 16.5036 23.8801C13.9385 23.8801 13.6373 23.8687 12.6235 23.8229C11.6858 23.781 11.1789 23.6247 10.8397 23.4913C10.3899 23.316 10.0697 23.1102 9.73432 22.7748C9.3989 22.4394 9.18927 22.1192 9.01775 21.6694C8.88816 21.3302 8.72807 20.8233 8.68615 19.8856C8.64041 18.8717 8.62897 18.5706 8.62897 16.0055C8.62897 13.4403 8.64041 13.1392 8.68615 12.1253C8.72807 11.1877 8.88435 10.6808 9.01775 10.3415C9.19308 9.89176 9.3989 9.57159 9.73432 9.23618C10.0697 8.90076 10.3899 8.69113 10.8397 8.51961C11.1789 8.39001 11.6858 8.22993 12.6235 8.188C13.6373 8.13845 13.9423 8.13083 16.5036 8.13083ZM16.5036 6.40039C13.8965 6.40039 13.5687 6.41183 12.5434 6.45756C11.5219 6.5033 10.8244 6.6672 10.2146 6.90351C9.58186 7.14745 9.04824 7.47906 8.51463 8.01267C7.98101 8.54629 7.65322 9.08371 7.40547 9.71262C7.16915 10.3225 7.00526 11.02 6.95952 12.0453C6.91378 13.0668 6.90234 13.3946 6.90234 16.0017C6.90234 18.6088 6.91378 18.9365 6.95952 19.9619C7.00526 20.9833 7.16915 21.6809 7.40547 22.2945C7.64941 22.9272 7.98101 23.4608 8.51463 23.9945C9.04824 24.5281 9.58567 24.8559 10.2146 25.1036C10.8244 25.3399 11.5219 25.5038 12.5472 25.5496C13.5725 25.5953 13.8965 25.6067 16.5074 25.6067C19.1183 25.6067 19.4423 25.5953 20.4676 25.5496C21.4891 25.5038 22.1866 25.3399 22.8003 25.1036C23.433 24.8597 23.9666 24.5281 24.5002 23.9945C25.0339 23.4608 25.3616 22.9234 25.6094 22.2945C25.8457 21.6847 26.0096 20.9872 26.0553 19.9619C26.1011 18.9365 26.1125 18.6126 26.1125 16.0017C26.1125 13.3908 26.1011 13.0668 26.0553 12.0415C26.0096 11.02 25.8457 10.3225 25.6094 9.70881C25.3655 9.07609 25.0339 8.54248 24.5002 8.00886C23.9666 7.47524 23.4292 7.14745 22.8003 6.8997C22.1904 6.66339 21.4929 6.49949 20.4676 6.45375C19.4385 6.41183 19.1107 6.40039 16.5036 6.40039Z" fill="white"/>
<path d="M16.5036 8.13083C19.0688 8.13083 19.3699 8.14226 20.3838 8.188C21.3214 8.22993 21.8283 8.3862 22.1676 8.51961C22.6173 8.69494 22.9375 8.90076 23.2729 9.23618C23.6083 9.57159 23.818 9.89176 23.9895 10.3415C24.1191 10.6808 24.2792 11.1877 24.3211 12.1253C24.3668 13.1392 24.3783 13.4403 24.3783 16.0055C24.3783 18.5706 24.3668 18.8717 24.3211 19.8856C24.2792 20.8233 24.1229 21.3302 23.9895 21.6694C23.8142 22.1192 23.6083 22.4394 23.2729 22.7748C22.9375 23.1102 22.6173 23.3198 22.1676 23.4913C21.8283 23.6209 21.3214 23.781 20.3838 23.8229C19.3699 23.8687 19.0688 23.8801 16.5036 23.8801C13.9385 23.8801 13.6373 23.8687 12.6235 23.8229C11.6858 23.781 11.1789 23.6247 10.8397 23.4913C10.3899 23.316 10.0697 23.1102 9.73432 22.7748C9.3989 22.4394 9.18927 22.1192 9.01775 21.6694C8.88816 21.3302 8.72807 20.8233 8.68615 19.8856C8.64041 18.8717 8.62897 18.5706 8.62897 16.0055C8.62897 13.4403 8.64041 13.1392 8.68615 12.1253C8.72807 11.1877 8.88435 10.6808 9.01775 10.3415C9.19308 9.89176 9.3989 9.57159 9.73432 9.23618C10.0697 8.90076 10.3899 8.69113 10.8397 8.51961C11.1789 8.39001 11.6858 8.22993 12.6235 8.188C13.6373 8.13845 13.9423 8.13083 16.5036 8.13083Z" fill="white"/>
<path d="M16.5044 11.0732C13.783 11.0732 11.5723 13.2801 11.5723 16.0054C11.5723 18.7306 13.7791 20.9375 16.5044 20.9375C19.2296 20.9375 21.4365 18.7306 21.4365 16.0054C21.4365 13.2801 19.2296 11.0732 16.5044 11.0732ZM16.5044 19.2033C14.7358 19.2033 13.3027 17.7701 13.3027 16.0016C13.3027 14.233 14.7358 12.7999 16.5044 12.7999C18.273 12.7999 19.7061 14.233 19.7061 16.0016C19.7061 17.7701 18.273 19.2033 16.5044 19.2033Z" fill="#3F8DE5"/>
<path d="M21.6316 12.0258C22.2673 12.0258 22.7826 11.5104 22.7826 10.8747C22.7826 10.239 22.2673 9.72363 21.6316 9.72363C20.9958 9.72363 20.4805 10.239 20.4805 10.8747C20.4805 11.5104 20.9958 12.0258 21.6316 12.0258Z" fill="#3F8DE5"/>
</svg>
