<svg width="33" height="32" viewBox="0 0 33 32" fill="none" xmlns="http://www.w3.org/2000/svg">
<rect x="0.501953" width="32" height="32" rx="16" fill="#3F8DE5"/>
<path d="M24.0019 7.2002H9.00039C8.65582 7.2002 8.32536 7.33708 8.08171 7.58073C7.83805 7.82438 7.70117 8.15484 7.70117 8.49942V23.501C7.70117 23.8455 7.83805 24.176 8.08171 24.4197C8.32536 24.6633 8.65582 24.8002 9.00039 24.8002H24.0019C24.3465 24.8002 24.677 24.6633 24.9206 24.4197C25.1643 24.176 25.3012 23.8455 25.3012 23.501V8.49942C25.3012 8.15484 25.1643 7.82438 24.9206 7.58073C24.677 7.33708 24.3465 7.2002 24.0019 7.2002ZM12.9469 22.1932H10.3008V13.788H12.9469V22.1932ZM11.6221 12.6232C11.3219 12.6215 11.029 12.5309 10.7802 12.3629C10.5315 12.1949 10.3381 11.957 10.2245 11.6792C10.1108 11.4013 10.082 11.0961 10.1417 10.8019C10.2014 10.5078 10.3469 10.2379 10.5598 10.0263C10.7727 9.81474 11.0436 9.67099 11.3381 9.6132C11.6327 9.55541 11.9377 9.58616 12.2148 9.70158C12.4919 9.81701 12.7286 10.0119 12.895 10.2617C13.0614 10.5115 13.1501 10.805 13.1498 11.1052C13.1527 11.3062 13.115 11.5056 13.0391 11.6917C12.9632 11.8778 12.8506 12.0467 12.7081 12.1884C12.5655 12.33 12.3959 12.4415 12.2093 12.5162C12.0227 12.5909 11.823 12.6273 11.6221 12.6232ZM22.7003 22.2005H20.0554V17.6086C20.0554 16.2544 19.4797 15.8364 18.7366 15.8364C17.952 15.8364 17.1819 16.428 17.1819 17.6429V22.2005H14.5358V13.7941H17.0805V14.9589H17.1147C17.3702 14.4419 18.2648 13.5582 19.6301 13.5582C21.1065 13.5582 22.7015 14.4345 22.7015 17.0012L22.7003 22.2005Z" fill="white"/>
</svg>
