<svg width="239" height="49" viewBox="0 0 239 49" fill="none" xmlns="http://www.w3.org/2000/svg">
<path d="M67.84 39H62.44V14.88H68.2L76.84 26.292L80.152 31.368H80.548L80.296 26.508V14.88H85.696V39H79.936L71.044 27.48L67.984 22.944H67.624L67.84 27.372V39ZM96.5891 39H90.5411L101.089 14.88H108.793L119.413 39H113.221L110.953 33.672H98.8931L96.5891 39ZM103.249 23.556L100.981 28.812H108.865L106.597 23.556L105.121 19.812H104.725L103.249 23.556ZM140.257 39H132.553L122.545 14.88H129.061L136.297 33.528H136.657L143.785 14.88H150.265L140.257 39ZM160.413 39H155.013V14.88H168.333C174.273 14.88 177.657 17.508 177.657 22.116C177.657 26.04 175.389 28.38 170.853 28.812V29.1C173.013 29.676 173.841 30.828 174.741 32.52L178.233 39H171.969L168.657 32.736C167.685 30.864 166.785 30.252 163.977 30.252H160.413V39ZM160.413 19.74V26.184H168.297C170.853 26.184 172.005 25.464 172.005 22.944C172.005 20.568 170.853 19.74 168.297 19.74H160.413ZM187.967 39H181.919L192.467 14.88H200.171L210.791 39H204.599L202.331 33.672H190.271L187.967 39ZM194.627 23.556L192.359 28.812H200.243L197.975 23.556L196.499 19.812H196.103L194.627 23.556ZM226.595 39.36C219.287 39.36 215.183 36.48 215.183 30.864V30.648H220.583V31.296C220.583 33.528 221.699 34.428 226.595 34.428C230.915 34.428 231.923 33.78 231.923 32.16C231.923 30.684 231.095 30.144 228.611 29.712L221.843 28.74C217.523 28.056 214.967 25.896 214.967 21.972C214.967 18.336 217.919 14.52 226.019 14.52C233.435 14.52 236.891 17.94 236.891 23.016V23.232H231.455V22.728C231.455 20.424 230.267 19.452 225.479 19.452C221.591 19.452 220.403 20.208 220.403 21.756C220.403 23.16 221.195 23.664 223.211 24.024L229.979 25.104C235.379 25.968 237.323 28.596 237.323 31.908C237.323 35.832 234.263 39.36 226.595 39.36Z" fill="black"/>
<mask id="mask0_220_85" style="mask-type:luminance" maskUnits="userSpaceOnUse" x="0" y="0" width="48" height="39">
<path d="M0 0H48V38.4H0V0Z" fill="white"/>
</mask>
<g mask="url(#mask0_220_85)">
<mask id="mask1_220_85" style="mask-type:luminance" maskUnits="userSpaceOnUse" x="0" y="0" width="48" height="39">
<path d="M23.5385 0.749472C23.5385 0.749472 21.6741 4.00589 20.9155 5.32194C19.2934 8.13342 17.2425 11.6909 15.8312 15.4464C14.5724 15.076 12.2353 14.0827 10.753 11.5794L9.96094 10.2431L9.43341 11.704C9.37615 11.8561 8.08594 15.4941 8.37378 20.5855C8.43966 21.7601 8.59726 23.0691 8.90132 24.4657C5.315 24.2549 2.05047 22.0424 2.01601 22.0191L0.0969238 20.6954L0.912295 22.8785C3.92547 30.9446 8.25672 34.7108 11.3596 36.45C14.5724 38.25 17.1493 38.3235 17.543 38.3235H17.5927L19.4495 38.2794L18.0635 37.0419C12.9853 32.517 10.2194 26.9726 9.84186 20.5637C9.66601 17.587 10.0745 15.1018 10.4155 13.6358C12.0503 15.5893 14.0809 16.462 15.3422 16.8355C14.3449 19.8927 13.8462 23.0321 14.4108 25.9687C16.3131 35.8616 23.5309 37.5076 23.837 37.5735C18.3843 34.7164 16.5645 28.3895 16.5098 28.1934C16.5077 28.1898 16.5077 28.1878 16.5077 28.1878C16.2493 27.4292 16.0258 26.5971 15.8515 25.69C14.6033 19.198 19.1652 11.288 22.1854 6.05522C22.7358 5.10201 23.2192 4.26079 23.617 3.52397L23.7488 3.2787L23.8775 3.03292L23.9231 2.94677L24.0001 2.80386L24.0772 2.94677L24.1228 3.03292L24.251 3.2787L24.3832 3.52397C24.781 4.26079 25.2645 5.10201 25.8143 6.05522C28.8351 11.288 33.3969 19.198 32.1488 25.69C31.9745 26.5971 31.751 27.4292 31.4925 28.1878C31.4925 28.1878 31.4925 28.1898 31.4905 28.1934C31.4358 28.3895 29.616 34.7164 24.1633 37.5735C24.4694 37.5076 31.6871 35.8616 33.5895 25.9687C34.154 23.0321 33.6554 19.8927 32.6581 16.8355C33.9194 16.462 35.95 15.5893 37.5848 13.6358C37.9258 15.1018 38.3343 17.587 38.1584 20.5637C37.7809 26.9726 35.015 32.517 29.9368 37.0419L28.5508 38.2794L30.4076 38.3235H30.4572C30.851 38.3235 33.4283 38.25 36.6407 36.45C39.7435 34.7108 44.0748 30.9446 47.088 22.8785L47.9033 20.6954L45.9843 22.0191C45.9498 22.0424 42.6853 24.2549 39.099 24.4657C39.403 23.0691 39.5606 21.7601 39.6265 20.5855C39.9143 15.4941 38.6241 11.8561 38.5669 11.704L38.0393 10.2431L37.2473 11.5794C35.765 14.0827 33.4283 15.076 32.1691 15.4464C30.7577 11.6909 28.7069 8.13342 27.0848 5.32194C26.3261 4.00589 24.4618 0.749472 24.4618 0.749472L24.0001 0.0273438L23.5385 0.749472ZM38.7285 25.9464C41.1457 25.9099 43.413 25.0449 44.9287 24.3005C42.1719 30.5762 38.6165 33.6405 36.0088 35.1233C34.7109 35.8616 33.5231 36.2853 32.581 36.529C35.9555 33.0081 37.7789 29.2895 38.7285 25.9464ZM11.9915 35.1233C9.38375 33.6405 5.82784 30.5762 3.07159 24.3005C4.5873 25.0449 6.85453 25.9099 9.27176 25.9464C10.2214 29.2895 12.0447 33.0081 15.4192 36.529C14.4772 36.2853 13.2893 35.8616 11.9915 35.1233Z" fill="white"/>
</mask>
<g mask="url(#mask1_220_85)">
<path d="M47.9033 0.0273438H0.0969238V38.3235H47.9033V0.0273438Z" fill="black"/>
</g>
</g>
<mask id="mask2_220_85" style="mask-type:luminance" maskUnits="userSpaceOnUse" x="0" y="35" width="48" height="8">
<path d="M36.2199 35.9251C41.4907 36.4375 44.9306 37.2777 44.9306 38.2279C44.9306 39.7882 35.6711 41.0525 24.2483 41.0525C12.826 41.0525 3.56657 39.7882 3.56657 38.2279C3.56657 37.3126 6.75609 36.4993 11.7 35.9834C11.6904 35.9596 11.6828 35.9353 11.6742 35.9115C4.90542 36.5191 0.389709 37.6111 0.389709 38.8583C0.389709 40.7657 10.9612 42.3123 24.002 42.3123C37.0429 42.3123 47.6144 40.7657 47.6144 38.8583C47.6144 37.605 43.0541 36.5079 36.2291 35.9023C36.226 35.9099 36.223 35.9181 36.2199 35.9251Z" fill="white"/>
</mask>
<g mask="url(#mask2_220_85)">
<path d="M47.6144 35.9023H0.389709V42.3123H47.6144V35.9023Z" fill="black"/>
</g>
</svg>
