<svg width="207" height="28" viewBox="0 0 207 28" fill="none" xmlns="http://www.w3.org/2000/svg">
<path d="M22.0085 0.818181V27H18.3778L5.0696 7.7983H4.8267V27H0.876421V0.818181H4.53267L17.8537 20.0455H18.0966V0.818181H22.0085ZM42.9426 27H38.7494L48.1713 0.818181H52.7352L62.1571 27H57.9639L50.5619 5.57386H50.3574L42.9426 27ZM43.6457 16.7472H57.248V20.071H43.6457V16.7472ZM78.4441 0.818181L85.7311 22.142H86.0251L93.312 0.818181H97.5819L88.1601 27H83.5961L74.1743 0.818181H78.4441ZM114.323 27V0.818181H123.655C125.684 0.818181 127.367 1.16761 128.705 1.86648C130.052 2.56534 131.057 3.53267 131.722 4.76847C132.387 5.99574 132.719 7.41477 132.719 9.02557C132.719 10.6278 132.382 12.0384 131.709 13.2571C131.044 14.4673 130.039 15.4091 128.692 16.0824C127.354 16.7557 125.671 17.0923 123.642 17.0923H116.573V13.6918H123.284C124.563 13.6918 125.603 13.5085 126.404 13.142C127.213 12.7756 127.806 12.2429 128.181 11.544C128.556 10.8452 128.743 10.0057 128.743 9.02557C128.743 8.03693 128.552 7.1804 128.168 6.45597C127.793 5.73153 127.201 5.17756 126.391 4.79403C125.59 4.40199 124.537 4.20597 123.233 4.20597H118.273V27H114.323ZM127.248 15.1875L133.716 27H129.216L122.875 15.1875H127.248ZM152.698 27H148.504L157.926 0.818181H162.49L171.912 27H167.719L160.317 5.57386H160.112L152.698 27ZM153.401 16.7472H167.003V20.071H153.401V16.7472ZM202.722 7.69602C202.586 6.48579 202.023 5.54829 201.034 4.88352C200.046 4.21023 198.801 3.87358 197.301 3.87358C196.228 3.87358 195.299 4.04403 194.514 4.38494C193.73 4.71733 193.121 5.17756 192.686 5.76562C192.26 6.34517 192.047 7.00568 192.047 7.74716C192.047 8.36932 192.192 8.90625 192.482 9.35795C192.78 9.80966 193.168 10.1889 193.645 10.4957C194.131 10.794 194.651 11.0455 195.205 11.25C195.759 11.446 196.291 11.608 196.803 11.7358L199.36 12.4006C200.195 12.6051 201.051 12.8821 201.929 13.2315C202.807 13.581 203.621 14.0412 204.371 14.6122C205.121 15.1832 205.726 15.8906 206.186 16.7344C206.655 17.5781 206.889 18.5881 206.889 19.7642C206.889 21.2472 206.506 22.5639 205.739 23.7145C204.98 24.8651 203.877 25.7727 202.428 26.4375C200.988 27.1023 199.245 27.4347 197.199 27.4347C195.239 27.4347 193.543 27.1236 192.111 26.5014C190.679 25.8793 189.559 24.9972 188.749 23.8551C187.939 22.7045 187.492 21.3409 187.407 19.7642H191.37C191.446 20.7102 191.753 21.4986 192.29 22.1293C192.836 22.7514 193.53 23.2159 194.374 23.5227C195.226 23.821 196.159 23.9702 197.174 23.9702C198.29 23.9702 199.283 23.7955 200.152 23.446C201.03 23.0881 201.72 22.5937 202.223 21.9631C202.726 21.3239 202.978 20.5781 202.978 19.7259C202.978 18.9503 202.756 18.3153 202.313 17.821C201.878 17.3267 201.286 16.9176 200.536 16.5938C199.794 16.2699 198.955 15.9844 198.017 15.7372L194.924 14.8935C192.827 14.3224 191.165 13.483 189.938 12.375C188.719 11.267 188.11 9.80114 188.11 7.97727C188.11 6.46875 188.519 5.15199 189.337 4.02699C190.155 2.90199 191.263 2.02841 192.661 1.40625C194.059 0.775568 195.635 0.460226 197.391 0.460226C199.164 0.460226 200.728 0.771306 202.083 1.39347C203.446 2.01563 204.52 2.87216 205.304 3.96307C206.088 5.04545 206.497 6.28977 206.532 7.69602H202.722Z" fill="white"/>
</svg>
