<svg width="184" height="25" viewBox="0 0 184 25" fill="none" xmlns="http://www.w3.org/2000/svg">
<path d="M19.3409 0.727272V24H16.1136L4.28409 6.93182H4.06818V24H0.556818V0.727272H3.80682L15.6477 17.8182H15.8636V0.727272H19.3409ZM37.949 24H34.2217L42.5967 0.727272H46.6535L55.0285 24H51.3013L44.7217 4.95454H44.5399L37.949 24ZM38.574 14.8864H50.6649V17.8409H38.574V14.8864ZM69.5059 0.727272L75.9832 19.6818H76.2445L82.7218 0.727272H86.5173L78.1423 24H74.0855L65.7105 0.727272H69.5059ZM101.398 24V0.727272H109.694C111.497 0.727272 112.993 1.03788 114.182 1.65909C115.379 2.2803 116.273 3.14015 116.864 4.23864C117.455 5.32955 117.75 6.59091 117.75 8.02273C117.75 9.44697 117.451 10.7008 116.853 11.7841C116.262 12.8598 115.368 13.697 114.171 14.2955C112.981 14.8939 111.485 15.1932 109.682 15.1932H103.398V12.1705H109.364C110.5 12.1705 111.425 12.0076 112.137 11.6818C112.856 11.3561 113.383 10.8826 113.716 10.2614C114.05 9.64015 114.216 8.89394 114.216 8.02273C114.216 7.14394 114.046 6.38257 113.705 5.73864C113.372 5.0947 112.845 4.60227 112.125 4.26136C111.413 3.91288 110.478 3.73864 109.319 3.73864H104.909V24H101.398ZM112.887 13.5L118.637 24H114.637L109 13.5H112.887ZM135.509 24H131.782L140.157 0.727272H144.214L152.589 24H148.861L142.282 4.95454H142.1L135.509 24ZM136.134 14.8864H148.225V17.8409H136.134V14.8864ZM179.975 6.84091C179.854 5.76515 179.354 4.93182 178.475 4.34091C177.596 3.74242 176.49 3.44318 175.157 3.44318C174.202 3.44318 173.377 3.5947 172.68 3.89773C171.983 4.19318 171.441 4.60227 171.055 5.125C170.676 5.64015 170.486 6.22727 170.486 6.88636C170.486 7.43939 170.615 7.91667 170.873 8.31818C171.138 8.7197 171.483 9.05682 171.907 9.32955C172.339 9.5947 172.801 9.81818 173.293 10C173.786 10.1742 174.259 10.3182 174.714 10.4318L176.986 11.0227C177.729 11.2045 178.49 11.4508 179.27 11.7614C180.051 12.072 180.774 12.4811 181.441 12.9886C182.108 13.4962 182.645 14.125 183.055 14.875C183.471 15.625 183.68 16.5227 183.68 17.5682C183.68 18.8864 183.339 20.0568 182.657 21.0795C181.983 22.1023 181.002 22.9091 179.714 23.5C178.433 24.0909 176.884 24.3864 175.066 24.3864C173.323 24.3864 171.816 24.1098 170.543 23.5568C169.27 23.0038 168.274 22.2197 167.555 21.2045C166.835 20.1818 166.437 18.9697 166.361 17.5682H169.884C169.952 18.4091 170.225 19.1098 170.702 19.6705C171.187 20.2235 171.805 20.6364 172.555 20.9091C173.312 21.1742 174.142 21.3068 175.043 21.3068C176.036 21.3068 176.918 21.1515 177.691 20.8409C178.471 20.5227 179.085 20.0833 179.532 19.5227C179.979 18.9545 180.202 18.2917 180.202 17.5341C180.202 16.8447 180.005 16.2803 179.611 15.8409C179.225 15.4015 178.698 15.0379 178.032 14.75C177.373 14.4621 176.627 14.2083 175.793 13.9886L173.043 13.2386C171.18 12.7311 169.702 11.9848 168.611 11C167.528 10.0152 166.986 8.71212 166.986 7.09091C166.986 5.75 167.35 4.57954 168.077 3.57954C168.805 2.57954 169.789 1.80303 171.032 1.25C172.274 0.689393 173.676 0.40909 175.236 0.40909C176.812 0.40909 178.202 0.685605 179.407 1.23864C180.619 1.79167 181.573 2.55303 182.27 3.52273C182.967 4.48485 183.331 5.59091 183.361 6.84091H179.975Z" fill="black"/>
</svg>
