<svg width="28" height="28" viewBox="0 0 28 28" fill="none" xmlns="http://www.w3.org/2000/svg">
<g clip-path="url(#clip0_40_4807)">
<path d="M14.0802 27.7442C21.7183 27.7442 27.9103 21.5336 27.9103 13.8721C27.9103 6.21051 21.7183 0 14.0802 0C6.44199 0 0.25 6.21051 0.25 13.8721C0.25 21.5336 6.44199 27.7442 14.0802 27.7442Z" fill="#4793FF"/>
<path d="M14.0806 0C21.7065 0 27.9107 6.223 27.9107 13.8721C27.9107 21.5211 21.7065 27.7442 14.0806 27.7442V0Z" fill="#5E69E2"/>
<path d="M14.0803 24.2617C19.801 24.2617 24.4385 19.6103 24.4385 13.8722C24.4385 8.13398 19.801 3.48267 14.0803 3.48267C8.35965 3.48267 3.72217 8.13398 3.72217 13.8722C3.72217 19.6103 8.35965 24.2617 14.0803 24.2617Z" fill="#2EBEEF"/>
<path d="M14.0806 3.48267C19.7921 3.48267 24.4387 8.14299 24.4387 13.8722C24.4387 19.6013 19.7921 24.2617 14.0806 24.2617V3.48267Z" fill="#4793FF"/>
<path d="M13.4062 6.89162L9.0663 13.4212C8.8848 13.6938 8.8848 14.0496 9.0663 14.3229L13.4062 20.8525C13.727 21.3352 14.434 21.3352 14.7547 20.8525L19.0946 14.3229C19.2762 14.0496 19.2762 13.6938 19.0946 13.4212L14.7547 6.89162C14.434 6.40885 13.727 6.40885 13.4062 6.89162Z" fill="#76E5F6"/>
<path d="M14.0806 14.9223V21.2147C14.3375 21.2147 14.5944 21.094 14.7548 20.8527L19.0947 14.3231C19.1791 14.1961 19.2238 14.0512 19.2297 13.9055L14.2394 14.9063C14.187 14.9168 14.1338 14.9223 14.0806 14.9223Z" fill="#2EBEEF"/>
<path d="M14.0799 6.52954C13.823 6.52954 13.5661 6.65028 13.4057 6.89164L9.06575 13.4212C8.9687 13.5676 8.92407 13.7368 8.93085 13.9054L13.921 14.9062C13.9735 14.9166 14.0267 14.9221 14.0799 14.9221V6.52954Z" fill="#C2F4FB"/>
</g>
<defs>
<clipPath id="clip0_40_4807">
<rect width="28" height="28" fill="white"/>
</clipPath>
</defs>
</svg>
