<svg width="28" height="28" viewBox="0 0 28 28" fill="none" xmlns="http://www.w3.org/2000/svg">
<g clip-path="url(#clip0_40_4816)">
<path d="M28 14C28 6.26801 21.732 0 14 0C6.26801 0 0 6.26801 0 14C0 21.732 6.26801 28 14 28C21.732 28 28 21.732 28 14Z" fill="#FF9431"/>
<path d="M21.7962 21.7352C18.3048 21.5154 15.0799 19.7354 13.0334 16.8657L5.48145 6.27148C8.92338 6.51156 12.0996 8.26756 14.1327 11.0905C14.1326 11.0905 14.1327 11.0905 14.1327 11.0905L21.7962 21.7352Z" fill="white"/>
<path d="M14.1327 11.0905C12.0996 8.26756 8.92338 6.51156 5.48145 6.27148L13.0334 16.8657C15.0799 19.7354 18.3048 21.5154 21.7962 21.7352L14.1327 11.0905ZM14.1327 11.0905C14.1327 11.0905 14.1326 11.0905 14.1327 11.0905Z" stroke="#FF9431" stroke-width="0.7"/>
<path d="M21.7974 6.27026L14.2455 16.8641C12.1992 19.7339 8.97429 21.5137 5.48291 21.7335L13.1463 11.0906C13.1463 11.0906 13.1463 11.0906 13.1463 11.0906C15.1793 8.26781 18.3555 6.51173 21.7974 6.27026Z" fill="white"/>
<path d="M13.1463 11.0906L5.48291 21.7335C8.97429 21.5137 12.1992 19.7339 14.2455 16.8641L21.7974 6.27026C18.3555 6.51173 15.1793 8.26781 13.1463 11.0906ZM13.1463 11.0906C13.1463 11.0906 13.1463 11.0906 13.1463 11.0906Z" stroke="#FF9431" stroke-width="0.7"/>
<path d="M21.7941 6.27093L16.4633 13.7483C15.5464 13.9164 14.6027 14.0048 13.6371 14.0048C12.6714 14.0048 11.7277 13.9164 10.8107 13.7483L5.47949 6.27026C6.94855 6.37404 8.36824 6.75685 9.67346 7.37741L9.84879 7.00862C9.85046 7.00946 9.85254 7.01029 9.85463 7.01113C9.85672 7.01197 9.85881 7.0128 9.86048 7.01364C10.4482 7.29412 11.0141 7.62136 11.5501 7.99368M21.7941 6.27093L9.6662 7.37386C9.67256 7.37705 9.67809 7.37961 9.68235 7.38154L9.69311 7.38622M21.7941 6.27093C20.339 6.37467 18.9318 6.75104 17.635 7.36279L21.7941 6.27093ZM21.7941 6.27093L17.635 7.36279L21.7941 6.27093ZM11.5501 7.99368L11.3051 8.32034C11.3045 8.31988 11.3049 8.3202 11.3051 8.32034L11.3082 8.3227L11.3105 8.32441M11.5501 7.99368L11.3171 8.32902C11.3149 8.32748 11.3127 8.32595 11.3105 8.32441M11.5501 7.99368C11.5514 7.99464 11.5527 7.99567 11.5541 7.99673C11.56 8.00119 11.5667 8.00632 11.5734 8.01037M11.3105 8.32441C10.7976 7.96869 10.2559 7.65537 9.69311 7.38622L11.3105 8.32441ZM11.3105 8.32441L11.3189 8.33075C11.3249 8.33514 11.3345 8.3421 11.3466 8.35005M9.69311 7.38622L9.70169 7.38973C9.70099 7.38945 9.70014 7.3891 9.69926 7.38872L9.69137 7.38528C9.6895 7.38444 9.68722 7.38339 9.6846 7.38214M9.69311 7.38622C9.69026 7.38486 9.68745 7.38351 9.6846 7.38214L9.69311 7.38622ZM9.6846 7.38214C9.68255 7.38118 9.68029 7.38008 9.67786 7.37887L9.6846 7.38214ZM11.3466 8.35005C11.3442 8.34835 11.3418 8.34667 11.3394 8.34498L11.5734 8.01037M11.3466 8.35005C11.8713 8.71752 12.367 9.12395 12.825 9.57384L12.8325 9.58109C12.8441 9.59193 12.8458 9.59392 12.8491 9.59777C12.8532 9.60266 12.86 9.61051 12.8925 9.64311L12.894 9.64466C13.0442 9.79315 13.1922 9.94761 13.3333 10.1047L13.636 10.4418L13.9399 10.1057C14.0757 9.9555 14.2152 9.80958 14.3583 9.66634M11.3466 8.35005C11.3518 8.35339 11.3574 8.35693 11.3634 8.36051L11.5734 8.01037M11.5734 8.01037C12.1177 8.39103 12.6336 8.81343 13.1111 9.28257C13.1262 9.29666 13.1401 9.31134 13.1538 9.3259C13.1629 9.33552 13.1719 9.34507 13.1813 9.35437C13.2403 9.4128 13.2991 9.47218 13.3574 9.53236C13.3496 9.54089 13.3419 9.54943 13.3342 9.55799L13.6371 9.83186L13.9409 9.55905C13.9329 9.55024 13.925 9.54145 13.9171 9.53266C13.9685 9.47945 14.0204 9.42672 14.0728 9.3744M14.3583 9.66634C14.3569 9.6677 14.3555 9.66908 14.354 9.67044L14.0728 9.3744M14.3583 9.66634C14.3811 9.64451 14.4015 9.62303 14.4152 9.60847L14.4172 9.60639C14.4344 9.58843 14.443 9.57939 14.4508 9.57194L14.455 9.56791C14.6682 9.35966 14.8898 9.16034 15.1187 8.9684M14.3583 9.66634C14.3594 9.66527 14.3604 9.6642 14.3616 9.66314L14.0728 9.3744M14.0728 9.3744C14.0895 9.35854 14.1054 9.34184 14.1212 9.32515C14.1371 9.30845 14.153 9.29176 14.1697 9.2759C14.3917 9.05885 14.6221 8.85183 14.8592 8.65315M15.1187 8.9684C15.1178 8.96911 15.117 8.96981 15.1161 8.97053L14.8592 8.65315M15.1187 8.9684C15.1333 8.95661 15.1486 8.94451 15.1659 8.93088C15.1833 8.91709 15.2036 8.90107 15.2229 8.88538L15.2241 8.88447C15.4322 8.71473 15.6467 8.55141 15.8658 8.39612M15.1187 8.9684C15.1197 8.96764 15.1205 8.96689 15.1214 8.96612L14.8592 8.65315M14.8592 8.65315C14.8767 8.63896 14.8946 8.62476 14.9126 8.61057C14.9306 8.59639 14.9485 8.58219 14.966 8.568C15.183 8.39103 15.4068 8.22073 15.6355 8.05879M15.8658 8.39612C15.8632 8.39779 15.8606 8.39947 15.8581 8.40115L15.6355 8.05879M15.8658 8.39612C15.889 8.38068 15.9097 8.36566 15.9247 8.35479C15.9279 8.35247 15.9309 8.35035 15.9335 8.34839C15.9471 8.33854 15.9549 8.33284 15.9629 8.32733L15.9654 8.32564C16.4773 7.96982 17.0176 7.65849 17.5815 7.38865L17.5879 7.38554L17.6067 7.37646C17.6137 7.37311 17.6246 7.3679 17.635 7.36279M15.8658 8.39612C15.8676 8.39475 15.8696 8.3934 15.8715 8.39205L15.6355 8.05879M15.6355 8.05879C15.6548 8.04626 15.6735 8.03263 15.6919 8.01917C15.7055 8.0093 15.7189 7.99952 15.7323 7.99034C16.2632 7.62136 16.8225 7.29914 17.4053 7.02031C17.4136 7.01615 17.4223 7.01197 17.4311 7.0078C17.4399 7.00362 17.4487 6.99944 17.457 6.99528M17.635 7.36279C17.6338 7.36336 17.6326 7.36393 17.6314 7.36452L17.457 6.99528M17.635 7.36279C17.6365 7.36203 17.638 7.36126 17.6397 7.36049L17.457 6.99528M17.635 7.36279L17.457 6.99528L17.635 7.36279Z" fill="white"/>
<path d="M21.7941 6.27093L16.4633 13.7483C15.5464 13.9164 14.6027 14.0048 13.6371 14.0048C12.6714 14.0048 11.7277 13.9164 10.8107 13.7483L5.47949 6.27026C6.94855 6.37404 8.36824 6.75685 9.67346 7.37741L9.84879 7.00862C9.85046 7.00946 9.85254 7.01029 9.85463 7.01113C9.85672 7.01197 9.85881 7.0128 9.86048 7.01364C10.4482 7.29412 11.0141 7.62136 11.5501 7.99368M21.7941 6.27093L9.6662 7.37386C9.67256 7.37705 9.67809 7.37961 9.68235 7.38154L9.69311 7.38622M21.7941 6.27093C20.339 6.37467 18.9318 6.75104 17.635 7.36279M21.7941 6.27093L17.635 7.36279M11.5501 7.99368L11.3051 8.32034M11.5501 7.99368L11.3171 8.32902C11.3149 8.32748 11.3127 8.32595 11.3105 8.32441M11.5501 7.99368C11.5514 7.99464 11.5527 7.99567 11.5541 7.99673C11.56 8.00119 11.5667 8.00632 11.5734 8.01037M9.69311 7.38622C10.2559 7.65537 10.7976 7.96869 11.3105 8.32441M9.69311 7.38622L9.70169 7.38973C9.70099 7.38945 9.70014 7.3891 9.69926 7.38872L9.69137 7.38528C9.6895 7.38444 9.68722 7.38339 9.6846 7.38214M9.69311 7.38622C9.69026 7.38486 9.68745 7.38351 9.6846 7.38214M17.635 7.36279C17.6246 7.3679 17.6137 7.37311 17.6067 7.37646L17.5879 7.38554L17.5815 7.38865C17.0176 7.65849 16.4773 7.96982 15.9654 8.32564L15.9629 8.32733C15.9549 8.33284 15.9471 8.33854 15.9335 8.34839C15.9309 8.35035 15.9279 8.35247 15.9247 8.35479C15.9097 8.36566 15.889 8.38068 15.8658 8.39612M17.635 7.36279C17.6338 7.36336 17.6326 7.36393 17.6314 7.36452L17.457 6.99528M17.635 7.36279C17.6365 7.36203 17.638 7.36126 17.6397 7.36049L17.457 6.99528M17.635 7.36279L17.457 6.99528M11.3051 8.32034C11.3049 8.3202 11.3045 8.31988 11.3051 8.32034ZM11.3051 8.32034L11.3082 8.3227L11.3105 8.32441M11.3105 8.32441L11.3189 8.33075C11.3249 8.33514 11.3345 8.3421 11.3466 8.35005M11.5734 8.01037L11.3394 8.34498C11.3418 8.34667 11.3442 8.34835 11.3466 8.35005M11.5734 8.01037L11.3634 8.36051C11.3574 8.35693 11.3518 8.35339 11.3466 8.35005M11.5734 8.01037C12.1177 8.39103 12.6336 8.81343 13.1111 9.28257C13.1262 9.29666 13.1401 9.31134 13.1538 9.3259C13.1629 9.33552 13.1719 9.34507 13.1813 9.35437C13.2403 9.4128 13.2991 9.47218 13.3574 9.53236C13.3496 9.54089 13.3419 9.54943 13.3342 9.55799L13.6371 9.83186L13.9409 9.55905C13.9329 9.55024 13.925 9.54145 13.9171 9.53266C13.9685 9.47945 14.0204 9.42672 14.0728 9.3744M11.3466 8.35005C11.8713 8.71752 12.367 9.12395 12.825 9.57384L12.8325 9.58109C12.8441 9.59193 12.8458 9.59392 12.8491 9.59777C12.8532 9.60266 12.86 9.61051 12.8925 9.64311L12.894 9.64466C13.0442 9.79315 13.1922 9.94761 13.3333 10.1047L13.636 10.4418L13.9399 10.1057C14.0757 9.9555 14.2152 9.80958 14.3583 9.66634M9.6846 7.38214C9.68255 7.38118 9.68029 7.38008 9.67786 7.37887L9.6846 7.38214ZM14.3583 9.66634C14.3569 9.6677 14.3555 9.66908 14.354 9.67044L14.0728 9.3744M14.3583 9.66634C14.3811 9.64451 14.4015 9.62303 14.4152 9.60847L14.4172 9.60639C14.4344 9.58843 14.443 9.57939 14.4508 9.57194L14.455 9.56791C14.6682 9.35966 14.8898 9.16034 15.1187 8.9684M14.3583 9.66634C14.3594 9.66527 14.3604 9.6642 14.3616 9.66314L14.0728 9.3744M14.0728 9.3744C14.0895 9.35854 14.1054 9.34184 14.1212 9.32515C14.1371 9.30845 14.153 9.29176 14.1697 9.2759C14.3917 9.05885 14.6221 8.85183 14.8592 8.65315M15.1187 8.9684C15.1178 8.96911 15.117 8.96981 15.1161 8.97053L14.8592 8.65315M15.1187 8.9684C15.1333 8.95661 15.1486 8.94451 15.1659 8.93088C15.1833 8.91709 15.2036 8.90107 15.2229 8.88538L15.2241 8.88447C15.4322 8.71473 15.6467 8.55141 15.8658 8.39612M15.1187 8.9684C15.1197 8.96764 15.1205 8.96689 15.1214 8.96612L14.8592 8.65315M14.8592 8.65315C14.8767 8.63896 14.8946 8.62476 14.9126 8.61057C14.9306 8.59639 14.9485 8.58219 14.966 8.568C15.183 8.39103 15.4068 8.22073 15.6355 8.05879M15.8658 8.39612C15.8632 8.39779 15.8606 8.39947 15.8581 8.40115L15.6355 8.05879M15.8658 8.39612C15.8676 8.39475 15.8696 8.3934 15.8715 8.39205L15.6355 8.05879M15.6355 8.05879C15.6548 8.04626 15.6735 8.03263 15.6919 8.01917C15.7055 8.0093 15.7189 7.99952 15.7323 7.99034C16.2632 7.62136 16.8225 7.29914 17.4053 7.02031C17.4136 7.01615 17.4223 7.01197 17.4311 7.0078C17.4399 7.00362 17.4487 6.99944 17.457 6.99528" stroke="#FF9431" stroke-width="0.7"/>
</g>
<defs>
<clipPath id="clip0_40_4816">
<rect width="28" height="28" fill="white"/>
</clipPath>
</defs>
</svg>
