<svg width="539" height="637" viewBox="0 0 539 637" fill="none" xmlns="http://www.w3.org/2000/svg">
<mask id="mask0_204_6" style="mask-type:alpha" maskUnits="userSpaceOnUse" x="0" y="0" width="539" height="637">
<rect width="539" height="637" fill="#D9D9D9"/>
</mask>
<g mask="url(#mask0_204_6)">
<g opacity="0.5" filter="url(#filter0_d_204_6)">
<path d="M607.606 350.055L224.541 552.724C219.136 555.583 213.102 557.014 207.071 557.014C201.039 557.014 195.005 555.583 189.6 552.724L52.5462 480.217L30.8575 491.691C21.6979 496.538 21.6979 508.653 30.8575 513.501L189.6 597.481C195.005 600.341 201.037 601.769 207.071 601.769C213.102 601.769 219.136 600.339 224.541 597.479L629.294 383.339C638.454 378.491 638.454 366.376 629.294 361.529L607.606 350.055Z" fill="#7FD1CC"/>
<path d="M609.185 306.134L468.943 231.932C459.133 226.742 447.047 226.742 437.24 231.932L50.9607 436.296H23.9849V457.835V457.837V458.332H24.0006C24.1735 462.403 26.453 466.411 30.8546 468.739L189.597 552.72C200.407 558.439 213.728 558.439 224.538 552.72L629.291 338.58C633.693 336.251 635.975 332.244 636.145 328.17H636.161V306.132L609.185 306.134Z" fill="#CCDEEC"/>
<path d="M30.8543 425.392L437.237 210.39C447.047 205.201 459.133 205.201 468.94 210.39L629.291 295.23C638.451 300.075 638.451 312.192 629.291 317.04L224.54 531.183C213.73 536.901 200.41 536.901 189.6 531.183L30.8569 447.202C21.6946 442.354 21.6947 430.239 30.8543 425.392Z" fill="white"/>
<path d="M208.095 533.103C202.545 533.103 196.994 531.782 192.044 529.141L34.6222 445.161C31.1533 443.309 29.0834 439.996 29.0834 436.294C29.0834 432.594 31.1533 429.281 34.6222 427.43L437.623 212.43C442.079 210.053 447.073 208.865 452.067 208.865C457.063 208.865 462.057 210.053 466.511 212.43L625.529 297.271C628.998 299.122 631.068 302.435 631.068 306.135C631.068 309.837 628.998 313.15 625.529 315.001L224.145 529.141C219.193 531.782 213.644 533.103 208.095 533.103ZM452.067 204.157C446.19 204.157 440.314 205.554 435.073 208.351L32.0729 423.353C27.0084 426.054 23.9849 430.895 23.9849 436.297C23.9849 441.701 27.0084 446.539 32.0729 449.24L189.495 533.22C195.23 536.282 201.662 537.811 208.095 537.811C214.527 537.811 220.959 536.282 226.694 533.22L628.076 319.08C633.124 316.386 636.143 311.57 636.164 306.187C636.164 306.171 636.164 306.154 636.164 306.137V306.135C636.164 306.132 636.164 306.13 636.164 306.127C636.164 306.113 636.164 306.099 636.164 306.087C636.145 300.704 633.124 295.885 628.076 293.194L469.061 208.351C463.818 205.556 457.944 204.157 452.067 204.157Z" fill="url(#paint0_linear_204_6)"/>
<path d="M76.7053 414.408L406.402 239.959C412.586 236.687 420.205 236.685 426.391 239.95L582.073 322.137C584.161 323.241 584.172 326 582.089 327.114L254.053 502.547C247.851 505.863 240.188 505.88 233.968 502.59L76.7053 419.39C74.6119 418.283 74.6119 415.517 76.7053 414.408Z" fill="#171C51"/>
<path opacity="0.8" d="M527.21 293.177L109.422 436.702L233.965 502.592C234.033 502.628 234.104 502.664 234.172 502.7C234.183 502.705 234.191 502.71 234.201 502.715C234.248 502.739 234.295 502.763 234.343 502.787C237.335 504.292 240.646 505.046 243.955 505.048C243.961 505.048 243.963 505.048 243.968 505.048C243.974 505.048 243.982 505.048 243.982 505.048C247.461 505.046 250.94 504.213 254.05 502.549L582.087 327.116C583.129 326.559 583.645 325.591 583.643 324.624C583.64 323.656 583.116 322.691 582.071 322.139L527.21 293.177Z" fill="#252D5F"/>
<path d="M558.002 370.003L492.53 404.639C489.284 406.355 485.226 404.209 485.226 400.773C485.226 399.179 486.153 397.705 487.662 396.908L553.137 362.273C556.383 360.554 560.442 362.702 560.442 366.138C560.439 367.732 559.511 369.206 558.002 370.003Z" fill="#AECADC"/>
<path opacity="0.8" d="M634.368 198.683L502.169 128.735C499.772 127.468 495.884 127.468 493.486 128.735L92.6134 340.84C91.4134 341.474 90.8135 342.307 90.8135 343.137V358.873H90.8187C90.8056 359.713 91.4003 360.556 92.6134 361.197L224.812 431.145C227.21 432.412 231.098 432.412 233.495 431.145L634.371 219.04C635.526 218.428 636.111 217.633 636.153 216.831H636.168V201.096H636.147C636.202 200.224 635.621 199.346 634.368 198.683Z" fill="#171C51"/>
<g opacity="0.8">
<path d="M492.821 128.733L92.608 340.487C90.2133 341.752 90.2133 343.807 92.608 345.073L224.587 414.905C226.982 416.173 230.862 416.173 233.257 414.905L633.47 203.151C635.864 201.883 635.864 199.831 633.47 198.565L501.491 128.733C499.096 127.468 495.213 127.468 492.821 128.733Z" fill="#171C51"/>
</g>
<path d="M549.801 154.005L634.37 198.75C636.765 200.018 636.765 202.071 634.37 203.338L234.158 415.092C231.763 416.357 227.883 416.357 225.488 415.092L218.181 411.224C205.342 379.172 215.637 361.972 232.937 352.422C262.019 336.367 300.968 346.271 332.93 329.263C370.297 309.378 339.871 283.427 378.432 262.993C409.286 246.643 438.913 258.336 466.507 242.708C503.542 221.734 469.712 189.848 511.454 166.622C524.515 159.354 539.808 155.808 549.801 154.005Z" fill="#2EC6BA"/>
<path d="M261.756 400.494L260.888 400.953L210.023 374.039L210.89 373.58L261.756 400.494Z" fill="#F4F6FA"/>
<path d="M234.283 382.168L226.253 386.415L199.264 372.135L207.294 367.888L234.283 382.168Z" fill="#6F4AAB"/>
<path d="M293.208 383.854L292.34 384.312L229.158 350.88L230.023 350.421L293.208 383.854Z" fill="#F4F6FA"/>
<path d="M250.783 357.617L242.753 361.864L215.764 347.584L223.794 343.337L250.783 357.617Z" fill="#FF4E75"/>
<path d="M324.658 367.211L323.794 367.669L273.665 341.147L274.532 340.688L324.658 367.211Z" fill="#F4F6FA"/>
<path d="M296.317 348.424L288.287 352.674L261.295 338.393L269.326 334.144L296.317 348.424Z" fill="#6F4AAB"/>
<path d="M356.112 350.571L355.245 351.029L321.714 333.289L322.581 332.831L356.112 350.571Z" fill="#F4F6FA"/>
<path d="M346.587 341.742L338.557 345.989L311.568 331.709L319.596 327.462L346.587 341.742Z" fill="#6F4AAB"/>
<path d="M387.564 333.93L386.697 334.388L347.996 313.911L348.863 313.453L387.564 333.93Z" fill="#F4F6FA"/>
<path d="M372.302 322.064L364.272 326.314L337.283 312.033L345.313 307.784L372.302 322.064Z" fill="#6F4AAB"/>
<path d="M419.013 317.287L418.146 317.748L355.49 284.594L356.355 284.135L419.013 317.287Z" fill="#F4F6FA"/>
<path d="M378.048 291.82L370.018 296.07L343.026 281.79L351.057 277.54L378.048 291.82Z" fill="#6F4AAB"/>
<path d="M450.464 300.646L449.597 301.104L375.56 261.931L376.427 261.473L450.464 300.646Z" fill="#F4F6FA"/>
<path d="M396.002 268.039L387.971 272.289L360.982 258.008L369.013 253.759L396.002 268.039Z" fill="#FF4E75"/>
<path d="M481.914 284.005L481.049 284.463L419.795 252.056L420.663 251.598L481.914 284.005Z" fill="#F4F6FA"/>
<path d="M440.947 258.539L432.916 262.789L405.927 248.506L413.955 244.259L440.947 258.539Z" fill="#6F4AAB"/>
<path d="M513.368 267.365L512.5 267.824L464.179 242.256L465.046 241.798L513.368 267.365Z" fill="#F4F6FA"/>
<path d="M487.461 249.868L479.431 254.115L452.439 239.835L460.469 235.587L487.461 249.868Z" fill="#6F4AAB"/>
<path d="M544.82 250.724L543.953 251.183L482.702 218.773L483.569 218.314L544.82 250.724Z" fill="#F4F6FA"/>
<path d="M506.005 226.394L497.975 230.644L470.983 216.363L479.013 212.114L506.005 226.394Z" fill="#6F4AAB"/>
<path d="M576.271 234.082L575.404 234.54L481.528 184.871L482.396 184.412L576.271 234.082Z" fill="#F4F6FA"/>
<path d="M506.671 193.466L498.641 197.715L471.649 183.435L479.68 179.185L506.671 193.466Z" fill="#6F4AAB"/>
<path d="M607.717 217.439L606.853 217.897L510.008 166.655L510.873 166.196L607.717 217.439Z" fill="#F4F6FA"/>
<path d="M528.624 171.798L520.593 176.048L493.602 161.767L501.632 157.518L528.624 171.798Z" fill="#FF4E75"/>
<path d="M339.102 244.163L342.032 249.947C342.42 250.713 343.439 251.008 344.235 250.585L352.239 246.35C353.521 245.673 353.156 243.897 351.697 243.69L340.764 242.139C339.527 241.966 338.576 243.123 339.102 244.163Z" fill="#2EC6BA"/>
<path d="M402.296 217.947L367.017 236.612C364.856 237.757 361.348 237.757 359.186 236.612C357.025 235.467 357.025 233.613 359.186 232.468L394.465 213.801C396.626 212.656 400.135 212.656 402.296 213.801C404.46 214.949 404.46 216.805 402.296 217.947Z" fill="#F4F6FA"/>
<path d="M149.357 330.093L121.333 344.921C118.59 346.371 114.146 346.371 111.403 344.921C108.66 343.471 108.66 341.118 111.403 339.668L139.427 324.84C142.17 323.39 146.616 323.39 149.357 324.84C152.1 326.29 152.1 328.643 149.357 330.093Z" fill="#BCBECD"/>
<path d="M235.68 284.421L207.654 299.249C204.911 300.699 200.467 300.699 197.724 299.249C194.981 297.799 194.981 295.446 197.724 293.996L225.748 279.168C228.491 277.718 232.935 277.718 235.678 279.168C238.421 280.618 238.421 282.969 235.68 284.421Z" fill="#BCBECD"/>
<path d="M192.521 307.256L164.495 322.084C161.751 323.534 157.308 323.534 154.565 322.084C151.822 320.634 151.822 318.281 154.565 316.831L182.591 302.003C185.334 300.553 189.778 300.553 192.521 302.003C195.262 303.453 195.262 305.806 192.521 307.256Z" fill="#FF4E75"/>
<path d="M158.75 317.626L160.15 316.884L164.884 317.945L162.867 315.446L164.26 314.709L169.126 317.282L167.942 317.909L165.023 316.365L166.852 318.485L165.895 318.992L161.874 318.024L164.797 319.573L163.613 320.2L158.75 317.626Z" fill="#F4F6FA"/>
<path d="M172.334 315.64C170.956 316.37 168.799 316.418 167.337 315.645C165.875 314.872 165.972 313.734 167.35 313.004C168.736 312.269 170.866 312.231 172.328 313.004C173.79 313.777 173.712 314.91 172.334 315.64ZM171.252 315.069C172.03 314.658 171.975 314.094 171.121 313.643C170.253 313.184 169.2 313.162 168.425 313.573C167.636 313.991 167.683 314.543 168.55 315.002C169.402 315.453 170.463 315.486 171.252 315.069Z" fill="#F4F6FA"/>
<path d="M174.923 309.071L179.788 311.645L178.604 312.272L173.62 311.731L176.623 313.318L175.439 313.945L170.573 311.371L171.757 310.745L176.754 311.292L173.738 309.695L174.923 309.071Z" fill="#F4F6FA"/>
<path d="M175.519 308.755L179.284 306.764L180.235 307.266L178.946 307.948L182.863 310.02L181.679 310.647L177.762 308.575L176.473 309.257L175.519 308.755Z" fill="#F4F6FA"/>
<path d="M185.776 306.358L183.932 307.333L185.934 308.392L184.749 309.018L179.884 306.445L181.068 305.818L182.975 306.826L184.82 305.852L182.913 304.843L184.097 304.217L188.962 306.793L187.778 307.419L185.776 306.358Z" fill="#F4F6FA"/>
<path d="M119.237 338.479L120.581 337.766L123.562 338.347L122.459 336.775L123.79 336.071L125.365 338.686L126.974 339.536L125.789 340.162L124.181 339.313L119.237 338.479Z" fill="#F4F6FA"/>
<path d="M128.204 334.739L126.409 335.689L127.394 336.21L128.982 335.37L129.896 335.853L128.308 336.693L129.377 337.257L131.172 336.306L132.123 336.808L129.144 338.386L124.279 335.812L127.26 334.234L128.204 334.739Z" fill="#F4F6FA"/>
<path d="M135.059 334.347L133.243 335.307L133.812 335.915L132.57 336.573L129.465 333.065L130.838 332.34L137.464 333.984L136.209 334.647L135.059 334.347ZM131.454 333.399L132.638 334.657L133.838 334.023L131.454 333.399Z" fill="#F4F6FA"/>
<path d="M135.127 330.071C136.319 329.44 137.603 329.488 138.45 329.937C139.06 330.258 139.301 330.741 138.774 331.252L141.824 331.677L140.485 332.386L137.635 331.949L137.352 332.1L139.188 333.072L138.004 333.699L133.139 331.125L135.127 330.071ZM136.042 330.628L135.308 331.017L136.513 331.656L137.25 331.267C137.692 331.032 137.671 330.801 137.289 330.599C136.927 330.41 136.487 330.395 136.042 330.628Z" fill="#F4F6FA"/>
<path d="M214.363 290.721C215.804 291.485 215.799 292.536 214.245 293.358L212.422 294.323L207.556 291.749L209.38 290.784C210.931 289.963 212.914 289.956 214.363 290.721ZM213.142 292.856C214.035 292.383 214.049 291.833 213.155 291.36C212.262 290.887 211.209 290.887 210.315 291.36L209.754 291.658L212.581 293.154L213.142 292.856Z" fill="#F4F6FA"/>
<path d="M219.635 289.597L217.82 290.557L218.388 291.165L217.146 291.82L214.042 288.312L215.414 287.587L222.04 289.232L220.785 289.895L219.635 289.597ZM216.03 288.651L217.214 289.909L218.412 289.275L216.03 288.651Z" fill="#F4F6FA"/>
<path d="M217.328 286.577L218.672 285.866L221.654 286.447L220.551 284.872L221.882 284.169L223.456 286.783L225.065 287.633L223.881 288.26L222.272 287.41L217.328 286.577Z" fill="#F4F6FA"/>
<path d="M402.296 217.947L367.017 236.612C364.856 237.757 361.348 237.757 359.186 236.612C357.025 235.467 357.025 233.613 359.186 232.468L394.465 213.801C396.626 212.656 400.135 212.656 402.296 213.801C404.46 214.949 404.46 216.805 402.296 217.947Z" fill="#F4F6FA"/>
<path d="M364.418 235.237C363.692 235.621 362.513 235.621 361.787 235.237C361.061 234.852 361.061 234.228 361.787 233.846L397.063 215.182C397.789 214.798 398.968 214.798 399.694 215.182C400.419 215.566 400.419 216.19 399.694 216.572L364.418 235.237Z" fill="#D2D6E3"/>
<path opacity="0.25" d="M633.618 100.864L350.141 250.852C346.638 252.706 340.958 252.706 337.455 250.852L162.345 158.202C158.842 156.348 158.842 153.342 162.345 151.489L445.822 1.50047C449.325 -0.35302 455.005 -0.35302 458.508 1.50047L633.618 94.1508C637.121 96.0043 637.121 99.0103 633.618 100.864Z" fill="#E2E5ED"/>
<path opacity="0.8" d="M636.189 97.1861C636.047 96.0816 635.217 94.9964 633.621 94.1513L458.511 1.49851C455.008 -0.354974 449.328 -0.354974 445.825 1.49851L162.348 151.487C160.595 152.414 159.72 153.629 159.72 154.843V173.133V173.916H159.861C160.157 174.857 160.972 175.762 162.348 176.49L337.458 269.143C340.961 270.996 346.641 270.996 350.144 269.143L633.621 119.154C635.408 118.208 636.273 116.962 636.233 115.723H636.246V97.1861H636.189Z" fill="#171C51"/>
<path opacity="0.8" d="M633.608 100.734L350.186 250.694C346.683 252.547 341.005 252.547 337.502 250.694L162.426 158.06C158.923 156.207 158.923 153.203 162.426 151.35L445.848 1.39012C449.351 -0.463372 455.029 -0.463372 458.532 1.39012L633.608 94.0237C637.108 95.8772 637.108 98.8807 633.608 100.734Z" fill="#171C51"/>
<path opacity="0.25" d="M484.798 28.7647L614.941 97.6222C616.429 98.4097 616.429 99.6846 614.941 100.472L349.408 240.967C347.92 241.755 345.509 241.755 344.021 240.967L289.079 211.897C307.605 193.142 325.464 183.641 339.436 178.398C345.939 175.961 361.845 169.687 371.935 158.871C375.425 155.133 377.673 150.54 377.993 144.348C378.993 124.966 373.237 119.077 402.804 104.242C432.371 89.4112 437.75 80.0645 435.073 52.2334C432.387 24.3998 484.798 28.7647 484.798 28.7647Z" fill="#E2E5ED"/>
<path d="M614.939 100.462L590.858 113.216L588.65 114.368L536.713 141.854C536.713 141.854 536.713 141.854 536.713 141.875L534.504 143.028L483.088 170.23V170.251L480.856 171.428L428.943 198.892L426.734 200.066L374.797 227.529C374.797 227.551 374.797 227.551 374.797 227.551L372.612 228.703L349.409 240.977C347.913 241.76 345.516 241.76 344.019 240.977L337.868 237.712C343.163 230.161 349.574 224.351 355.988 219.911C356.677 219.412 357.366 218.932 358.055 218.497C361.972 215.907 365.821 213.818 369.384 212.121C382.492 205.833 390.947 203.242 397.62 200.913C403.534 198.846 408.022 196.952 413.105 192.839C413.414 192.599 413.723 192.34 414.032 192.078C414.341 191.816 414.627 191.557 414.933 191.295C422.817 184.136 423.268 177.216 423.577 170.491C423.933 162.636 424.075 155.02 435.616 147.489C435.972 147.248 436.329 147.032 436.708 146.792C437.065 146.576 437.421 146.358 437.801 146.118C441.197 144.072 445.211 141.918 453.854 138.98C470.811 133.213 484.06 133.909 499 124.248H499.023C499.736 123.77 500.425 123.29 501.067 122.834C520.636 108.318 505.461 88.5154 514.817 75.3057C515.22 74.7175 515.695 74.1293 516.242 73.5651C518.213 71.4115 520.992 69.474 524.862 67.7981C533.246 64.1632 543.457 63.4453 550.106 63.3157L614.939 97.634C616.435 98.4167 616.435 99.6796 614.939 100.462Z" fill="url(#paint1_linear_204_6)"/>
<path d="M374.798 227.529C374.822 227.529 374.798 227.551 374.798 227.551L372.613 228.703L355.989 219.911L309.111 195.103C308.54 194.819 308.351 194.145 308.684 193.624C309.017 193.103 309.73 192.927 310.298 193.232L358.056 218.497L374.371 227.138C374.56 227.224 374.701 227.375 374.798 227.529Z" fill="#F4F6FA"/>
<path d="M428.945 198.892L426.736 200.066L413.104 192.841L363.258 166.468C362.687 166.163 362.498 165.51 362.831 164.989C363.14 164.468 363.877 164.292 364.445 164.597L414.933 191.3L428.518 198.481C428.707 198.587 428.848 198.716 428.945 198.892Z" fill="#F4F6FA"/>
<path d="M536.711 141.854C536.711 141.854 536.711 141.854 536.711 141.875L534.502 143.028L499.022 124.248L428.016 86.6669C427.448 86.3836 427.233 85.7089 427.566 85.1879C427.899 84.6645 428.635 84.4917 429.203 84.7966L501.066 122.836L536.284 141.465C536.473 141.549 536.617 141.679 536.711 141.854Z" fill="#F4F6FA"/>
<path d="M590.859 113.215L588.65 114.368L514.818 75.3054L442.387 36.9823C441.815 36.699 441.627 36.0244 441.959 35.5034C442.269 34.98 443.005 34.8071 443.573 35.112L516.243 73.5647L590.432 112.822C590.62 112.932 590.762 113.062 590.859 113.215Z" fill="#F4F6FA"/>
<path d="M450.714 40.1442C448.312 41.4143 444.418 41.4143 442.018 40.1442L435.24 36.5572C432.838 35.2872 432.838 33.2272 435.24 31.9548C437.64 30.6847 441.536 30.6847 443.936 31.9548L450.714 35.5417C453.117 36.8142 453.117 38.8741 450.714 40.1442Z" fill="#FF4E75"/>
<path d="M368.786 163.32C371.302 164.65 371.302 166.811 368.786 168.141C366.271 169.473 362.192 169.473 359.674 168.141C357.159 166.811 357.159 164.65 359.674 163.32C362.189 161.987 366.269 161.987 368.786 163.32Z" fill="#BCBECD"/>
<path d="M433.539 83.5745C436.055 84.907 436.055 87.0654 433.539 88.3955C431.024 89.7279 426.945 89.7279 424.427 88.3955C421.912 87.0654 421.912 84.9046 424.427 83.5745C426.945 82.2444 431.024 82.2444 433.539 83.5745Z" fill="#BCBECD"/>
<path d="M317.446 198.265C315.044 199.535 311.15 199.535 308.75 198.265L301.972 194.678C299.57 193.408 299.57 191.348 301.972 190.076C304.375 188.806 308.268 188.806 310.668 190.076L317.446 193.663C319.849 194.933 319.849 196.993 317.446 198.265Z" fill="#6F4AAB"/>
<path d="M483.088 170.23V170.252L480.855 171.428L435.615 147.491L381.97 119.093C381.399 118.788 381.21 118.135 381.543 117.614C381.876 117.093 382.588 116.918 383.157 117.201L437.8 146.123L482.637 169.843C482.828 169.925 482.97 170.079 483.088 170.23Z" fill="#F4F6FA"/>
<path d="M382.862 121.71C386.42 121.71 389.305 120.184 389.305 118.301C389.305 116.418 386.42 114.892 382.862 114.892C379.304 114.892 376.419 116.418 376.419 118.301C376.419 120.184 379.304 121.71 382.862 121.71Z" fill="#BCBECD"/>
<path d="M304.751 176.808L290.825 184.176L286.989 182.147L300.915 174.779L304.751 176.808Z" fill="#6F4AAB"/>
<path d="M317.508 175.946L296.388 187.12L292.552 185.091L313.672 173.917L317.508 175.946Z" fill="#D2D6E3"/>
<path d="M372.226 105.307L358.3 112.675L354.464 110.644L368.39 103.276L372.226 105.307Z" fill="#BCBECD"/>
<path d="M381.389 106.348L360.269 117.521L356.431 115.493L377.551 104.316L381.389 106.348Z" fill="#D2D6E3"/>
<path d="M411.366 34.0631L425.292 26.6947L421.456 24.6636L407.528 32.0319L411.366 34.0631Z" fill="#FF4E75"/>
<path d="M409.733 40.8123L430.853 29.6386L427.017 27.6074L405.897 38.7812L409.733 40.8123Z" fill="#D2D6E3"/>
<path d="M201.443 226.706H193.043C178.253 209.281 145.366 197.053 106.894 196.827C67.6691 196.597 33.7187 208.908 18.6194 226.706H10.2642V249.796H10.3847C12.7322 276.357 53.8799 297.655 104.777 297.953C156.386 298.255 198.867 276.854 201.272 249.796H201.443V226.706Z" fill="#FEB160"/>
<mask id="mask1_204_6" style="mask-type:luminance" maskUnits="userSpaceOnUse" x="10" y="196" width="192" height="102">
<path d="M201.444 226.706H193.044C178.254 209.281 145.368 197.053 106.895 196.827C67.6705 196.597 33.7202 208.908 18.6209 226.706H10.2656V249.796H10.3861C12.7337 276.357 53.8813 297.655 104.778 297.953C156.388 298.255 198.869 276.854 201.274 249.796H201.444V226.706Z" fill="white"/>
</mask>
<g mask="url(#mask1_204_6)">
<path d="M11.7609 281.127C10.5636 280.426 9.65707 278.57 9.72258 276.99C10.3304 262.842 10.9382 248.693 11.5461 234.545C11.6142 232.967 12.7015 231.69 13.9853 231.68C15.2718 231.671 16.236 233.03 16.16 234.696C15.4657 249.584 14.7713 264.469 14.077 279.355C13.9958 281.028 12.9609 281.833 11.7609 281.127Z" fill="#FF7C68"/>
<path d="M31.3075 290.918C30.0421 290.373 29.1015 288.366 29.2011 286.46C30.0631 269.354 30.925 252.25 31.7844 235.143C31.8866 233.235 32.9897 231.681 34.2735 231.679C35.5521 231.672 36.5136 233.273 36.4114 235.258C35.5337 252.939 34.6559 270.621 33.7809 288.301C33.6813 290.289 32.5652 291.461 31.3075 290.918Z" fill="#FF7C68"/>
<path d="M51.767 298.279C50.4518 297.887 49.4588 295.808 49.5609 293.643C50.3994 274.294 51.2325 254.945 52.071 235.599C52.1627 233.433 53.2788 231.688 54.5574 231.68C55.836 231.678 56.8001 233.467 56.711 235.683C55.9093 255.442 55.1102 275.204 54.3111 294.966C54.2247 297.182 53.0823 298.67 51.767 298.279Z" fill="#FF7C68"/>
<path d="M72.8887 303.211C71.5421 302.98 70.5044 300.875 70.5752 298.544C71.1857 277.665 71.7936 256.787 72.404 235.909C72.4722 233.573 73.5647 231.686 74.8433 231.681C76.1219 231.676 77.1122 233.592 77.0493 235.96C76.5122 257.087 75.9751 278.215 75.438 299.341C75.3778 301.708 74.2381 303.446 72.8887 303.211Z" fill="#FF7C68"/>
<path d="M94.4036 305.71C93.0412 305.626 91.9565 303.581 91.988 301.156C92.2447 279.461 92.5042 257.767 92.7609 236.072C92.7897 233.645 93.8561 231.676 95.1294 231.679C96.408 231.679 97.4272 233.65 97.4115 236.089C97.2438 257.87 97.0761 279.649 96.911 301.429C96.89 303.874 95.7739 305.797 94.4036 305.71Z" fill="#FF7C68"/>
<path d="M116.058 305.78C114.69 305.857 113.574 303.917 113.558 301.482C113.414 279.687 113.27 257.889 113.126 236.094C113.11 233.652 114.132 231.679 115.413 231.681C116.687 231.684 117.758 233.652 117.777 236.08C118.013 257.798 118.246 279.519 118.481 301.237C118.505 303.662 117.42 305.713 116.058 305.78Z" fill="#FF7C68"/>
<path d="M137.59 303.42C136.244 303.65 135.101 301.898 135.044 299.523C134.527 278.338 134.006 257.155 133.49 235.969C133.43 233.595 134.423 231.684 135.701 231.679C136.98 231.686 138.067 233.578 138.138 235.921C138.73 256.864 139.322 277.809 139.914 298.755C139.98 301.098 138.942 303.189 137.59 303.42Z" fill="#FF7C68"/>
<path d="M158.739 298.628C157.426 299.017 156.279 297.502 156.192 295.276C155.403 275.416 154.615 255.558 153.826 235.7C153.735 233.477 154.712 231.672 155.985 231.679C157.266 231.684 158.38 233.448 158.469 235.619C159.297 255.075 160.125 274.532 160.953 293.987C161.042 296.157 160.057 298.241 158.739 298.628Z" fill="#FF7C68"/>
<path d="M179.245 291.405C177.974 291.945 176.868 290.747 176.766 288.745C175.889 270.925 175.008 253.106 174.128 235.289C174.023 233.287 174.987 231.676 176.266 231.68C177.547 231.68 178.655 233.243 178.758 235.174C179.625 252.429 180.492 269.682 181.359 286.935C181.459 288.865 180.51 290.86 179.245 291.405Z" fill="#FF7C68"/>
<path d="M198.848 281.754C197.645 282.443 196.6 281.622 196.521 279.927C195.806 264.861 195.094 249.796 194.381 234.73C194.302 233.035 195.269 231.669 196.553 231.679C197.837 231.688 198.929 232.982 198.997 234.581C199.629 248.92 200.26 263.255 200.892 277.593C200.957 279.19 200.053 281.053 198.848 281.754Z" fill="#FF7C68"/>
<path d="M13.9768 281.801C13.3741 281.467 12.9104 280.521 12.9523 279.7C13.6545 264.375 14.3593 249.053 15.0614 233.728C15.0981 232.909 15.6405 232.247 16.2877 232.247C16.9243 232.249 17.4143 232.936 17.3724 233.778C16.6283 249.478 15.8868 265.177 15.1427 280.877C15.0981 281.719 14.5794 282.135 13.9768 281.801Z" fill="#F6C462"/>
<path d="M33.6415 291.209C33.0022 290.94 32.5333 289.95 32.5804 288.961C33.4922 270.681 34.404 252.403 35.3157 234.125C35.3629 233.148 35.9157 232.358 36.5602 232.355C37.1942 232.355 37.6816 233.169 37.6292 234.166C36.7122 252.734 35.7978 271.303 34.8781 289.871C34.8362 290.865 34.273 291.465 33.6415 291.209Z" fill="#F6C462"/>
<path d="M54.189 298.212C53.5313 298.031 53.0283 296.982 53.0781 295.885C53.9218 275.396 54.7654 254.907 55.6091 234.417C55.651 233.318 56.2117 232.434 56.851 232.432C57.485 232.429 57.9723 233.337 57.9304 234.446C57.1077 255.14 56.285 275.833 55.4623 296.529C55.4204 297.638 54.8466 298.404 54.189 298.212Z" fill="#F6C462"/>
<path d="M75.3575 302.811C74.6842 302.708 74.1628 301.661 74.1942 300.48C74.7732 278.524 75.3523 256.567 75.9313 234.614C75.9601 233.43 76.5025 232.484 77.147 232.482C77.7863 232.486 78.2763 233.442 78.2527 234.628C77.713 256.704 77.1732 278.778 76.6335 300.854C76.5994 302.047 76.0282 302.919 75.3575 302.811Z" fill="#F6C462"/>
<path d="M96.8897 305.009C96.2085 304.975 95.6661 303.96 95.6739 302.745C95.873 280.066 96.0696 257.387 96.2661 234.711C96.2766 233.496 96.8058 232.514 97.4425 232.509C98.0896 232.509 98.6005 233.506 98.5874 234.716C98.438 257.428 98.2861 280.141 98.1368 302.853C98.1368 304.077 97.5735 305.035 96.8897 305.009Z" fill="#F6C462"/>
<path d="M118.526 304.805C117.84 304.841 117.276 303.897 117.271 302.68C117.048 280.025 116.828 257.368 116.608 234.711C116.595 233.494 117.106 232.509 117.745 232.509C118.387 232.504 118.911 233.489 118.93 234.706C119.197 257.313 119.467 279.917 119.734 302.524C119.75 303.739 119.197 304.762 118.526 304.805Z" fill="#F6C462"/>
<path d="M140.015 302.195C139.342 302.317 138.776 301.451 138.74 300.281C138.14 278.39 137.542 256.499 136.945 234.607C136.913 233.431 137.403 232.48 138.045 232.478C138.684 232.48 139.224 233.419 139.266 234.591C139.9 256.345 140.534 278.104 141.171 299.859C141.205 301.026 140.691 302.075 140.015 302.195Z" fill="#F6C462"/>
<path d="M161.095 297.181C160.434 297.371 159.876 296.644 159.824 295.551C158.97 275.168 158.116 254.786 157.262 234.405C157.217 233.306 157.699 232.424 158.338 232.42C158.98 232.422 159.538 233.289 159.583 234.374C160.453 254.534 161.325 274.697 162.195 294.86C162.234 295.942 161.75 296.98 161.095 297.181Z" fill="#F6C462"/>
<path d="M181.511 289.765C180.882 290.039 180.324 289.468 180.28 288.49C179.37 270.361 178.464 252.232 177.555 234.103C177.505 233.128 177.984 232.338 178.624 232.336C179.266 232.336 179.819 233.102 179.868 234.062C180.767 251.886 181.666 269.711 182.562 287.537C182.614 288.49 182.142 289.492 181.511 289.765Z" fill="#F6C462"/>
<path d="M201.001 279.949C200.409 280.299 199.885 279.915 199.851 279.104C199.172 263.971 198.488 248.838 197.81 233.705C197.776 232.889 198.263 232.233 198.9 232.229C199.539 232.233 200.081 232.86 200.118 233.655C200.752 248.396 201.386 263.14 202.02 277.884C202.054 278.669 201.593 279.603 201.001 279.949Z" fill="#F6C462"/>
</g>
<path d="M105.835 279.862C158.618 279.862 201.406 257.222 201.406 229.294C201.406 201.367 158.618 178.727 105.835 178.727C53.0527 178.727 10.2642 201.367 10.2642 229.294C10.2642 257.222 53.0527 279.862 105.835 279.862Z" fill="#F6C462"/>
<path d="M173.387 229.684C173.219 236.968 168.977 243.705 161.79 249.309C149.508 258.934 128.647 265.181 105.08 265.047C67.7862 264.826 37.8654 248.646 38.2742 228.887C38.3842 223.487 40.7369 218.378 44.9054 213.812C55.9095 201.69 79.4742 193.371 106.581 193.558C143.893 193.759 173.795 209.956 173.387 229.684Z" fill="#FF7C68"/>
<path d="M168.44 234.217C168.33 239.616 165.956 244.742 161.79 249.309C149.508 258.934 128.647 265.181 105.08 265.046C67.7862 264.826 37.8654 248.646 38.2742 228.887C38.3842 223.487 40.7369 218.378 44.9054 213.811C57.1881 204.186 78.0672 197.953 101.634 198.09C138.928 198.309 168.849 214.488 168.44 234.217Z" fill="#FF7C68"/>
<path d="M197.241 234.134C194.754 235.421 191.367 236.221 187.615 236.24C179.901 236.281 173.587 233.004 173.511 228.924C173.152 209.597 143.129 193.701 106.585 193.487C98.8716 193.442 92.6909 190.097 92.7748 186.016C92.8612 181.934 99.1833 178.664 106.894 178.707C132.075 178.856 155.739 184.131 173.522 193.564C191.278 202.983 201.194 215.489 201.441 228.778C201.48 230.876 199.866 232.778 197.241 234.134Z" fill="#F6C462"/>
<path d="M116.505 191.382C113.95 192.705 110.442 193.512 106.585 193.49C98.1515 193.439 89.9115 194.201 82.0986 195.749C74.8751 197.18 66.829 195.243 64.1199 191.423C61.4108 187.6 65.0788 183.341 72.297 181.91C83.3562 179.718 94.997 178.643 106.895 178.71C114.608 178.756 120.789 182.1 120.705 186.182C120.663 188.222 119.059 190.059 116.505 191.382Z" fill="#FFD383"/>
<path d="M148.519 263.641C153.94 266.51 153.94 271.161 148.519 274.03C143.098 276.899 134.305 276.899 128.884 274.03C123.461 271.161 123.461 266.51 128.884 263.641C134.305 260.772 143.096 260.772 148.519 263.641Z" fill="#FFD383"/>
<path d="M116.769 267.25C114.214 265.927 110.706 265.12 106.849 265.144C98.4153 265.195 90.1754 264.434 82.3598 262.885C75.1364 261.454 67.0902 263.392 64.3811 267.211C61.672 271.034 65.3401 275.293 72.5583 276.724C83.6174 278.916 95.2582 279.991 107.156 279.924C114.869 279.879 121.05 276.534 120.966 272.453C120.924 270.409 119.323 268.57 116.769 267.25Z" fill="#FFD383"/>
<path d="M407.631 619.958L561.005 538.808C568.666 534.753 568.666 528.182 561.005 524.127L476.061 479.182C468.4 475.129 455.978 475.129 448.315 479.182L294.941 560.335C287.28 564.39 287.28 570.961 294.941 575.016L379.885 619.961C387.546 624.013 399.97 624.013 407.631 619.958Z" fill="#7FD1CC"/>
<path d="M566.751 484.146L554.536 485.688L476.061 444.167C468.4 440.112 455.976 440.112 448.315 444.167L312.015 516.282L289.195 519.161V531.907L289.263 531.898C288.865 534.8 290.746 537.775 294.941 539.996L379.885 584.941C387.546 588.996 399.967 588.996 407.631 584.941L561.005 503.788C564.87 501.743 566.78 499.056 566.746 496.377H566.753V484.146H566.751Z" fill="#CCDEEC"/>
<path d="M407.631 572.778L561.005 491.626C568.666 487.573 568.666 480.999 561.005 476.947L476.061 432.002C468.4 427.947 455.978 427.947 448.315 432.002L294.941 513.155C287.28 517.21 287.28 523.781 294.941 527.836L379.885 572.781C387.546 576.831 399.97 576.831 407.631 572.778Z" fill="white"/>
<path d="M523.24 488.754L536.3 481.844L488.118 456.349L475.057 463.261L523.24 488.754Z" fill="#FF4E75"/>
<path d="M504.084 498.89L517.145 491.981L474.478 469.405L461.417 476.315L504.084 498.89Z" fill="#FF4E75"/>
<path d="M484.925 509.027L497.986 502.115L463.236 483.729L450.175 490.641L484.925 509.027Z" fill="#FF4E75"/>
<path d="M465.766 519.164L478.83 512.252L436.16 489.676L423.099 496.588L465.766 519.164Z" fill="#FF4E75"/>
<path d="M446.614 529.298L459.675 522.389L408.299 495.206L395.238 502.116L446.614 529.298Z" fill="#FF4E75"/>
<path d="M427.455 539.434L440.516 532.525L378.112 499.505L365.051 506.415L427.455 539.434Z" fill="#FF4E75"/>
<path d="M408.297 549.571L421.358 542.659L373.176 517.166L360.115 524.078L408.297 549.571Z" fill="#FF4E75"/>
<path d="M389.141 559.707L402.204 552.795L362.728 531.91L349.667 538.82L389.141 559.707Z" fill="#FF4E75"/>
<path d="M297.674 606.484C300.485 607.973 300.493 610.381 297.7 611.87L279.439 621.596C276.643 623.084 272.105 623.087 269.294 621.6L250.904 611.872C248.098 610.388 248.085 607.975 250.878 606.487L269.139 596.761C271.932 595.272 276.481 595.272 279.284 596.756L297.674 606.484Z" fill="#7FD1CC"/>
<path d="M60.7888 85.8937C51.1995 90.9668 51.1497 99.1946 60.6762 104.268L122.944 137.426C132.47 142.499 147.97 142.499 157.56 137.426L220.236 104.268C229.826 99.1946 229.875 90.9668 220.349 85.8937L158.081 52.735C148.555 47.6619 133.055 47.6619 123.465 52.735L60.7888 85.8937Z" fill="#7FD1CC"/>
<path d="M140.225 91.3857L124.62 114.386C118.471 113.203 112.641 111.325 107.697 108.708C103.55 106.514 100.413 103.99 98.1445 101.323L140.225 91.3857Z" fill="#FF4E75"/>
<path d="M172.779 74.0514C190.863 83.6189 190.936 99.1407 172.968 108.708C159.936 115.647 140.956 117.527 124.62 114.386L140.225 91.3858L98.1449 101.323C90.5625 92.3341 93.6411 81.4389 107.485 74.0658C125.451 64.4958 154.693 64.4814 172.779 74.0514Z" fill="white"/>
<path d="M75.2393 371.926C79.5676 374.216 79.5806 377.923 75.2785 380.213L47.1708 395.183C42.8713 397.473 35.8837 397.478 31.5554 395.19L3.25119 380.216C-1.06662 377.933 -1.08762 374.218 3.21185 371.928L31.3222 356.958C35.6217 354.668 42.6199 354.668 46.9377 356.954L75.2393 371.926Z" fill="#7FD1CC"/>
<path d="M280.455 68.4153C283.266 69.9039 283.274 72.312 280.481 73.8005L262.219 83.5265C259.426 85.0151 254.886 85.0175 252.075 83.5313L233.685 73.8029C230.878 72.3192 230.865 69.9063 233.658 68.4177L251.92 58.6917C254.713 57.2032 259.261 57.2032 262.065 58.6869L280.455 68.4153Z" fill="#7FD1CC"/>
</g>
</g>
<defs>
<filter id="filter0_d_204_6" x="-4" y="0" width="683.001" height="631" filterUnits="userSpaceOnUse" color-interpolation-filters="sRGB">
<feFlood flood-opacity="0" result="BackgroundImageFix"/>
<feColorMatrix in="SourceAlpha" type="matrix" values="0 0 0 0 0 0 0 0 0 0 0 0 0 0 0 0 0 0 127 0" result="hardAlpha"/>
<feOffset dy="4"/>
<feGaussianBlur stdDeviation="2"/>
<feComposite in2="hardAlpha" operator="out"/>
<feColorMatrix type="matrix" values="0 0 0 0 0 0 0 0 0 0 0 0 0 0 0 0 0 0 0.25 0"/>
<feBlend mode="normal" in2="BackgroundImageFix" result="effect1_dropShadow_204_6"/>
<feBlend mode="normal" in="SourceGraphic" in2="effect1_dropShadow_204_6" result="shape"/>
</filter>
<linearGradient id="paint0_linear_204_6" x1="640.024" y1="302.57" x2="-162.689" y2="513.858" gradientUnits="userSpaceOnUse">
<stop stop-color="#C7D3E5"/>
<stop offset="0.3307" stop-color="#DCE7F1"/>
<stop offset="0.7277" stop-color="#F0F9FB"/>
<stop offset="1" stop-color="#F7FFFF"/>
</linearGradient>
<linearGradient id="paint1_linear_204_6" x1="476.965" y1="50.3713" x2="476.965" y2="288.212" gradientUnits="userSpaceOnUse">
<stop stop-color="#2EC6BA"/>
<stop offset="0.4238" stop-color="#25B6B2"/>
<stop offset="1" stop-color="#1499A3"/>
</linearGradient>
</defs>
</svg>
