<svg width="159" height="19" viewBox="0 0 159 19" fill="none" xmlns="http://www.w3.org/2000/svg">
<path d="M1.36803 14V4.54545H4.56263C5.30435 4.54545 5.91064 4.67933 6.38153 4.94709C6.85548 5.21177 7.20634 5.57031 7.43408 6.02273C7.66183 6.47514 7.7757 6.97988 7.7757 7.53693C7.7757 8.09399 7.66183 8.60026 7.43408 9.05575C7.20941 9.51125 6.86164 9.87441 6.39076 10.1452C5.91988 10.413 5.31666 10.5469 4.5811 10.5469H2.29133V9.53125H4.54417C5.05198 9.53125 5.45977 9.44354 5.76753 9.26811C6.0753 9.09268 6.29843 8.85571 6.43692 8.55717C6.5785 8.25556 6.64928 7.91548 6.64928 7.53693C6.64928 7.15838 6.5785 6.81984 6.43692 6.52131C6.29843 6.22277 6.07376 5.98887 5.76292 5.8196C5.45207 5.64725 5.03967 5.56108 4.5257 5.56108H2.51292V14H1.36803ZM12.2768 14.1477C11.6366 14.1477 11.0749 13.9954 10.5918 13.6907C10.1116 13.386 9.73617 12.9598 9.46533 12.4119C9.19758 11.8641 9.0637 11.224 9.0637 10.4915C9.0637 9.75284 9.19758 9.10807 9.46533 8.55717C9.73617 8.00627 10.1116 7.57848 10.5918 7.27379C11.0749 6.96911 11.6366 6.81676 12.2768 6.81676C12.9169 6.81676 13.4771 6.96911 13.9572 7.27379C14.4404 7.57848 14.8158 8.00627 15.0836 8.55717C15.3544 9.10807 15.4898 9.75284 15.4898 10.4915C15.4898 11.224 15.3544 11.8641 15.0836 12.4119C14.8158 12.9598 14.4404 13.386 13.9572 13.6907C13.4771 13.9954 12.9169 14.1477 12.2768 14.1477ZM12.2768 13.169C12.763 13.169 13.1631 13.0444 13.4771 12.7951C13.791 12.5458 14.0233 12.218 14.1741 11.8118C14.3249 11.4055 14.4003 10.9654 14.4003 10.4915C14.4003 10.0175 14.3249 9.57588 14.1741 9.16655C14.0233 8.75722 13.791 8.42637 13.4771 8.17401C13.1631 7.92164 12.763 7.79545 12.2768 7.79545C11.7905 7.79545 11.3904 7.92164 11.0765 8.17401C10.7626 8.42637 10.5302 8.75722 10.3794 9.16655C10.2286 9.57588 10.1532 10.0175 10.1532 10.4915C10.1532 10.9654 10.2286 11.4055 10.3794 11.8118C10.5302 12.218 10.7626 12.5458 11.0765 12.7951C11.3904 13.0444 11.7905 13.169 12.2768 13.169ZM18.5182 14L16.3577 6.90909H17.5026L19.0353 12.3381H19.1092L20.6234 6.90909H21.7867L23.2824 12.3196H23.3563L24.889 6.90909H26.0339L23.8734 14H22.8023L21.2512 8.55256H21.1404L19.5893 14H18.5182ZM30.206 14.1477C29.5228 14.1477 28.9334 13.9969 28.4379 13.6953C27.9455 13.3906 27.5654 12.9659 27.2976 12.4212C27.033 11.8733 26.9006 11.2363 26.9006 10.5099C26.9006 9.78362 27.033 9.14347 27.2976 8.58949C27.5654 8.03243 27.9378 7.59848 28.4148 7.28764C28.8949 6.97372 29.4551 6.81676 30.0952 6.81676C30.4645 6.81676 30.8292 6.87831 31.1893 7.00142C31.5494 7.12453 31.8772 7.32457 32.1726 7.60156C32.4681 7.87547 32.7035 8.23864 32.879 8.69105C33.0544 9.14347 33.1421 9.70052 33.1421 10.3622V10.8239H27.6762V9.8821H32.0341C32.0341 9.48201 31.9541 9.125 31.7941 8.81108C31.6371 8.49716 31.4124 8.24941 31.1201 8.06783C30.8308 7.88625 30.4892 7.79545 30.0952 7.79545C29.6613 7.79545 29.2858 7.90317 28.9688 8.11861C28.6549 8.33097 28.4133 8.60795 28.244 8.94957C28.0747 9.29119 27.9901 9.65743 27.9901 10.0483V10.6761C27.9901 11.2116 28.0824 11.6656 28.2671 12.038C28.4548 12.4073 28.7149 12.6889 29.0473 12.8828C29.3797 13.0736 29.7659 13.169 30.206 13.169C30.4922 13.169 30.7508 13.129 30.9816 13.049C31.2155 12.9659 31.4171 12.8428 31.5863 12.6797C31.7556 12.5135 31.8864 12.3073 31.9787 12.0611L33.0313 12.3565C32.9205 12.7135 32.7343 13.0275 32.4727 13.2983C32.2111 13.5661 31.8879 13.7753 31.5032 13.9261C31.1185 14.0739 30.6861 14.1477 30.206 14.1477ZM34.7994 14V6.90909H35.852V7.98011H35.9258C36.0551 7.62926 36.289 7.34458 36.6275 7.12606C36.9661 6.90755 37.3477 6.79829 37.7724 6.79829C37.8524 6.79829 37.9525 6.79983 38.0725 6.80291C38.1925 6.80599 38.2833 6.81061 38.3449 6.81676V7.92472C38.3079 7.91548 38.2233 7.90163 38.091 7.88317C37.9617 7.86162 37.8247 7.85085 37.6801 7.85085C37.3354 7.85085 37.0276 7.92318 36.7568 8.06783C36.489 8.2094 36.2767 8.40637 36.1197 8.65874C35.9658 8.90803 35.8889 9.19271 35.8889 9.51278V14H34.7994ZM42.3935 14.1477C41.7103 14.1477 41.1209 13.9969 40.6254 13.6953C40.133 13.3906 39.7529 12.9659 39.4851 12.4212C39.2205 11.8733 39.0881 11.2363 39.0881 10.5099C39.0881 9.78362 39.2205 9.14347 39.4851 8.58949C39.7529 8.03243 40.1253 7.59848 40.6023 7.28764C41.0824 6.97372 41.6426 6.81676 42.2827 6.81676C42.652 6.81676 43.0167 6.87831 43.3768 7.00142C43.7369 7.12453 44.0647 7.32457 44.3601 7.60156C44.6556 7.87547 44.891 8.23864 45.0665 8.69105C45.2419 9.14347 45.3296 9.70052 45.3296 10.3622V10.8239H39.8637V9.8821H44.2216C44.2216 9.48201 44.1416 9.125 43.9816 8.81108C43.8246 8.49716 43.5999 8.24941 43.3076 8.06783C43.0183 7.88625 42.6767 7.79545 42.2827 7.79545C41.8488 7.79545 41.4733 7.90317 41.1563 8.11861C40.8424 8.33097 40.6008 8.60795 40.4315 8.94957C40.2622 9.29119 40.1776 9.65743 40.1776 10.0483V10.6761C40.1776 11.2116 40.2699 11.6656 40.4546 12.038C40.6423 12.4073 40.9024 12.6889 41.2348 12.8828C41.5672 13.0736 41.9534 13.169 42.3935 13.169C42.6797 13.169 42.9383 13.129 43.1691 13.049C43.403 12.9659 43.6046 12.8428 43.7738 12.6797C43.9431 12.5135 44.0739 12.3073 44.1662 12.0611L45.2188 12.3565C45.108 12.7135 44.9218 13.0275 44.6602 13.2983C44.3986 13.5661 44.0754 13.7753 43.6907 13.9261C43.306 14.0739 42.8736 14.1477 42.3935 14.1477ZM49.6645 14.1477C49.0736 14.1477 48.5519 13.9985 48.0995 13.6999C47.6471 13.3983 47.2931 12.9736 47.0377 12.4258C46.7822 11.8749 46.6545 11.224 46.6545 10.473C46.6545 9.72822 46.7822 9.08191 47.0377 8.53409C47.2931 7.98627 47.6486 7.56309 48.1041 7.26456C48.5596 6.96603 49.0859 6.81676 49.6829 6.81676C50.1446 6.81676 50.5093 6.8937 50.777 7.04759C51.0479 7.19839 51.2541 7.37074 51.3956 7.56463C51.5403 7.75544 51.6526 7.91241 51.7326 8.03551H51.825V4.54545H52.9145V14H51.8619V12.9105H51.7326C51.6526 13.0398 51.5388 13.2029 51.391 13.3999C51.2433 13.5937 51.0325 13.7676 50.7586 13.9215C50.4847 14.0723 50.12 14.1477 49.6645 14.1477ZM49.8122 13.169C50.2492 13.169 50.6185 13.0552 50.9201 12.8274C51.2218 12.5966 51.451 12.2781 51.608 11.8718C51.765 11.4625 51.8434 10.9901 51.8434 10.4545C51.8434 9.92519 51.7665 9.462 51.6126 9.06499C51.4587 8.66489 51.231 8.35405 50.9294 8.13246C50.6278 7.90779 50.2554 7.79545 49.8122 7.79545C49.3505 7.79545 48.9658 7.91394 48.6581 8.15092C48.3534 8.38482 48.1241 8.70336 47.9702 9.10653C47.8194 9.50663 47.744 9.95597 47.744 10.4545C47.744 10.9593 47.8209 11.4179 47.9748 11.8303C48.1318 12.2396 48.3626 12.5658 48.6673 12.8089C48.9751 13.049 49.3567 13.169 49.8122 13.169ZM58.8651 14V4.54545H59.9546V8.03551H60.0469C60.1269 7.91241 60.2377 7.75544 60.3793 7.56463C60.524 7.37074 60.7302 7.19839 60.9979 7.04759C61.2687 6.8937 61.635 6.81676 62.0966 6.81676C62.6937 6.81676 63.22 6.96603 63.6755 7.26456C64.131 7.56309 64.4864 7.98627 64.7419 8.53409C64.9973 9.08191 65.125 9.72822 65.125 10.473C65.125 11.224 64.9973 11.8749 64.7419 12.4258C64.4864 12.9736 64.1325 13.3983 63.6801 13.6999C63.2277 13.9985 62.706 14.1477 62.1151 14.1477C61.6596 14.1477 61.2949 14.0723 61.021 13.9215C60.7471 13.7676 60.5363 13.5937 60.3885 13.3999C60.2408 13.2029 60.1269 13.0398 60.0469 12.9105H59.9177V14H58.8651ZM59.9361 10.4545C59.9361 10.9901 60.0146 11.4625 60.1716 11.8718C60.3285 12.2781 60.5578 12.5966 60.8594 12.8274C61.161 13.0552 61.5303 13.169 61.9674 13.169C62.4229 13.169 62.803 13.049 63.1076 12.8089C63.4154 12.5658 63.6462 12.2396 63.8001 11.8303C63.9571 11.4179 64.0356 10.9593 64.0356 10.4545C64.0356 9.95597 63.9586 9.50663 63.8047 9.10653C63.6539 8.70336 63.4246 8.38482 63.1169 8.15092C62.8122 7.91394 62.429 7.79545 61.9674 7.79545C61.5242 7.79545 61.1518 7.90779 60.8502 8.13246C60.5486 8.35405 60.3208 8.66489 60.1669 9.06499C60.0131 9.462 59.9361 9.92519 59.9361 10.4545ZM67.2394 16.6591C67.0547 16.6591 66.8901 16.6437 66.7454 16.6129C66.6008 16.5852 66.5008 16.5575 66.4454 16.5298L66.7223 15.5696C66.987 15.6373 67.2209 15.6619 67.4241 15.6435C67.6272 15.625 67.8072 15.5342 67.9642 15.3711C68.1242 15.2111 68.2704 14.951 68.4027 14.5909L68.6059 14.0369L65.9837 6.90909H67.1655L69.1229 12.5597H69.1968L71.1542 6.90909H72.336L69.326 15.0341C69.1906 15.4003 69.0229 15.7035 68.8228 15.9435C68.6228 16.1867 68.3904 16.3667 68.1258 16.4837C67.8642 16.6006 67.5687 16.6591 67.2394 16.6591Z" fill="#545E65"/>
<path d="M88.642 4.54545V14H87.5341L82.3821 6.5767H82.2898V14H81.1449V4.54545H82.2528L87.4233 11.9872H87.5156V4.54545H88.642ZM91.3208 14H90.1205L93.5921 4.54545H94.7739L98.2455 14H97.0452L94.2199 6.04119H94.146L91.3208 14ZM91.7639 10.3068H96.602V11.3224H91.7639V10.3068ZM99.2172 4.54545L102.024 12.5043H102.135L104.942 4.54545H106.142L102.67 14H101.489L98.017 4.54545H99.2172ZM107.615 14V4.54545H110.809C111.548 4.54545 112.154 4.67164 112.628 4.92401C113.102 5.17329 113.453 5.51645 113.681 5.95348C113.908 6.39051 114.022 6.88755 114.022 7.4446C114.022 8.00166 113.908 8.49562 113.681 8.92649C113.453 9.35736 113.104 9.6959 112.633 9.94212C112.162 10.1853 111.56 10.3068 110.828 10.3068H108.242V9.27273H110.791C111.295 9.27273 111.702 9.19886 112.009 9.05114C112.32 8.90341 112.545 8.69413 112.684 8.4233C112.825 8.14938 112.896 7.82315 112.896 7.4446C112.896 7.06605 112.825 6.7352 112.684 6.45206C112.542 6.16892 112.316 5.9504 112.005 5.79652C111.694 5.63956 111.283 5.56108 110.772 5.56108H108.759V14H107.615ZM112.065 9.75284L114.392 14H113.062L110.772 9.75284H112.065ZM116.318 14H115.118L118.589 4.54545H119.771L123.243 14H122.042L119.217 6.04119H119.143L116.318 14ZM116.761 10.3068H121.599V11.3224H116.761V10.3068ZM129.886 6.90909C129.83 6.44129 129.606 6.07812 129.212 5.8196C128.818 5.56108 128.335 5.43182 127.762 5.43182C127.344 5.43182 126.977 5.49953 126.663 5.63494C126.353 5.77036 126.109 5.95656 125.934 6.19354C125.762 6.43052 125.675 6.69981 125.675 7.00142C125.675 7.25379 125.735 7.47076 125.855 7.65234C125.979 7.83085 126.136 7.98011 126.326 8.10014C126.517 8.21709 126.717 8.31404 126.926 8.39098C127.136 8.46484 127.328 8.52486 127.504 8.57102L128.464 8.82955C128.71 8.89418 128.984 8.98343 129.286 9.0973C129.59 9.21117 129.881 9.3666 130.158 9.56357C130.438 9.75746 130.669 10.0067 130.85 10.3114C131.032 10.6161 131.123 10.9901 131.123 11.4332C131.123 11.9441 130.989 12.4058 130.721 12.8182C130.457 13.2306 130.069 13.5584 129.558 13.8015C129.05 14.0446 128.433 14.1662 127.707 14.1662C127.03 14.1662 126.443 14.0569 125.948 13.8384C125.455 13.6199 125.068 13.3152 124.784 12.9244C124.504 12.5335 124.346 12.0795 124.309 11.5625H125.491C125.522 11.9195 125.642 12.215 125.851 12.4489C126.063 12.6797 126.331 12.852 126.654 12.9659C126.98 13.0767 127.331 13.1321 127.707 13.1321C128.144 13.1321 128.536 13.0613 128.884 12.9197C129.232 12.7751 129.507 12.575 129.71 12.3196C129.913 12.0611 130.015 11.7595 130.015 11.4148C130.015 11.1009 129.927 10.8454 129.752 10.6484C129.576 10.4515 129.346 10.2914 129.059 10.1683C128.773 10.0452 128.464 9.9375 128.131 9.84517L126.968 9.51278C126.229 9.30043 125.645 8.99728 125.214 8.60334C124.783 8.2094 124.567 7.69389 124.567 7.05682C124.567 6.52746 124.711 6.06581 124.997 5.67188C125.286 5.27486 125.674 4.96709 126.16 4.74858C126.65 4.52699 127.196 4.41619 127.799 4.41619C128.408 4.41619 128.95 4.52545 129.424 4.74396C129.898 4.9594 130.273 5.25485 130.55 5.63033C130.83 6.0058 130.978 6.43205 130.994 6.90909H129.886ZM136.661 14V4.54545H139.856C140.598 4.54545 141.204 4.67933 141.675 4.94709C142.149 5.21177 142.5 5.57031 142.728 6.02273C142.955 6.47514 143.069 6.97988 143.069 7.53693C143.069 8.09399 142.955 8.60026 142.728 9.05575C142.503 9.51125 142.155 9.87441 141.684 10.1452C141.213 10.413 140.61 10.5469 139.875 10.5469H137.585V9.53125H139.838C140.345 9.53125 140.753 9.44354 141.061 9.26811C141.369 9.09268 141.592 8.85571 141.73 8.55717C141.872 8.25556 141.943 7.91548 141.943 7.53693C141.943 7.15838 141.872 6.81984 141.73 6.52131C141.592 6.22277 141.367 5.98887 141.056 5.8196C140.746 5.64725 140.333 5.56108 139.819 5.56108H137.806V14H136.661ZM146.852 14.1662C146.403 14.1662 145.995 14.0816 145.629 13.9123C145.263 13.7399 144.972 13.4922 144.756 13.169C144.541 12.8428 144.433 12.4489 144.433 11.9872C144.433 11.581 144.513 11.2517 144.673 10.9993C144.833 10.7438 145.047 10.5438 145.315 10.3991C145.583 10.2545 145.878 10.1468 146.201 10.076C146.528 10.0021 146.855 9.94366 147.185 9.90057C147.616 9.84517 147.965 9.80362 148.233 9.77592C148.504 9.74515 148.7 9.69437 148.824 9.62358C148.95 9.55279 149.013 9.42969 149.013 9.25426V9.21733C149.013 8.76184 148.888 8.40791 148.639 8.15554C148.393 7.90317 148.019 7.77699 147.517 7.77699C146.997 7.77699 146.589 7.89086 146.294 8.11861C145.998 8.34635 145.791 8.58949 145.671 8.84801L144.636 8.47869C144.821 8.04782 145.067 7.71236 145.375 7.4723C145.686 7.22917 146.024 7.0599 146.391 6.96449C146.76 6.866 147.123 6.81676 147.48 6.81676C147.708 6.81676 147.97 6.84446 148.265 6.89986C148.564 6.95218 148.851 7.06143 149.128 7.22763C149.408 7.39382 149.641 7.64465 149.825 7.98011C150.01 8.31558 150.102 8.76491 150.102 9.32812V14H149.013V13.0398H148.957C148.884 13.1937 148.761 13.3583 148.588 13.5337C148.416 13.7092 148.187 13.8584 147.9 13.9815C147.614 14.1046 147.265 14.1662 146.852 14.1662ZM147.019 13.1875C147.449 13.1875 147.813 13.1029 148.108 12.9336C148.407 12.7643 148.631 12.5458 148.782 12.2781C148.936 12.0103 149.013 11.7287 149.013 11.4332V10.4361C148.967 10.4915 148.865 10.5423 148.708 10.5884C148.554 10.6315 148.376 10.67 148.173 10.7038C147.973 10.7346 147.777 10.7623 147.586 10.7869C147.399 10.8085 147.246 10.8269 147.129 10.8423C146.846 10.8793 146.582 10.9393 146.335 11.0224C146.092 11.1024 145.895 11.224 145.744 11.3871C145.597 11.5471 145.523 11.7656 145.523 12.0426C145.523 12.4212 145.663 12.7074 145.943 12.9013C146.226 13.0921 146.585 13.1875 147.019 13.1875ZM152.539 16.6591C152.354 16.6591 152.189 16.6437 152.045 16.6129C151.9 16.5852 151.8 16.5575 151.745 16.5298L152.022 15.5696C152.286 15.6373 152.52 15.6619 152.723 15.6435C152.926 15.625 153.107 15.5342 153.263 15.3711C153.424 15.2111 153.57 14.951 153.702 14.5909L153.905 14.0369L151.283 6.90909H152.465L154.422 12.5597H154.496L156.453 6.90909H157.635L154.625 15.0341C154.49 15.4003 154.322 15.7035 154.122 15.9435C153.922 16.1867 153.69 16.3667 153.425 16.4837C153.163 16.6006 152.868 16.6591 152.539 16.6591Z" fill="#545E65"/>
</svg>
