<svg width="463" height="508" viewBox="0 0 463 508" fill="none" xmlns="http://www.w3.org/2000/svg">
<path fill-rule="evenodd" clip-rule="evenodd" d="M229.195 205.71L45.2414 311.265C34.258 317.564 34.2529 327.808 45.226 334.144L229.047 440.232C240.021 446.566 257.822 446.592 268.806 440.292L452.758 334.738C463.741 328.436 463.748 318.192 452.773 311.858L268.955 205.768C263.448 202.591 256.225 201 249.006 201C241.836 201.002 234.667 202.571 229.195 205.71Z" fill="#B1BAC9"/>
<path fill-rule="evenodd" clip-rule="evenodd" d="M229.009 202.768L43.3192 309.62C32.2321 315.998 32.2269 326.367 43.3036 332.781L228.858 440.174C239.937 446.585 257.905 446.611 268.993 440.234L454.68 333.382C465.767 327.003 465.774 316.633 454.696 310.221L269.143 202.827C263.585 199.611 256.293 198 249.006 198C241.768 198.002 234.532 199.59 229.009 202.768Z" fill="#3F8DE5"/>
<mask id="mask0_410_3" style="mask-type:luminance" maskUnits="userSpaceOnUse" x="214" y="88" width="71" height="309">
<path fill-rule="evenodd" clip-rule="evenodd" d="M214.193 88.4028H284.002V396.33H214.193V88.4028Z" fill="white"/>
</mask>
<g mask="url(#mask0_410_3)">
<path fill-rule="evenodd" clip-rule="evenodd" d="M284.002 94.7656L279.031 98.6901L252.383 89.1883C250.576 88.1447 247.645 88.1405 245.837 89.1787L219.018 98.6901L214.193 94.7656V376.232H214.198C214.219 376.897 214.667 377.559 215.548 378.067L245.812 395.544C247.619 396.588 250.55 396.592 252.359 395.554L282.645 378.165C283.572 377.633 284.02 376.931 283.998 376.232H284.002V94.7656Z" fill="#21273B"/>
</g>
<mask id="mask1_410_3" style="mask-type:luminance" maskUnits="userSpaceOnUse" x="214" y="74" width="71" height="41">
<path fill-rule="evenodd" clip-rule="evenodd" d="M214.193 74.5959H284.002V114.792H214.193V74.5959Z" fill="white"/>
</mask>
<g mask="url(#mask1_410_3)">
<path fill-rule="evenodd" clip-rule="evenodd" d="M282.645 96.6278L252.359 114.017C250.55 115.055 247.619 115.05 245.812 114.007L215.548 96.5298C213.741 95.4865 213.742 93.7989 215.55 92.7607L245.837 75.3718C247.645 74.3336 250.576 74.3379 252.383 75.3814L282.647 92.8584C284.454 93.902 284.453 95.5896 282.645 96.6278Z" fill="#F3F3F3"/>
</g>
<mask id="mask2_410_3" style="mask-type:luminance" maskUnits="userSpaceOnUse" x="223" y="79" width="54" height="32">
<path fill-rule="evenodd" clip-rule="evenodd" d="M247.055 80.3485L224.048 93.5578C222.675 94.3462 222.674 95.6281 224.046 96.4209L247.037 109.697C248.409 110.49 250.635 110.493 252.009 109.705L275.016 96.4952C276.389 95.7067 276.39 94.4247 275.018 93.6321L252.028 80.3558C251.339 79.9582 250.436 79.759 249.533 79.759C248.636 79.7592 247.74 79.9556 247.055 80.3485Z" fill="white"/>
</mask>
<g mask="url(#mask2_410_3)">
<path fill-rule="evenodd" clip-rule="evenodd" d="M249.531 118.116H277.951V77.9412H249.531V118.116Z" fill="#AAB8CC"/>
<path fill-rule="evenodd" clip-rule="evenodd" d="M221.111 118.116H249.532V77.9412H221.111V118.116Z" fill="#565E68"/>
<g filter="url(#filter0_f_410_3)">
<path fill-rule="evenodd" clip-rule="evenodd" d="M262.414 107.924L251.088 114.426C250.412 114.815 249.316 114.813 248.641 114.423L237.323 107.887C236.647 107.497 236.648 106.866 237.324 106.478L248.65 99.975C249.326 99.5867 250.422 99.5883 251.098 99.9785L262.415 106.514C263.091 106.904 263.09 107.536 262.414 107.924Z" fill="#3F8DE5"/>
</g>
</g>
<mask id="mask3_410_3" style="mask-type:luminance" maskUnits="userSpaceOnUse" x="269" y="259" width="71" height="134">
<path fill-rule="evenodd" clip-rule="evenodd" d="M269.885 259.817H339.696V392.524H269.885V259.817Z" fill="white"/>
</mask>
<g mask="url(#mask3_410_3)">
<path fill-rule="evenodd" clip-rule="evenodd" d="M339.696 260.639L312.352 252.378C310.545 251.334 299.632 251.339 297.824 252.378L269.885 260.639L269.885 372.425C269.91 373.09 270.358 373.752 271.239 374.26L301.505 391.739C303.312 392.782 306.243 392.786 308.051 391.748L338.339 374.358C339.266 373.826 339.715 373.124 339.692 372.425L339.696 260.639Z" fill="#3E4A6F"/>
</g>
<mask id="mask4_410_3" style="mask-type:luminance" maskUnits="userSpaceOnUse" x="269" y="239" width="71" height="42">
<path fill-rule="evenodd" clip-rule="evenodd" d="M269.885 239.967H339.696V280.165H269.885V239.967Z" fill="white"/>
</mask>
<g mask="url(#mask4_410_3)">
<path fill-rule="evenodd" clip-rule="evenodd" d="M338.339 261.999L308.051 279.389C306.243 280.427 303.312 280.423 301.505 279.379L271.239 261.901C269.432 260.858 269.433 259.17 271.242 258.132L301.53 240.742C303.338 239.704 306.269 239.708 308.076 240.752L338.342 258.23C340.149 259.273 340.148 260.961 338.339 261.999Z" fill="#F3F3F3"/>
</g>
<mask id="mask5_410_3" style="mask-type:luminance" maskUnits="userSpaceOnUse" x="278" y="245" width="54" height="31">
<path fill-rule="evenodd" clip-rule="evenodd" d="M302.747 245.719L279.74 258.928C278.366 259.717 278.365 260.999 279.738 261.792L302.728 275.068C304.101 275.86 306.327 275.864 307.701 275.075L330.707 261.866C332.081 261.077 332.082 259.795 330.709 259.003L307.719 245.726C307.03 245.329 306.127 245.13 305.224 245.13C304.327 245.13 303.431 245.326 302.747 245.719Z" fill="white"/>
</mask>
<g mask="url(#mask5_410_3)">
<path fill-rule="evenodd" clip-rule="evenodd" d="M305.223 283.486H333.643V243.312H305.223V283.486Z" fill="#AAB8CC"/>
<path fill-rule="evenodd" clip-rule="evenodd" d="M276.803 283.486H305.223V243.312H276.803V283.486Z" fill="#565E68"/>
<g filter="url(#filter1_f_410_3)">
<path fill-rule="evenodd" clip-rule="evenodd" d="M318.106 273.294L306.78 279.797C306.104 280.185 305.008 280.184 304.332 279.793L293.014 273.258C292.339 272.868 292.339 272.236 293.015 271.848L304.341 265.346C305.017 264.957 306.113 264.959 306.789 265.349L318.107 271.885C318.782 272.275 318.782 272.906 318.106 273.294Z" fill="#3F8DE5"/>
</g>
</g>
<mask id="mask6_410_3" style="mask-type:luminance" maskUnits="userSpaceOnUse" x="156" y="185" width="71" height="208">
<path fill-rule="evenodd" clip-rule="evenodd" d="M156.762 185.015H226.573V392.524H156.762V185.015Z" fill="white"/>
</mask>
<g mask="url(#mask6_410_3)">
<path fill-rule="evenodd" clip-rule="evenodd" d="M226.573 191.378L221.602 195.303L194.953 185.801C193.146 184.757 190.215 184.753 188.407 185.791L162.174 193.566L156.762 191.378V372.425H156.766C156.787 373.09 157.235 373.752 158.116 374.26L188.382 391.738C190.189 392.782 193.12 392.786 194.928 391.748L225.216 374.358C226.143 373.826 226.592 373.124 226.569 372.425H226.573V191.378Z" fill="#2F3854"/>
</g>
<mask id="mask7_410_3" style="mask-type:luminance" maskUnits="userSpaceOnUse" x="156" y="171" width="71" height="41">
<path fill-rule="evenodd" clip-rule="evenodd" d="M156.762 171.207H226.573V211.406H156.762V171.207Z" fill="white"/>
</mask>
<g mask="url(#mask7_410_3)">
<path fill-rule="evenodd" clip-rule="evenodd" d="M225.216 193.24L194.928 210.63C193.12 211.668 190.189 211.664 188.382 210.62L158.116 193.142C156.309 192.099 156.31 190.411 158.119 189.373L188.407 171.983C190.215 170.945 193.146 170.949 194.953 171.993L225.219 189.471C227.026 190.514 227.025 192.202 225.216 193.24Z" fill="#F3F3F3"/>
</g>
<mask id="mask8_410_3" style="mask-type:luminance" maskUnits="userSpaceOnUse" x="165" y="176" width="54" height="31">
<path fill-rule="evenodd" clip-rule="evenodd" d="M189.624 176.96L166.617 190.169C165.243 190.957 165.242 192.239 166.615 193.032L189.605 206.308C190.977 207.101 193.204 207.104 194.577 206.316L217.584 193.107C218.958 192.318 218.959 191.036 217.586 190.243L194.596 176.967C193.907 176.569 193.004 176.37 192.101 176.37C191.204 176.371 190.308 176.567 189.624 176.96Z" fill="white"/>
</mask>
<g mask="url(#mask8_410_3)">
<path fill-rule="evenodd" clip-rule="evenodd" d="M192.1 214.727H220.52V174.552H192.1V214.727Z" fill="#AAB8CC"/>
<path fill-rule="evenodd" clip-rule="evenodd" d="M163.68 214.727H192.1V174.552H163.68V214.727Z" fill="#565E68"/>
<g filter="url(#filter2_f_410_3)">
<path fill-rule="evenodd" clip-rule="evenodd" d="M204.983 204.535L193.657 211.038C192.981 211.426 191.885 211.424 191.209 211.034L179.891 204.498C179.216 204.108 179.216 203.477 179.892 203.089L191.218 196.586C191.894 196.198 192.99 196.2 193.666 196.59L204.984 203.125C205.659 203.516 205.659 204.147 204.983 204.535Z" fill="#3F8DE5"/>
</g>
</g>
<mask id="mask9_410_3" style="mask-type:luminance" maskUnits="userSpaceOnUse" x="214" y="317" width="71" height="108">
<path fill-rule="evenodd" clip-rule="evenodd" d="M214.193 317.311H284.005V424.388H214.193V317.311Z" fill="white"/>
</mask>
<g mask="url(#mask9_410_3)">
<path fill-rule="evenodd" clip-rule="evenodd" d="M284.005 323.674L279.033 327.599L252.385 318.096C250.577 317.053 247.647 317.049 245.838 318.087L219.018 327.599L214.193 323.674V404.289H214.197C214.219 404.954 214.667 405.616 215.548 406.124L245.814 423.602C247.621 424.646 250.552 424.65 252.36 423.612L282.648 406.222C283.575 405.69 284.023 404.988 284.001 404.289H284.005V323.674Z" fill="#546497"/>
</g>
<mask id="mask10_410_3" style="mask-type:luminance" maskUnits="userSpaceOnUse" x="214" y="303" width="71" height="41">
<path fill-rule="evenodd" clip-rule="evenodd" d="M214.193 303.503H284.005V343.701H214.193V303.503Z" fill="white"/>
</mask>
<g mask="url(#mask10_410_3)">
<path fill-rule="evenodd" clip-rule="evenodd" d="M282.648 325.536L252.36 342.925C250.552 343.964 247.621 343.959 245.814 342.916L215.548 325.438C213.741 324.394 213.742 322.707 215.55 321.669L245.838 304.279C247.647 303.241 250.577 303.245 252.385 304.289L282.65 321.766C284.457 322.81 284.456 324.498 282.648 325.536Z" fill="#F3F3F3"/>
</g>
<mask id="mask11_410_3" style="mask-type:luminance" maskUnits="userSpaceOnUse" x="223" y="308" width="54" height="32">
<path fill-rule="evenodd" clip-rule="evenodd" d="M247.055 309.256L224.048 322.465C222.675 323.253 222.674 324.535 224.046 325.328L247.037 338.604C248.409 339.397 250.635 339.4 252.009 338.612L275.016 325.402C276.389 324.614 276.39 323.332 275.018 322.539L252.028 309.263C251.339 308.865 250.436 308.666 249.533 308.666C248.636 308.666 247.74 308.863 247.055 309.256Z" fill="white"/>
</mask>
<g mask="url(#mask11_410_3)">
<path fill-rule="evenodd" clip-rule="evenodd" d="M249.531 347.023H277.951V306.848H249.531V347.023Z" fill="#AAB8CC"/>
<path fill-rule="evenodd" clip-rule="evenodd" d="M221.111 347.023H249.532V306.848H221.111V347.023Z" fill="#565E68"/>
<g filter="url(#filter3_f_410_3)">
<path fill-rule="evenodd" clip-rule="evenodd" d="M262.414 336.831L251.088 343.334C250.412 343.722 249.316 343.72 248.641 343.33L237.323 336.794C236.647 336.404 236.648 335.773 237.324 335.385L248.65 328.882C249.326 328.494 250.422 328.496 251.098 328.886L262.415 335.421C263.091 335.812 263.09 336.443 262.414 336.831Z" fill="#3F8DE5"/>
</g>
</g>
<path d="M326.991 115.594H324.625V119H320.647V115.594H311.079V111.902L319.373 99.7598H324.625V111.902H326.991V115.594ZM315.551 111.902H320.647V104.414L315.551 111.902ZM342.089 118.948L328.361 119V115.88L334.705 110.602C336.759 108.912 337.617 107.716 337.617 106.13C337.617 104.18 336.655 103.14 334.939 103.14C333.145 103.14 332.105 104.362 332.105 106.52H327.919C327.919 102.204 330.675 99.3958 334.913 99.3958C339.307 99.3958 341.933 101.762 341.933 105.87C341.933 108.496 340.347 110.628 337.955 112.63L335.069 115.048H342.089V118.948ZM347.393 119.338C346.067 119.338 345.001 118.272 345.001 116.998C345.001 115.698 346.067 114.632 347.393 114.632C348.667 114.632 349.785 115.698 349.785 116.998C349.785 118.272 348.667 119.338 347.393 119.338ZM358.881 119.312C354.747 119.312 351.991 116.66 351.991 112.682H356.151C356.151 114.502 357.217 115.594 358.985 115.594C360.883 115.594 362.053 114.372 362.053 112.344C362.053 110.368 360.961 109.198 359.063 109.198C357.763 109.198 356.593 109.874 356.125 110.81L352.277 110.082L354.695 99.7598H365.147V103.66H357.711L356.957 106.468C357.789 105.974 358.855 105.714 360.025 105.714C363.769 105.714 366.369 108.184 366.369 112.084C366.369 116.4 363.327 119.312 358.881 119.312ZM378.103 104.622C378.103 107.69 375.945 109.848 372.903 109.848C369.861 109.848 367.703 107.69 367.703 104.622C367.703 101.554 369.861 99.3958 372.903 99.3958C375.945 99.3958 378.103 101.554 378.103 104.622ZM389.127 99.8118L374.515 119H370.589L385.201 99.8118H389.127ZM374.983 104.622C374.983 103.322 374.151 102.412 372.903 102.412C371.655 102.412 370.823 103.322 370.823 104.622C370.823 105.922 371.655 106.832 372.903 106.832C374.151 106.832 374.983 105.922 374.983 104.622ZM392.065 114.112C392.065 117.18 389.907 119.338 386.865 119.338C383.823 119.338 381.665 117.18 381.665 114.112C381.665 111.044 383.823 108.886 386.865 108.886C389.907 108.886 392.065 111.044 392.065 114.112ZM388.945 114.112C388.945 112.812 388.113 111.902 386.865 111.902C385.617 111.902 384.785 112.812 384.785 114.112C384.785 115.412 385.617 116.322 386.865 116.322C388.113 116.322 388.945 115.412 388.945 114.112Z" fill="#3F8DE5"/>
<path d="M311.539 144V133.92H315.431C315.995 133.92 316.488 134.036 316.908 134.27C317.328 134.503 317.654 134.818 317.888 135.215C318.121 135.607 318.238 136.041 318.238 136.517C318.238 137.058 318.093 137.541 317.804 137.966C317.514 138.386 317.127 138.677 316.642 138.841L316.628 138.498C317.281 138.684 317.794 139.011 318.168 139.478C318.541 139.944 318.728 140.509 318.728 141.172C318.728 141.755 318.604 142.259 318.357 142.684C318.109 143.104 317.762 143.428 317.314 143.657C316.866 143.885 316.345 144 315.753 144H311.539ZM312.575 143.013H315.501C315.911 143.013 316.28 142.94 316.607 142.796C316.933 142.646 317.19 142.436 317.377 142.166C317.568 141.895 317.664 141.568 317.664 141.186C317.664 140.812 317.577 140.476 317.405 140.178C317.232 139.879 316.996 139.641 316.698 139.464C316.404 139.282 316.068 139.191 315.69 139.191H312.575V143.013ZM312.575 138.218H315.424C315.746 138.218 316.04 138.145 316.306 138.001C316.572 137.851 316.782 137.648 316.936 137.392C317.094 137.135 317.174 136.839 317.174 136.503C317.174 136.027 317.008 135.639 316.677 135.341C316.35 135.042 315.932 134.893 315.424 134.893H312.575V138.218ZM320.265 135.005V133.85H321.294V135.005H320.265ZM320.265 144V136.44H321.294V144H320.265ZM327.508 144C327.083 144.088 326.663 144.123 326.248 144.105C325.837 144.086 325.469 143.997 325.142 143.839C324.82 143.68 324.575 143.433 324.407 143.097C324.272 142.817 324.197 142.534 324.183 142.25C324.174 141.96 324.169 141.631 324.169 141.263V134.34H325.191V141.221C325.191 141.538 325.193 141.804 325.198 142.019C325.207 142.229 325.256 142.415 325.345 142.579C325.513 142.891 325.779 143.078 326.143 143.139C326.512 143.199 326.967 143.185 327.508 143.097V144ZM322.552 137.322V136.44H327.508V137.322H322.552ZM331.86 144.21C331.099 144.21 330.455 144.039 329.928 143.699C329.401 143.358 328.999 142.889 328.724 142.292C328.453 141.69 328.313 140.999 328.304 140.22C328.313 139.426 328.458 138.731 328.738 138.134C329.018 137.532 329.422 137.065 329.949 136.734C330.476 136.398 331.116 136.23 331.867 136.23C332.632 136.23 333.297 136.416 333.862 136.79C334.431 137.163 334.821 137.674 335.031 138.323L334.023 138.645C333.846 138.192 333.563 137.842 333.176 137.595C332.793 137.343 332.355 137.217 331.86 137.217C331.305 137.217 330.845 137.345 330.481 137.602C330.117 137.854 329.846 138.206 329.669 138.659C329.492 139.111 329.401 139.632 329.396 140.22C329.405 141.125 329.615 141.853 330.026 142.404C330.437 142.95 331.048 143.223 331.86 143.223C332.373 143.223 332.81 143.106 333.169 142.873C333.533 142.635 333.808 142.289 333.995 141.837L335.031 142.145C334.751 142.817 334.34 143.33 333.799 143.685C333.258 144.035 332.611 144.21 331.86 144.21ZM339.428 144.21C338.677 144.21 338.035 144.039 337.503 143.699C336.971 143.358 336.563 142.887 336.278 142.285C335.993 141.683 335.851 140.992 335.851 140.213C335.851 139.419 335.996 138.724 336.285 138.127C336.574 137.529 336.985 137.065 337.517 136.734C338.054 136.398 338.691 136.23 339.428 136.23C340.184 136.23 340.828 136.4 341.36 136.741C341.897 137.077 342.305 137.546 342.585 138.148C342.87 138.745 343.012 139.433 343.012 140.213C343.012 141.006 342.87 141.704 342.585 142.306C342.3 142.903 341.89 143.37 341.353 143.706C340.816 144.042 340.175 144.21 339.428 144.21ZM339.428 143.223C340.268 143.223 340.893 142.945 341.304 142.39C341.715 141.83 341.92 141.104 341.92 140.213C341.92 139.298 341.712 138.57 341.297 138.029C340.886 137.487 340.263 137.217 339.428 137.217C338.863 137.217 338.397 137.345 338.028 137.602C337.664 137.854 337.391 138.206 337.209 138.659C337.032 139.107 336.943 139.625 336.943 140.213C336.943 141.123 337.153 141.853 337.573 142.404C337.993 142.95 338.611 143.223 339.428 143.223ZM344.696 135.005V133.85H345.725V135.005H344.696ZM344.696 144V136.44H345.725V144H344.696ZM353.284 144V140.143C353.284 139.723 353.244 139.338 353.165 138.988C353.085 138.633 352.957 138.325 352.78 138.064C352.607 137.798 352.381 137.592 352.101 137.448C351.825 137.303 351.489 137.231 351.093 137.231C350.729 137.231 350.407 137.294 350.127 137.42C349.851 137.546 349.618 137.728 349.427 137.966C349.24 138.199 349.098 138.484 349 138.82C348.902 139.156 348.853 139.538 348.853 139.968L348.125 139.807C348.125 139.032 348.26 138.381 348.531 137.854C348.801 137.326 349.175 136.927 349.651 136.657C350.127 136.386 350.673 136.251 351.289 136.251C351.741 136.251 352.136 136.321 352.472 136.461C352.812 136.601 353.099 136.79 353.333 137.028C353.571 137.266 353.762 137.539 353.907 137.847C354.051 138.15 354.156 138.474 354.222 138.82C354.287 139.16 354.32 139.501 354.32 139.842V144H353.284ZM347.817 144V136.44H348.748V138.302H348.853V144H347.817ZM358.939 144V133.92H359.884L363.846 142.397L367.787 133.92H368.746V143.993H367.766V136.216L364.175 144H363.51L359.926 136.216V144H358.939ZM370.85 135.005V133.85H371.879V135.005H370.85ZM370.85 144V136.44H371.879V144H370.85ZM379.438 144V140.143C379.438 139.723 379.398 139.338 379.319 138.988C379.24 138.633 379.111 138.325 378.934 138.064C378.761 137.798 378.535 137.592 378.255 137.448C377.98 137.303 377.644 137.231 377.247 137.231C376.883 137.231 376.561 137.294 376.281 137.42C376.006 137.546 375.772 137.728 375.581 137.966C375.394 138.199 375.252 138.484 375.154 138.82C375.056 139.156 375.007 139.538 375.007 139.968L374.279 139.807C374.279 139.032 374.414 138.381 374.685 137.854C374.956 137.326 375.329 136.927 375.805 136.657C376.281 136.386 376.827 136.251 377.443 136.251C377.896 136.251 378.29 136.321 378.626 136.461C378.967 136.601 379.254 136.79 379.487 137.028C379.725 137.266 379.916 137.539 380.061 137.847C380.206 138.15 380.311 138.474 380.376 138.82C380.441 139.16 380.474 139.501 380.474 139.842V144H379.438ZM373.971 144V136.44H374.902V138.302H375.007V144H373.971ZM382.431 135.005V133.85H383.46V135.005H382.431ZM382.431 144V136.44H383.46V144H382.431ZM391.018 144V140.143C391.018 139.723 390.978 139.338 390.899 138.988C390.82 138.633 390.691 138.325 390.514 138.064C390.341 137.798 390.115 137.592 389.835 137.448C389.56 137.303 389.224 137.231 388.827 137.231C388.463 137.231 388.141 137.294 387.861 137.42C387.586 137.546 387.352 137.728 387.161 137.966C386.974 138.199 386.832 138.484 386.734 138.82C386.636 139.156 386.587 139.538 386.587 139.968L385.859 139.807C385.859 139.032 385.994 138.381 386.265 137.854C386.536 137.326 386.909 136.927 387.385 136.657C387.861 136.386 388.407 136.251 389.023 136.251C389.476 136.251 389.87 136.321 390.206 136.461C390.547 136.601 390.834 136.79 391.067 137.028C391.305 137.266 391.496 137.539 391.641 137.847C391.786 138.15 391.891 138.474 391.956 138.82C392.021 139.16 392.054 139.501 392.054 139.842V144H391.018ZM385.551 144V136.44H386.482V138.302H386.587V144H385.551ZM396.874 147.57C396.486 147.57 396.104 147.511 395.726 147.395C395.352 147.283 395.007 147.103 394.69 146.856C394.372 146.613 394.106 146.296 393.892 145.904L394.823 145.386C395.033 145.806 395.327 146.107 395.705 146.289C396.087 146.475 396.477 146.569 396.874 146.569C397.42 146.569 397.861 146.466 398.197 146.261C398.537 146.06 398.785 145.761 398.939 145.365C399.093 144.968 399.167 144.473 399.163 143.881V141.865H399.282V136.44H400.199V143.895C400.199 144.109 400.192 144.315 400.178 144.511C400.168 144.711 400.147 144.907 400.115 145.099C400.026 145.663 399.842 146.128 399.562 146.492C399.286 146.856 398.922 147.126 398.47 147.304C398.022 147.481 397.49 147.57 396.874 147.57ZM396.804 144.21C396.099 144.21 395.497 144.035 394.998 143.685C394.498 143.33 394.116 142.852 393.85 142.25C393.584 141.648 393.451 140.969 393.451 140.213C393.451 139.461 393.581 138.785 393.843 138.183C394.109 137.581 394.489 137.105 394.984 136.755C395.478 136.405 396.071 136.23 396.762 136.23C397.471 136.23 398.068 136.402 398.554 136.748C399.039 137.093 399.405 137.567 399.653 138.169C399.905 138.766 400.031 139.447 400.031 140.213C400.031 140.964 399.907 141.643 399.66 142.25C399.412 142.852 399.048 143.33 398.568 143.685C398.087 144.035 397.499 144.21 396.804 144.21ZM396.909 143.251C397.445 143.251 397.889 143.12 398.239 142.859C398.589 142.597 398.85 142.238 399.023 141.781C399.195 141.319 399.282 140.796 399.282 140.213C399.282 139.62 399.195 139.097 399.023 138.645C398.85 138.187 398.589 137.83 398.239 137.574C397.893 137.317 397.457 137.189 396.93 137.189C396.388 137.189 395.94 137.322 395.586 137.588C395.231 137.854 394.967 138.215 394.795 138.673C394.627 139.13 394.543 139.643 394.543 140.213C394.543 140.787 394.629 141.305 394.802 141.767C394.979 142.224 395.243 142.586 395.593 142.852C395.943 143.118 396.381 143.251 396.909 143.251Z" fill="white"/>
<path d="M216.555 466.432C216.555 460.478 219.935 456.396 224.953 456.396C229.971 456.396 233.351 460.478 233.351 466.432C233.351 472.386 230.231 476.338 224.953 476.338C219.675 476.338 216.555 472.386 216.555 466.432ZM220.715 466.432C220.715 470.566 222.275 472.646 224.953 472.646C227.631 472.646 229.191 470.566 229.191 466.432C229.191 462.168 227.631 460.088 224.953 460.088C222.275 460.088 220.715 462.168 220.715 466.432ZM237.498 476.338C236.172 476.338 235.106 475.272 235.106 473.998C235.106 472.698 236.172 471.632 237.498 471.632C238.772 471.632 239.89 472.698 239.89 473.998C239.89 475.272 238.772 476.338 237.498 476.338ZM248.986 476.312C244.852 476.312 242.096 473.66 242.096 469.682H246.256C246.256 471.502 247.322 472.594 249.09 472.594C250.988 472.594 252.158 471.372 252.158 469.344C252.158 467.368 251.066 466.198 249.168 466.198C247.868 466.198 246.698 466.874 246.23 467.81L242.382 467.082L244.8 456.76H255.252V460.66H247.816L247.062 463.468C247.894 462.974 248.96 462.714 250.13 462.714C253.874 462.714 256.474 465.184 256.474 469.084C256.474 473.4 253.432 476.312 248.986 476.312ZM268.209 461.622C268.209 464.69 266.051 466.848 263.009 466.848C259.967 466.848 257.809 464.69 257.809 461.622C257.809 458.554 259.967 456.396 263.009 456.396C266.051 456.396 268.209 458.554 268.209 461.622ZM279.233 456.812L264.621 476H260.695L275.307 456.812H279.233ZM265.089 461.622C265.089 460.322 264.257 459.412 263.009 459.412C261.761 459.412 260.929 460.322 260.929 461.622C260.929 462.922 261.761 463.832 263.009 463.832C264.257 463.832 265.089 462.922 265.089 461.622ZM282.171 471.112C282.171 474.18 280.013 476.338 276.971 476.338C273.929 476.338 271.771 474.18 271.771 471.112C271.771 468.044 273.929 465.886 276.971 465.886C280.013 465.886 282.171 468.044 282.171 471.112ZM279.051 471.112C279.051 469.812 278.219 468.902 276.971 468.902C275.723 468.902 274.891 469.812 274.891 471.112C274.891 472.412 275.723 473.322 276.971 473.322C278.219 473.322 279.051 472.412 279.051 471.112Z" fill="#3F8DE5"/>
<path d="M216.939 501.21C215.936 501.21 215.089 500.988 214.398 500.545C213.707 500.097 213.185 499.478 212.83 498.69C212.475 497.901 212.298 496.991 212.298 495.96C212.298 494.928 212.475 494.018 212.83 493.23C213.185 492.441 213.707 491.825 214.398 491.382C215.089 490.934 215.936 490.71 216.939 490.71C218.11 490.71 219.067 491.011 219.809 491.613C220.551 492.21 221.06 493.013 221.335 494.021L220.285 494.294C220.07 493.496 219.685 492.863 219.13 492.397C218.575 491.93 217.844 491.697 216.939 491.697C216.15 491.697 215.495 491.876 214.972 492.236C214.449 492.595 214.055 493.097 213.789 493.741C213.528 494.38 213.392 495.12 213.383 495.96C213.378 496.8 213.507 497.539 213.768 498.179C214.034 498.818 214.431 499.32 214.958 499.684C215.49 500.043 216.15 500.223 216.939 500.223C217.844 500.223 218.575 499.989 219.13 499.523C219.685 499.051 220.07 498.419 220.285 497.626L221.335 497.899C221.06 498.907 220.551 499.712 219.809 500.314C219.067 500.911 218.11 501.21 216.939 501.21ZM226.036 501.21C225.285 501.21 224.643 501.039 224.111 500.699C223.579 500.358 223.171 499.887 222.886 499.285C222.602 498.683 222.459 497.992 222.459 497.213C222.459 496.419 222.604 495.724 222.893 495.127C223.183 494.529 223.593 494.065 224.125 493.734C224.662 493.398 225.299 493.23 226.036 493.23C226.792 493.23 227.436 493.4 227.968 493.741C228.505 494.077 228.913 494.546 229.193 495.148C229.478 495.745 229.62 496.433 229.62 497.213C229.62 498.006 229.478 498.704 229.193 499.306C228.909 499.903 228.498 500.37 227.961 500.706C227.425 501.042 226.783 501.21 226.036 501.21ZM226.036 500.223C226.876 500.223 227.502 499.945 227.912 499.39C228.323 498.83 228.528 498.104 228.528 497.213C228.528 496.298 228.321 495.57 227.905 495.029C227.495 494.487 226.872 494.217 226.036 494.217C225.472 494.217 225.005 494.345 224.636 494.602C224.272 494.854 223.999 495.206 223.817 495.659C223.64 496.107 223.551 496.625 223.551 497.213C223.551 498.123 223.761 498.853 224.181 499.404C224.601 499.95 225.22 500.223 226.036 500.223ZM240.181 501L240.188 496.037C240.188 495.453 240.024 494.996 239.698 494.665C239.376 494.329 238.965 494.161 238.466 494.161C238.181 494.161 237.903 494.226 237.633 494.357C237.362 494.487 237.138 494.697 236.961 494.987C236.788 495.276 236.702 495.654 236.702 496.121L236.093 495.946C236.079 495.404 236.184 494.931 236.408 494.525C236.636 494.119 236.949 493.804 237.346 493.58C237.747 493.351 238.2 493.237 238.704 493.237C239.464 493.237 240.073 493.472 240.531 493.944C240.988 494.41 241.217 495.043 241.217 495.841L241.21 501H240.181ZM231.158 501V493.44H232.082V495.302H232.194V501H231.158ZM235.68 501L235.687 496.107C235.687 495.505 235.526 495.031 235.204 494.686C234.886 494.336 234.466 494.161 233.944 494.161C233.421 494.161 232.999 494.34 232.677 494.7C232.355 495.054 232.194 495.528 232.194 496.121L231.578 495.785C231.578 495.299 231.692 494.865 231.921 494.483C232.149 494.095 232.462 493.792 232.859 493.573C233.255 493.349 233.706 493.237 234.21 493.237C234.69 493.237 235.117 493.339 235.491 493.545C235.869 493.75 236.165 494.049 236.38 494.441C236.594 494.833 236.702 495.309 236.702 495.869L236.695 501H235.68ZM252.048 501L252.055 496.037C252.055 495.453 251.891 494.996 251.565 494.665C251.243 494.329 250.832 494.161 250.333 494.161C250.048 494.161 249.77 494.226 249.5 494.357C249.229 494.487 249.005 494.697 248.828 494.987C248.655 495.276 248.569 495.654 248.569 496.121L247.96 495.946C247.946 495.404 248.051 494.931 248.275 494.525C248.503 494.119 248.816 493.804 249.213 493.58C249.614 493.351 250.067 493.237 250.571 493.237C251.331 493.237 251.94 493.472 252.398 493.944C252.855 494.41 253.084 495.043 253.084 495.841L253.077 501H252.048ZM243.025 501V493.44H243.949V495.302H244.061V501H243.025ZM247.547 501L247.554 496.107C247.554 495.505 247.393 495.031 247.071 494.686C246.753 494.336 246.333 494.161 245.811 494.161C245.288 494.161 244.866 494.34 244.544 494.7C244.222 495.054 244.061 495.528 244.061 496.121L243.445 495.785C243.445 495.299 243.559 494.865 243.788 494.483C244.016 494.095 244.329 493.792 244.726 493.573C245.122 493.349 245.573 493.237 246.077 493.237C246.557 493.237 246.984 493.339 247.358 493.545C247.736 493.75 248.032 494.049 248.247 494.441C248.461 494.833 248.569 495.309 248.569 495.869L248.562 501H247.547ZM257.79 501.189C257.337 501.189 256.941 501.119 256.6 500.979C256.264 500.839 255.977 500.65 255.739 500.412C255.506 500.174 255.317 499.903 255.172 499.6C255.027 499.292 254.922 498.967 254.857 498.627C254.792 498.281 254.759 497.938 254.759 497.598V493.44H255.795V497.297C255.795 497.712 255.835 498.097 255.914 498.452C255.993 498.806 256.119 499.117 256.292 499.383C256.469 499.644 256.696 499.847 256.971 499.992C257.251 500.136 257.589 500.209 257.986 500.209C258.35 500.209 258.67 500.146 258.945 500.02C259.225 499.894 259.458 499.714 259.645 499.481C259.836 499.243 259.981 498.956 260.079 498.62C260.177 498.279 260.226 497.896 260.226 497.472L260.954 497.633C260.954 498.407 260.819 499.058 260.548 499.586C260.277 500.113 259.904 500.512 259.428 500.783C258.952 501.053 258.406 501.189 257.79 501.189ZM260.331 501V499.138H260.226V493.44H261.255V501H260.331ZM268.671 501V497.143C268.671 496.723 268.632 496.338 268.552 495.988C268.473 495.633 268.345 495.325 268.167 495.064C267.995 494.798 267.768 494.592 267.488 494.448C267.213 494.303 266.877 494.231 266.48 494.231C266.116 494.231 265.794 494.294 265.514 494.42C265.239 494.546 265.006 494.728 264.814 494.966C264.628 495.199 264.485 495.484 264.387 495.82C264.289 496.156 264.24 496.538 264.24 496.968L263.512 496.807C263.512 496.032 263.648 495.381 263.918 494.854C264.189 494.326 264.562 493.927 265.038 493.657C265.514 493.386 266.06 493.251 266.676 493.251C267.129 493.251 267.523 493.321 267.859 493.461C268.2 493.601 268.487 493.79 268.72 494.028C268.958 494.266 269.15 494.539 269.294 494.847C269.439 495.15 269.544 495.474 269.609 495.82C269.675 496.16 269.707 496.501 269.707 496.842V501H268.671ZM263.204 501V493.44H264.135V495.302H264.24V501H263.204ZM271.664 492.005V490.85H272.693V492.005H271.664ZM271.664 501V493.44H272.693V501H271.664ZM278.908 501C278.483 501.088 278.063 501.123 277.648 501.105C277.237 501.086 276.868 500.997 276.542 500.839C276.22 500.68 275.975 500.433 275.807 500.097C275.671 499.817 275.597 499.534 275.583 499.25C275.573 498.96 275.569 498.631 275.569 498.263V491.34H276.591V498.221C276.591 498.538 276.593 498.804 276.598 499.019C276.607 499.229 276.656 499.415 276.745 499.579C276.913 499.891 277.179 500.078 277.543 500.139C277.911 500.199 278.366 500.185 278.908 500.097V501ZM273.952 494.322V493.44H278.908V494.322H273.952ZM281.27 504.36L282.733 500.391L282.754 501.567L279.443 493.44H280.535L283.251 500.237H282.803L285.309 493.44H286.359L282.299 504.36H281.27Z" fill="white"/>
<path d="M371.727 212.53H367.359V208.76H375.757V228H371.727V212.53ZM390.226 222.826L386.456 228H381.646L386.04 222.098C385.78 222.15 385.52 222.176 385.26 222.176C381.308 222.176 378.604 219.446 378.604 215.494C378.604 211.282 381.698 208.422 385.962 208.422C390.278 208.422 393.424 211.49 393.424 215.52C393.424 217.886 392.566 219.628 390.226 222.826ZM389.108 215.468C389.108 213.492 387.834 212.14 385.962 212.14C384.142 212.14 382.868 213.492 382.868 215.468C382.868 217.444 384.116 218.77 385.962 218.77C387.86 218.77 389.108 217.444 389.108 215.468ZM405.277 213.622C405.277 216.69 403.119 218.848 400.077 218.848C397.035 218.848 394.877 216.69 394.877 213.622C394.877 210.554 397.035 208.396 400.077 208.396C403.119 208.396 405.277 210.554 405.277 213.622ZM416.301 208.812L401.689 228H397.763L412.375 208.812H416.301ZM402.157 213.622C402.157 212.322 401.325 211.412 400.077 211.412C398.829 211.412 397.997 212.322 397.997 213.622C397.997 214.922 398.829 215.832 400.077 215.832C401.325 215.832 402.157 214.922 402.157 213.622ZM419.239 223.112C419.239 226.18 417.081 228.338 414.039 228.338C410.997 228.338 408.839 226.18 408.839 223.112C408.839 220.044 410.997 217.886 414.039 217.886C417.081 217.886 419.239 220.044 419.239 223.112ZM416.119 223.112C416.119 221.812 415.287 220.902 414.039 220.902C412.791 220.902 411.959 221.812 411.959 223.112C411.959 224.412 412.791 225.322 414.039 225.322C415.287 225.322 416.119 224.412 416.119 223.112Z" fill="#3F8DE5"/>
<path d="M370.955 253.21C370.25 253.21 369.615 253.093 369.051 252.86C368.491 252.622 368.026 252.286 367.658 251.852C367.294 251.418 367.056 250.902 366.944 250.305L367.994 250.13C368.162 250.783 368.516 251.296 369.058 251.67C369.599 252.038 370.245 252.223 370.997 252.223C371.491 252.223 371.935 252.146 372.327 251.992C372.719 251.833 373.027 251.609 373.251 251.32C373.475 251.03 373.587 250.687 373.587 250.291C373.587 250.029 373.54 249.808 373.447 249.626C373.353 249.439 373.23 249.285 373.076 249.164C372.922 249.042 372.754 248.942 372.572 248.863C372.39 248.779 372.212 248.711 372.04 248.66L369.485 247.897C369.177 247.808 368.892 247.696 368.631 247.561C368.369 247.421 368.141 247.255 367.945 247.064C367.753 246.868 367.604 246.639 367.497 246.378C367.389 246.116 367.336 245.818 367.336 245.482C367.336 244.912 367.485 244.42 367.784 244.005C368.082 243.589 368.491 243.27 369.009 243.046C369.527 242.822 370.117 242.712 370.78 242.717C371.452 242.717 372.051 242.836 372.579 243.074C373.111 243.312 373.549 243.652 373.895 244.096C374.24 244.534 374.469 245.055 374.581 245.657L373.503 245.853C373.433 245.414 373.272 245.034 373.02 244.712C372.768 244.39 372.446 244.142 372.054 243.97C371.666 243.792 371.239 243.701 370.773 243.697C370.32 243.697 369.916 243.774 369.562 243.928C369.212 244.077 368.934 244.282 368.729 244.544C368.523 244.805 368.421 245.104 368.421 245.44C368.421 245.78 368.514 246.053 368.701 246.259C368.892 246.464 369.125 246.625 369.401 246.742C369.681 246.858 369.951 246.954 370.213 247.029L372.187 247.61C372.392 247.666 372.632 247.747 372.908 247.855C373.188 247.957 373.458 248.107 373.72 248.303C373.986 248.494 374.205 248.746 374.378 249.059C374.55 249.371 374.637 249.768 374.637 250.249C374.637 250.715 374.543 251.133 374.357 251.502C374.175 251.87 373.916 252.181 373.58 252.433C373.248 252.685 372.859 252.876 372.411 253.007C371.967 253.142 371.482 253.21 370.955 253.21ZM380.198 253C379.773 253.088 379.353 253.123 378.938 253.105C378.527 253.086 378.158 252.997 377.832 252.839C377.51 252.68 377.265 252.433 377.097 252.097C376.961 251.817 376.887 251.534 376.873 251.25C376.863 250.96 376.859 250.631 376.859 250.263V243.34H377.881V250.221C377.881 250.538 377.883 250.804 377.888 251.019C377.897 251.229 377.946 251.415 378.035 251.579C378.203 251.891 378.469 252.078 378.833 252.139C379.201 252.199 379.656 252.185 380.198 252.097V253ZM375.242 246.322V245.44H380.198V246.322H375.242ZM383.85 253.21C383.281 253.21 382.802 253.107 382.415 252.902C382.032 252.696 381.745 252.423 381.554 252.083C381.363 251.742 381.267 251.371 381.267 250.97C381.267 250.559 381.349 250.209 381.512 249.92C381.68 249.626 381.906 249.385 382.191 249.199C382.48 249.012 382.814 248.87 383.192 248.772C383.575 248.678 383.997 248.597 384.459 248.527C384.926 248.452 385.381 248.389 385.824 248.338C386.272 248.282 386.664 248.228 387 248.177L386.636 248.401C386.65 247.654 386.505 247.101 386.202 246.742C385.899 246.382 385.371 246.203 384.62 246.203C384.102 246.203 383.663 246.319 383.304 246.553C382.949 246.786 382.7 247.155 382.555 247.659L381.554 247.365C381.727 246.688 382.074 246.163 382.597 245.79C383.12 245.416 383.799 245.23 384.634 245.23C385.325 245.23 385.91 245.36 386.391 245.622C386.876 245.878 387.219 246.252 387.42 246.742C387.513 246.961 387.574 247.206 387.602 247.477C387.63 247.747 387.644 248.023 387.644 248.303V253H386.727V251.103L386.993 251.215C386.736 251.863 386.337 252.358 385.796 252.699C385.255 253.039 384.606 253.21 383.85 253.21ZM383.969 252.321C384.45 252.321 384.87 252.234 385.229 252.062C385.588 251.889 385.878 251.653 386.097 251.355C386.316 251.051 386.459 250.711 386.524 250.333C386.58 250.09 386.61 249.824 386.615 249.535C386.62 249.241 386.622 249.021 386.622 248.877L387.014 249.08C386.664 249.126 386.284 249.173 385.873 249.22C385.467 249.266 385.066 249.32 384.669 249.381C384.277 249.441 383.922 249.514 383.605 249.598C383.39 249.658 383.183 249.745 382.982 249.857C382.781 249.964 382.616 250.109 382.485 250.291C382.359 250.473 382.296 250.699 382.296 250.97C382.296 251.189 382.35 251.401 382.457 251.607C382.569 251.812 382.746 251.982 382.989 252.118C383.236 252.253 383.563 252.321 383.969 252.321ZM389.459 253L389.466 242.92H390.502V249.08L393.876 245.44H395.248L391.706 249.22L395.71 253H394.212L390.502 249.36V253H389.459ZM396.552 244.005V242.85H397.581V244.005H396.552ZM396.552 253V245.44H397.581V253H396.552ZM405.139 253V249.143C405.139 248.723 405.1 248.338 405.02 247.988C404.941 247.633 404.813 247.325 404.635 247.064C404.463 246.798 404.236 246.592 403.956 246.448C403.681 246.303 403.345 246.231 402.948 246.231C402.584 246.231 402.262 246.294 401.982 246.42C401.707 246.546 401.474 246.728 401.282 246.966C401.096 247.199 400.953 247.484 400.855 247.82C400.757 248.156 400.708 248.538 400.708 248.968L399.98 248.807C399.98 248.032 400.116 247.381 400.386 246.854C400.657 246.326 401.03 245.927 401.506 245.657C401.982 245.386 402.528 245.251 403.144 245.251C403.597 245.251 403.991 245.321 404.327 245.461C404.668 245.601 404.955 245.79 405.188 246.028C405.426 246.266 405.618 246.539 405.762 246.847C405.907 247.15 406.012 247.474 406.077 247.82C406.143 248.16 406.175 248.501 406.175 248.842V253H405.139ZM399.672 253V245.44H400.603V247.302H400.708V253H399.672ZM410.995 256.57C410.607 256.57 410.225 256.511 409.847 256.395C409.473 256.283 409.128 256.103 408.811 255.856C408.493 255.613 408.227 255.296 408.013 254.904L408.944 254.386C409.154 254.806 409.448 255.107 409.826 255.289C410.208 255.475 410.598 255.569 410.995 255.569C411.541 255.569 411.982 255.466 412.318 255.261C412.658 255.06 412.906 254.761 413.06 254.365C413.214 253.968 413.288 253.473 413.284 252.881V250.865H413.403V245.44H414.32V252.895C414.32 253.109 414.313 253.315 414.299 253.511C414.289 253.711 414.268 253.907 414.236 254.099C414.147 254.663 413.963 255.128 413.683 255.492C413.407 255.856 413.043 256.126 412.591 256.304C412.143 256.481 411.611 256.57 410.995 256.57ZM410.925 253.21C410.22 253.21 409.618 253.035 409.119 252.685C408.619 252.33 408.237 251.852 407.971 251.25C407.705 250.648 407.572 249.969 407.572 249.213C407.572 248.461 407.702 247.785 407.964 247.183C408.23 246.581 408.61 246.105 409.105 245.755C409.599 245.405 410.192 245.23 410.883 245.23C411.592 245.23 412.189 245.402 412.675 245.748C413.16 246.093 413.526 246.567 413.774 247.169C414.026 247.766 414.152 248.447 414.152 249.213C414.152 249.964 414.028 250.643 413.781 251.25C413.533 251.852 413.169 252.33 412.689 252.685C412.208 253.035 411.62 253.21 410.925 253.21ZM411.03 252.251C411.566 252.251 412.01 252.12 412.36 251.859C412.71 251.597 412.971 251.238 413.144 250.781C413.316 250.319 413.403 249.796 413.403 249.213C413.403 248.62 413.316 248.097 413.144 247.645C412.971 247.187 412.71 246.83 412.36 246.574C412.014 246.317 411.578 246.189 411.051 246.189C410.509 246.189 410.061 246.322 409.707 246.588C409.352 246.854 409.088 247.215 408.916 247.673C408.748 248.13 408.664 248.643 408.664 249.213C408.664 249.787 408.75 250.305 408.923 250.767C409.1 251.224 409.364 251.586 409.714 251.852C410.064 252.118 410.502 252.251 411.03 252.251Z" fill="white"/>
<path d="M80.4956 204.822H77.6876V202.118C77.7396 202.066 77.7916 202.04 77.8436 201.988L82.0296 198.322H74.7756V194.63H87.3076V197.984L83.2516 201.546C85.8516 202.326 87.9576 204.406 87.9576 207.682C87.9576 211.738 84.6816 214.208 80.7816 214.208C77.0376 214.208 73.8916 211.92 73.8916 207.578H78.0516C78.0516 209.476 79.1956 210.49 80.8856 210.49C82.5236 210.49 83.6416 209.372 83.6416 207.656C83.6416 206.122 82.7576 204.822 80.4956 204.822ZM96.1328 214.182C91.9988 214.182 89.2428 211.53 89.2428 207.552H93.4028C93.4028 209.372 94.4688 210.464 96.2368 210.464C98.1348 210.464 99.3048 209.242 99.3048 207.214C99.3048 205.238 98.2128 204.068 96.3148 204.068C95.0148 204.068 93.8448 204.744 93.3768 205.68L89.5288 204.952L91.9468 194.63H102.399V198.53H94.9628L94.2088 201.338C95.0408 200.844 96.1068 200.584 97.2768 200.584C101.021 200.584 103.621 203.054 103.621 206.954C103.621 211.27 100.579 214.182 96.1328 214.182ZM115.355 199.492C115.355 202.56 113.197 204.718 110.155 204.718C107.113 204.718 104.955 202.56 104.955 199.492C104.955 196.424 107.113 194.266 110.155 194.266C113.197 194.266 115.355 196.424 115.355 199.492ZM126.379 194.682L111.767 213.87H107.841L122.453 194.682H126.379ZM112.235 199.492C112.235 198.192 111.403 197.282 110.155 197.282C108.907 197.282 108.075 198.192 108.075 199.492C108.075 200.792 108.907 201.702 110.155 201.702C111.403 201.702 112.235 200.792 112.235 199.492ZM129.317 208.982C129.317 212.05 127.159 214.208 124.117 214.208C121.075 214.208 118.917 212.05 118.917 208.982C118.917 205.914 121.075 203.756 124.117 203.756C127.159 203.756 129.317 205.914 129.317 208.982ZM126.197 208.982C126.197 207.682 125.365 206.772 124.117 206.772C122.869 206.772 122.037 207.682 122.037 208.982C122.037 210.282 122.869 211.192 124.117 211.192C125.365 211.192 126.197 210.282 126.197 208.982Z" fill="#3F8DE5"/>
<path d="M65.9155 238.87V228.79H66.8605L70.8225 237.267L74.7635 228.79H75.7225V238.863H74.7425V231.086L71.1515 238.87H70.4865L66.9025 231.086V238.87H65.9155ZM79.85 239.08C79.2807 239.08 78.8024 238.977 78.415 238.772C78.0324 238.567 77.7454 238.294 77.554 237.953C77.3627 237.612 77.267 237.241 77.267 236.84C77.267 236.429 77.3487 236.079 77.512 235.79C77.68 235.496 77.9064 235.256 78.191 235.069C78.4804 234.882 78.814 234.74 79.192 234.642C79.5747 234.549 79.997 234.467 80.459 234.397C80.9257 234.322 81.3807 234.259 81.824 234.208C82.272 234.152 82.664 234.098 83 234.047L82.636 234.271C82.65 233.524 82.5054 232.971 82.202 232.612C81.8987 232.253 81.3714 232.073 80.62 232.073C80.102 232.073 79.6634 232.19 79.304 232.423C78.9494 232.656 78.6997 233.025 78.555 233.529L77.554 233.235C77.7267 232.558 78.0744 232.033 78.597 231.66C79.1197 231.287 79.7987 231.1 80.634 231.1C81.3247 231.1 81.9104 231.231 82.391 231.492C82.8764 231.749 83.2194 232.122 83.42 232.612C83.5134 232.831 83.574 233.076 83.602 233.347C83.63 233.618 83.644 233.893 83.644 234.173V238.87H82.727V236.973L82.993 237.085C82.7364 237.734 82.3374 238.228 81.796 238.569C81.2547 238.91 80.606 239.08 79.85 239.08ZM79.969 238.191C80.4497 238.191 80.8697 238.105 81.229 237.932C81.5884 237.759 81.8777 237.524 82.097 237.225C82.3164 236.922 82.4587 236.581 82.524 236.203C82.58 235.96 82.6104 235.694 82.615 235.405C82.6197 235.111 82.622 234.892 82.622 234.747L83.014 234.95C82.664 234.997 82.2837 235.043 81.873 235.09C81.467 235.137 81.0657 235.19 80.669 235.251C80.277 235.312 79.9224 235.384 79.605 235.468C79.3904 235.529 79.1827 235.615 78.982 235.727C78.7814 235.834 78.6157 235.979 78.485 236.161C78.359 236.343 78.296 236.569 78.296 236.84C78.296 237.059 78.3497 237.272 78.457 237.477C78.569 237.682 78.7464 237.853 78.989 237.988C79.2364 238.123 79.563 238.191 79.969 238.191ZM85.4663 238.87V231.31H86.3903V233.13L86.2083 232.892C86.2923 232.668 86.402 232.463 86.5373 232.276C86.6727 232.085 86.8197 231.928 86.9783 231.807C87.1743 231.634 87.403 231.504 87.6643 231.415C87.9257 231.322 88.1893 231.268 88.4553 231.254C88.7213 231.235 88.964 231.254 89.1833 231.31V232.276C88.908 232.206 88.607 232.19 88.2803 232.227C87.9537 232.264 87.6527 232.395 87.3773 232.619C87.1253 232.815 86.9363 233.051 86.8103 233.326C86.6843 233.597 86.6003 233.886 86.5583 234.194C86.5163 234.497 86.4953 234.798 86.4953 235.097V238.87H85.4663ZM90.5043 238.87L90.5113 228.79H91.5473V234.95L94.9213 231.31H96.2933L92.7513 235.09L96.7553 238.87H95.2573L91.5473 235.23V238.87H90.5043ZM100.519 239.08C99.7815 239.08 99.1422 238.917 98.6008 238.59C98.0642 238.263 97.6465 237.804 97.3478 237.211C97.0492 236.618 96.8998 235.923 96.8998 235.125C96.8998 234.299 97.0468 233.585 97.3408 232.983C97.6348 232.381 98.0478 231.917 98.5798 231.59C99.1165 231.263 99.7488 231.1 100.477 231.1C101.224 231.1 101.861 231.273 102.388 231.618C102.915 231.959 103.314 232.449 103.585 233.088C103.856 233.727 103.979 234.49 103.956 235.377H102.906V235.013C102.887 234.033 102.675 233.293 102.269 232.794C101.868 232.295 101.28 232.045 100.505 232.045C99.6928 232.045 99.0698 232.309 98.6358 232.836C98.2065 233.363 97.9918 234.115 97.9918 235.09C97.9918 236.042 98.2065 236.782 98.6358 237.309C99.0698 237.832 99.6835 238.093 100.477 238.093C101.018 238.093 101.49 237.969 101.891 237.722C102.297 237.47 102.617 237.108 102.85 236.637L103.809 237.008C103.51 237.666 103.069 238.177 102.486 238.541C101.907 238.9 101.252 239.08 100.519 239.08ZM97.6278 235.377V234.516H103.403V235.377H97.6278ZM109.625 238.87C109.201 238.959 108.781 238.994 108.365 238.975C107.955 238.956 107.586 238.868 107.259 238.709C106.937 238.55 106.692 238.303 106.524 237.967C106.389 237.687 106.314 237.405 106.3 237.12C106.291 236.831 106.286 236.502 106.286 236.133V229.21H107.308V236.091C107.308 236.408 107.311 236.674 107.315 236.889C107.325 237.099 107.374 237.286 107.462 237.449C107.63 237.762 107.896 237.948 108.26 238.009C108.629 238.07 109.084 238.056 109.625 237.967V238.87ZM104.669 232.192V231.31H109.625V232.192H104.669ZM111.255 229.875V228.72H112.284V229.875H111.255ZM111.255 238.87V231.31H112.284V238.87H111.255ZM119.842 238.87V235.013C119.842 234.593 119.803 234.208 119.723 233.858C119.644 233.503 119.516 233.195 119.338 232.934C119.166 232.668 118.939 232.463 118.659 232.318C118.384 232.173 118.048 232.101 117.651 232.101C117.287 232.101 116.965 232.164 116.685 232.29C116.41 232.416 116.177 232.598 115.985 232.836C115.799 233.069 115.656 233.354 115.558 233.69C115.46 234.026 115.411 234.409 115.411 234.838L114.683 234.677C114.683 233.902 114.819 233.251 115.089 232.724C115.36 232.197 115.733 231.798 116.209 231.527C116.685 231.256 117.231 231.121 117.847 231.121C118.3 231.121 118.694 231.191 119.03 231.331C119.371 231.471 119.658 231.66 119.891 231.898C120.129 232.136 120.321 232.409 120.465 232.717C120.61 233.02 120.715 233.345 120.78 233.69C120.846 234.031 120.878 234.371 120.878 234.712V238.87H119.842ZM114.375 238.87V231.31H115.306V233.172H115.411V238.87H114.375ZM125.698 242.44C125.311 242.44 124.928 242.382 124.55 242.265C124.177 242.153 123.831 241.973 123.514 241.726C123.197 241.483 122.931 241.166 122.716 240.774L123.647 240.256C123.857 240.676 124.151 240.977 124.529 241.159C124.912 241.346 125.301 241.439 125.698 241.439C126.244 241.439 126.685 241.336 127.021 241.131C127.362 240.93 127.609 240.632 127.763 240.235C127.917 239.838 127.992 239.344 127.987 238.751V236.735H128.106V231.31H129.023V238.765C129.023 238.98 129.016 239.185 129.002 239.381C128.993 239.582 128.972 239.778 128.939 239.969C128.85 240.534 128.666 240.998 128.386 241.362C128.111 241.726 127.747 241.997 127.294 242.174C126.846 242.351 126.314 242.44 125.698 242.44ZM125.628 239.08C124.923 239.08 124.321 238.905 123.822 238.555C123.323 238.2 122.94 237.722 122.674 237.12C122.408 236.518 122.275 235.839 122.275 235.083C122.275 234.332 122.406 233.655 122.667 233.053C122.933 232.451 123.313 231.975 123.808 231.625C124.303 231.275 124.895 231.1 125.586 231.1C126.295 231.1 126.893 231.273 127.378 231.618C127.863 231.963 128.23 232.437 128.477 233.039C128.729 233.636 128.855 234.318 128.855 235.083C128.855 235.834 128.731 236.513 128.484 237.12C128.237 237.722 127.873 238.2 127.392 238.555C126.911 238.905 126.323 239.08 125.628 239.08ZM125.733 238.121C126.27 238.121 126.713 237.99 127.063 237.729C127.413 237.468 127.674 237.108 127.847 236.651C128.02 236.189 128.106 235.666 128.106 235.083C128.106 234.49 128.02 233.968 127.847 233.515C127.674 233.058 127.413 232.701 127.063 232.444C126.718 232.187 126.281 232.059 125.754 232.059C125.213 232.059 124.765 232.192 124.41 232.458C124.055 232.724 123.792 233.086 123.619 233.543C123.451 234 123.367 234.514 123.367 235.083C123.367 235.657 123.453 236.175 123.626 236.637C123.803 237.094 124.067 237.456 124.417 237.722C124.767 237.988 125.206 238.121 125.733 238.121Z" fill="white"/>
<path d="M3.88091 28V18.704H0.268906V17.92H8.29791V18.704H4.68591V28H3.88091ZM14.8909 28.21C13.8875 28.21 13.0452 27.9883 12.3639 27.545C11.6825 27.097 11.1692 26.4787 10.8239 25.69C10.4785 24.9013 10.3059 23.9913 10.3059 22.96C10.3059 21.9287 10.4785 21.0187 10.8239 20.23C11.1692 19.4413 11.6825 18.8253 12.3639 18.382C13.0452 17.934 13.8875 17.71 14.8909 17.71C15.8942 17.71 16.7342 17.934 17.4109 18.382C18.0922 18.8253 18.6055 19.4413 18.9509 20.23C19.2962 21.0187 19.4689 21.9287 19.4689 22.96C19.4689 23.9913 19.2962 24.9013 18.9509 25.69C18.6055 26.4787 18.0922 27.097 17.4109 27.545C16.7342 27.9883 15.8942 28.21 14.8909 28.21ZM14.8909 27.419C15.7169 27.4237 16.4052 27.237 16.9559 26.859C17.5065 26.4763 17.9195 25.949 18.1949 25.277C18.4702 24.605 18.6079 23.8327 18.6079 22.96C18.6079 22.0873 18.4702 21.315 18.1949 20.643C17.9195 19.971 17.5065 19.446 16.9559 19.068C16.4052 18.69 15.7169 18.501 14.8909 18.501C14.0649 18.4963 13.3765 18.683 12.8259 19.061C12.2799 19.439 11.8692 19.9663 11.5939 20.643C11.3185 21.315 11.1762 22.0873 11.1669 22.96C11.1575 23.8327 11.2905 24.605 11.5659 25.277C11.8459 25.9443 12.2635 26.4693 12.8189 26.852C13.3742 27.23 14.0649 27.419 14.8909 27.419ZM24.8167 28V18.704H21.2047V17.92H29.2337V18.704H25.6217V28H24.8167ZM30.8282 28L34.3982 17.92H35.3992L38.9692 28H38.1152L34.6852 18.34H35.0912L31.6822 28H30.8282ZM32.3052 25.466V24.703H37.4852V25.466H32.3052ZM41.8079 28V17.92H42.6129V27.216H47.5129V28H41.8079ZM57.1263 28.21C56.4356 28.21 55.8126 28.0957 55.2573 27.867C54.7066 27.6383 54.2493 27.314 53.8853 26.894C53.526 26.474 53.2856 25.9747 53.1643 25.396L53.9903 25.256C54.163 25.928 54.5316 26.4577 55.0963 26.845C55.6656 27.2323 56.3493 27.426 57.1473 27.426C57.6886 27.426 58.167 27.3397 58.5823 27.167C58.9976 26.9943 59.322 26.7517 59.5553 26.439C59.7886 26.1217 59.9053 25.753 59.9053 25.333C59.9053 25.0297 59.8493 24.7753 59.7373 24.57C59.63 24.3647 59.49 24.1967 59.3173 24.066C59.1446 23.9307 58.9603 23.8233 58.7643 23.744C58.5683 23.66 58.384 23.5923 58.2113 23.541L55.6773 22.785C55.3413 22.687 55.0403 22.5657 54.7743 22.421C54.513 22.2717 54.2913 22.1013 54.1093 21.91C53.932 21.714 53.7943 21.4923 53.6963 21.245C53.603 20.9977 53.5563 20.7223 53.5563 20.419C53.5563 19.8777 53.701 19.404 53.9903 18.998C54.2796 18.592 54.6763 18.277 55.1803 18.053C55.689 17.8243 56.2723 17.71 56.9303 17.71C57.593 17.7147 58.188 17.8383 58.7153 18.081C59.2426 18.319 59.6743 18.6573 60.0103 19.096C60.351 19.5347 60.5703 20.055 60.6683 20.657L59.8353 20.804C59.77 20.342 59.602 19.9383 59.3313 19.593C59.0653 19.2477 58.7246 18.9793 58.3093 18.788C57.894 18.5967 57.432 18.501 56.9233 18.501C56.4333 18.4963 55.9993 18.578 55.6213 18.746C55.248 18.914 54.954 19.1403 54.7393 19.425C54.5246 19.7097 54.4173 20.0317 54.4173 20.391C54.4173 20.7643 54.5176 21.063 54.7183 21.287C54.9236 21.5063 55.1733 21.679 55.4673 21.805C55.766 21.931 56.0506 22.0337 56.3213 22.113L58.3513 22.715C58.5426 22.771 58.7713 22.8503 59.0373 22.953C59.3033 23.0557 59.5646 23.2027 59.8213 23.394C60.078 23.5807 60.2903 23.8303 60.4583 24.143C60.631 24.451 60.7173 24.8383 60.7173 25.305C60.7173 25.7577 60.631 26.1637 60.4583 26.523C60.2856 26.8823 60.0383 27.188 59.7163 27.44C59.3943 27.6873 59.014 27.8763 58.5753 28.007C58.1366 28.1423 57.6536 28.21 57.1263 28.21ZM67.4753 28.21C66.7193 28.21 66.0473 28.0537 65.4593 27.741C64.876 27.4237 64.4163 26.9803 64.0803 26.411C63.749 25.837 63.5833 25.165 63.5833 24.395V17.92H64.3953V24.227C64.3953 24.801 64.491 25.2933 64.6823 25.704C64.8783 26.11 65.1303 26.4413 65.4383 26.698C65.751 26.9547 66.0846 27.1437 66.4393 27.265C66.7986 27.3863 67.144 27.447 67.4753 27.447C67.8066 27.447 68.152 27.3863 68.5113 27.265C68.8706 27.1437 69.2043 26.9547 69.5123 26.698C69.8203 26.4413 70.07 26.11 70.2613 25.704C70.4573 25.2933 70.5553 24.801 70.5553 24.227V17.92H71.3673V24.395C71.3673 25.1603 71.1993 25.83 70.8633 26.404C70.532 26.9733 70.0723 27.4167 69.4843 27.734C68.901 28.0513 68.2313 28.21 67.4753 28.21ZM74.7758 28V17.92H78.5768C78.6748 17.92 78.7798 17.9247 78.8918 17.934C79.0085 17.9387 79.1298 17.9527 79.2558 17.976C79.7598 18.0553 80.1915 18.2373 80.5508 18.522C80.9148 18.802 81.1925 19.1567 81.3838 19.586C81.5751 20.0107 81.6708 20.4797 81.6708 20.993C81.6708 21.511 81.5751 21.9847 81.3838 22.414C81.1925 22.8387 80.9148 23.1933 80.5508 23.478C80.1915 23.758 79.7598 23.9377 79.2558 24.017C79.1298 24.0357 79.0085 24.0497 78.8918 24.059C78.7798 24.0683 78.6748 24.073 78.5768 24.073H75.5808V28H74.7758ZM75.5808 23.282H78.5628C78.6468 23.282 78.7425 23.2773 78.8498 23.268C78.9618 23.2587 79.0738 23.2447 79.1858 23.226C79.5498 23.1513 79.8531 23.0043 80.0958 22.785C80.3385 22.561 80.5205 22.2927 80.6418 21.98C80.7631 21.6673 80.8238 21.3383 80.8238 20.993C80.8238 20.6477 80.7631 20.321 80.6418 20.013C80.5205 19.7003 80.3385 19.4343 80.0958 19.215C79.8531 18.991 79.5498 18.8417 79.1858 18.767C79.0738 18.7437 78.9618 18.7273 78.8498 18.718C78.7425 18.7087 78.6468 18.704 78.5628 18.704H75.5808V23.282ZM84.5191 28V17.92H88.3201C88.4181 17.92 88.5231 17.9247 88.6351 17.934C88.7517 17.9387 88.8731 17.9527 88.9991 17.976C89.5031 18.0553 89.9347 18.2373 90.2941 18.522C90.6581 18.802 90.9357 19.1567 91.1271 19.586C91.3184 20.0107 91.4141 20.4797 91.4141 20.993C91.4141 21.511 91.3184 21.9847 91.1271 22.414C90.9357 22.8387 90.6581 23.1933 90.2941 23.478C89.9347 23.758 89.5031 23.9377 88.9991 24.017C88.8731 24.0357 88.7517 24.0497 88.6351 24.059C88.5231 24.0683 88.4181 24.073 88.3201 24.073H85.3241V28H84.5191ZM85.3241 23.282H88.3061C88.3901 23.282 88.4857 23.2773 88.5931 23.268C88.7051 23.2587 88.8171 23.2447 88.9291 23.226C89.2931 23.1513 89.5964 23.0043 89.8391 22.785C90.0817 22.561 90.2637 22.2927 90.3851 21.98C90.5064 21.6673 90.5671 21.3383 90.5671 20.993C90.5671 20.6477 90.5064 20.321 90.3851 20.013C90.2637 19.7003 90.0817 19.4343 89.8391 19.215C89.5964 18.991 89.2931 18.8417 88.9291 18.767C88.8171 18.7437 88.7051 18.7273 88.5931 18.718C88.4857 18.7087 88.3901 18.704 88.3061 18.704H85.3241V23.282ZM94.4023 28V17.92H95.2073V27.216H100.107V28H94.4023ZM103.733 28V23.744L100.373 17.92H101.304L104.139 22.82L106.967 17.92H107.898L104.545 23.744V28H103.733Z" fill="white"/>
<path d="M4.80891 61V47.272L1.56891 49.264V45.664L4.80891 43.72H8.14491V61H4.80891ZM19.2878 61.36C18.4158 61.36 17.5958 61.18 16.8278 60.82C16.0678 60.46 15.4118 59.96 14.8598 59.32C14.3078 58.68 13.9118 57.936 13.6718 57.088L16.8158 56.248C16.9198 56.656 17.1038 57.008 17.3678 57.304C17.6398 57.6 17.9518 57.832 18.3038 58C18.6638 58.16 19.0318 58.24 19.4078 58.24C19.9038 58.24 20.3558 58.12 20.7638 57.88C21.1798 57.64 21.5078 57.316 21.7478 56.908C21.9958 56.5 22.1198 56.048 22.1198 55.552C22.1198 55.056 21.9958 54.604 21.7478 54.196C21.5078 53.788 21.1798 53.464 20.7638 53.224C20.3558 52.984 19.9038 52.864 19.4078 52.864C18.7998 52.864 18.3038 52.968 17.9198 53.176C17.5358 53.376 17.2478 53.568 17.0558 53.752L14.2958 52.912L14.8238 43.72H24.2558V46.768H16.6238L17.7758 45.688L17.4158 51.616L16.8638 50.944C17.2958 50.592 17.7878 50.336 18.3398 50.176C18.8918 50.016 19.4078 49.936 19.8878 49.936C20.9758 49.936 21.9318 50.18 22.7558 50.668C23.5878 51.148 24.2358 51.812 24.6998 52.66C25.1718 53.5 25.4078 54.464 25.4078 55.552C25.4078 56.64 25.1238 57.624 24.5558 58.504C23.9878 59.376 23.2398 60.072 22.3118 60.592C21.3838 61.104 20.3758 61.36 19.2878 61.36ZM29.489 64.24L29.681 62.872C30.065 62.904 30.377 62.84 30.617 62.68C30.857 62.528 31.021 62.304 31.109 62.008C31.205 61.72 31.225 61.384 31.169 61H29.489V57.736H32.753V61C32.753 62.152 32.485 63.024 31.949 63.616C31.413 64.208 30.593 64.416 29.489 64.24ZM45.1752 61.36C43.8952 61.36 42.7752 61.092 41.8152 60.556C40.8552 60.02 40.1072 59.272 39.5712 58.312C39.0352 57.352 38.7672 56.232 38.7672 54.952V49.768C38.7672 48.488 39.0352 47.368 39.5712 46.408C40.1072 45.448 40.8552 44.7 41.8152 44.164C42.7752 43.628 43.8952 43.36 45.1752 43.36C46.4552 43.36 47.5752 43.628 48.5352 44.164C49.4952 44.7 50.2432 45.448 50.7792 46.408C51.3152 47.368 51.5832 48.488 51.5832 49.768V54.952C51.5832 56.232 51.3152 57.352 50.7792 58.312C50.2432 59.272 49.4952 60.02 48.5352 60.556C47.5752 61.092 46.4552 61.36 45.1752 61.36ZM45.1752 58.264C45.7512 58.264 46.2712 58.128 46.7352 57.856C47.1992 57.584 47.5672 57.216 47.8392 56.752C48.1112 56.288 48.2472 55.768 48.2472 55.192V49.504C48.2472 48.928 48.1112 48.408 47.8392 47.944C47.5672 47.48 47.1992 47.112 46.7352 46.84C46.2712 46.568 45.7512 46.432 45.1752 46.432C44.5992 46.432 44.0792 46.568 43.6152 46.84C43.1512 47.112 42.7832 47.48 42.5112 47.944C42.2392 48.408 42.1032 48.928 42.1032 49.504V55.192C42.1032 55.768 42.2392 56.288 42.5112 56.752C42.7832 57.216 43.1512 57.584 43.6152 57.856C44.0792 58.128 44.5992 58.264 45.1752 58.264ZM62.7916 61.36C61.5116 61.36 60.3916 61.092 59.4316 60.556C58.4716 60.02 57.7236 59.272 57.1876 58.312C56.6516 57.352 56.3836 56.232 56.3836 54.952V49.768C56.3836 48.488 56.6516 47.368 57.1876 46.408C57.7236 45.448 58.4716 44.7 59.4316 44.164C60.3916 43.628 61.5116 43.36 62.7916 43.36C64.0716 43.36 65.1916 43.628 66.1516 44.164C67.1116 44.7 67.8596 45.448 68.3956 46.408C68.9316 47.368 69.1996 48.488 69.1996 49.768V54.952C69.1996 56.232 68.9316 57.352 68.3956 58.312C67.8596 59.272 67.1116 60.02 66.1516 60.556C65.1916 61.092 64.0716 61.36 62.7916 61.36ZM62.7916 58.264C63.3676 58.264 63.8876 58.128 64.3516 57.856C64.8156 57.584 65.1836 57.216 65.4556 56.752C65.7276 56.288 65.8636 55.768 65.8636 55.192V49.504C65.8636 48.928 65.7276 48.408 65.4556 47.944C65.1836 47.48 64.8156 47.112 64.3516 46.84C63.8876 46.568 63.3676 46.432 62.7916 46.432C62.2156 46.432 61.6956 46.568 61.2316 46.84C60.7676 47.112 60.3996 47.48 60.1276 47.944C59.8556 48.408 59.7196 48.928 59.7196 49.504V55.192C59.7196 55.768 59.8556 56.288 60.1276 56.752C60.3996 57.216 60.7676 57.584 61.2316 57.856C61.6956 58.128 62.2156 58.264 62.7916 58.264ZM80.4079 61.36C79.1279 61.36 78.0079 61.092 77.0479 60.556C76.0879 60.02 75.3399 59.272 74.8039 58.312C74.2679 57.352 73.9999 56.232 73.9999 54.952V49.768C73.9999 48.488 74.2679 47.368 74.8039 46.408C75.3399 45.448 76.0879 44.7 77.0479 44.164C78.0079 43.628 79.1279 43.36 80.4079 43.36C81.6879 43.36 82.8079 43.628 83.7679 44.164C84.7279 44.7 85.4759 45.448 86.0119 46.408C86.5479 47.368 86.8159 48.488 86.8159 49.768V54.952C86.8159 56.232 86.5479 57.352 86.0119 58.312C85.4759 59.272 84.7279 60.02 83.7679 60.556C82.8079 61.092 81.6879 61.36 80.4079 61.36ZM80.4079 58.264C80.9839 58.264 81.5039 58.128 81.9679 57.856C82.4319 57.584 82.7999 57.216 83.0719 56.752C83.3439 56.288 83.4799 55.768 83.4799 55.192V49.504C83.4799 48.928 83.3439 48.408 83.0719 47.944C82.7999 47.48 82.4319 47.112 81.9679 46.84C81.5039 46.568 80.9839 46.432 80.4079 46.432C79.8319 46.432 79.3119 46.568 78.8479 46.84C78.3839 47.112 78.0159 47.48 77.7439 47.944C77.4719 48.408 77.3359 48.928 77.3359 49.504V55.192C77.3359 55.768 77.4719 56.288 77.7439 56.752C78.0159 57.216 78.3839 57.584 78.8479 57.856C79.3119 58.128 79.8319 58.264 80.4079 58.264ZM91.3762 64.24L91.5682 62.872C91.9522 62.904 92.2642 62.84 92.5042 62.68C92.7442 62.528 92.9082 62.304 92.9962 62.008C93.0922 61.72 93.1122 61.384 93.0562 61H91.3762V57.736H94.6402V61C94.6402 62.152 94.3722 63.024 93.8362 63.616C93.3002 64.208 92.4802 64.416 91.3762 64.24ZM107.062 61.36C105.782 61.36 104.662 61.092 103.702 60.556C102.742 60.02 101.994 59.272 101.458 58.312C100.922 57.352 100.654 56.232 100.654 54.952V49.768C100.654 48.488 100.922 47.368 101.458 46.408C101.994 45.448 102.742 44.7 103.702 44.164C104.662 43.628 105.782 43.36 107.062 43.36C108.342 43.36 109.462 43.628 110.422 44.164C111.382 44.7 112.13 45.448 112.666 46.408C113.202 47.368 113.47 48.488 113.47 49.768V54.952C113.47 56.232 113.202 57.352 112.666 58.312C112.13 59.272 111.382 60.02 110.422 60.556C109.462 61.092 108.342 61.36 107.062 61.36ZM107.062 58.264C107.638 58.264 108.158 58.128 108.622 57.856C109.086 57.584 109.454 57.216 109.726 56.752C109.998 56.288 110.134 55.768 110.134 55.192V49.504C110.134 48.928 109.998 48.408 109.726 47.944C109.454 47.48 109.086 47.112 108.622 46.84C108.158 46.568 107.638 46.432 107.062 46.432C106.486 46.432 105.966 46.568 105.502 46.84C105.038 47.112 104.67 47.48 104.398 47.944C104.126 48.408 103.99 48.928 103.99 49.504V55.192C103.99 55.768 104.126 56.288 104.398 56.752C104.67 57.216 105.038 57.584 105.502 57.856C105.966 58.128 106.486 58.264 107.062 58.264ZM124.679 61.36C123.399 61.36 122.279 61.092 121.319 60.556C120.359 60.02 119.611 59.272 119.075 58.312C118.539 57.352 118.271 56.232 118.271 54.952V49.768C118.271 48.488 118.539 47.368 119.075 46.408C119.611 45.448 120.359 44.7 121.319 44.164C122.279 43.628 123.399 43.36 124.679 43.36C125.959 43.36 127.079 43.628 128.039 44.164C128.999 44.7 129.747 45.448 130.283 46.408C130.819 47.368 131.087 48.488 131.087 49.768V54.952C131.087 56.232 130.819 57.352 130.283 58.312C129.747 59.272 128.999 60.02 128.039 60.556C127.079 61.092 125.959 61.36 124.679 61.36ZM124.679 58.264C125.255 58.264 125.775 58.128 126.239 57.856C126.703 57.584 127.071 57.216 127.343 56.752C127.615 56.288 127.751 55.768 127.751 55.192V49.504C127.751 48.928 127.615 48.408 127.343 47.944C127.071 47.48 126.703 47.112 126.239 46.84C125.775 46.568 125.255 46.432 124.679 46.432C124.103 46.432 123.583 46.568 123.119 46.84C122.655 47.112 122.287 47.48 122.015 47.944C121.743 48.408 121.607 48.928 121.607 49.504V55.192C121.607 55.768 121.743 56.288 122.015 56.752C122.287 57.216 122.655 57.584 123.119 57.856C123.583 58.128 124.103 58.264 124.679 58.264ZM142.295 61.36C141.015 61.36 139.895 61.092 138.935 60.556C137.975 60.02 137.227 59.272 136.691 58.312C136.155 57.352 135.887 56.232 135.887 54.952V49.768C135.887 48.488 136.155 47.368 136.691 46.408C137.227 45.448 137.975 44.7 138.935 44.164C139.895 43.628 141.015 43.36 142.295 43.36C143.575 43.36 144.695 43.628 145.655 44.164C146.615 44.7 147.363 45.448 147.899 46.408C148.435 47.368 148.703 48.488 148.703 49.768V54.952C148.703 56.232 148.435 57.352 147.899 58.312C147.363 59.272 146.615 60.02 145.655 60.556C144.695 61.092 143.575 61.36 142.295 61.36ZM142.295 58.264C142.871 58.264 143.391 58.128 143.855 57.856C144.319 57.584 144.687 57.216 144.959 56.752C145.231 56.288 145.367 55.768 145.367 55.192V49.504C145.367 48.928 145.231 48.408 144.959 47.944C144.687 47.48 144.319 47.112 143.855 46.84C143.391 46.568 142.871 46.432 142.295 46.432C141.719 46.432 141.199 46.568 140.735 46.84C140.271 47.112 139.903 47.48 139.631 47.944C139.359 48.408 139.223 48.928 139.223 49.504V55.192C139.223 55.768 139.359 56.288 139.631 56.752C139.903 57.216 140.271 57.584 140.735 57.856C141.199 58.128 141.719 58.264 142.295 58.264ZM153.263 64.24L153.455 62.872C153.839 62.904 154.151 62.84 154.391 62.68C154.631 62.528 154.795 62.304 154.883 62.008C154.979 61.72 154.999 61.384 154.943 61H153.263V57.736H156.527V61C156.527 62.152 156.259 63.024 155.723 63.616C155.187 64.208 154.367 64.416 153.263 64.24ZM168.95 61.36C167.67 61.36 166.55 61.092 165.59 60.556C164.63 60.02 163.882 59.272 163.346 58.312C162.81 57.352 162.542 56.232 162.542 54.952V49.768C162.542 48.488 162.81 47.368 163.346 46.408C163.882 45.448 164.63 44.7 165.59 44.164C166.55 43.628 167.67 43.36 168.95 43.36C170.23 43.36 171.35 43.628 172.31 44.164C173.27 44.7 174.018 45.448 174.554 46.408C175.09 47.368 175.358 48.488 175.358 49.768V54.952C175.358 56.232 175.09 57.352 174.554 58.312C174.018 59.272 173.27 60.02 172.31 60.556C171.35 61.092 170.23 61.36 168.95 61.36ZM168.95 58.264C169.526 58.264 170.046 58.128 170.51 57.856C170.974 57.584 171.342 57.216 171.614 56.752C171.886 56.288 172.022 55.768 172.022 55.192V49.504C172.022 48.928 171.886 48.408 171.614 47.944C171.342 47.48 170.974 47.112 170.51 46.84C170.046 46.568 169.526 46.432 168.95 46.432C168.374 46.432 167.854 46.568 167.39 46.84C166.926 47.112 166.558 47.48 166.286 47.944C166.014 48.408 165.878 48.928 165.878 49.504V55.192C165.878 55.768 166.014 56.288 166.286 56.752C166.558 57.216 166.926 57.584 167.39 57.856C167.854 58.128 168.374 58.264 168.95 58.264ZM186.566 61.36C185.286 61.36 184.166 61.092 183.206 60.556C182.246 60.02 181.498 59.272 180.962 58.312C180.426 57.352 180.158 56.232 180.158 54.952V49.768C180.158 48.488 180.426 47.368 180.962 46.408C181.498 45.448 182.246 44.7 183.206 44.164C184.166 43.628 185.286 43.36 186.566 43.36C187.846 43.36 188.966 43.628 189.926 44.164C190.886 44.7 191.634 45.448 192.17 46.408C192.706 47.368 192.974 48.488 192.974 49.768V54.952C192.974 56.232 192.706 57.352 192.17 58.312C191.634 59.272 190.886 60.02 189.926 60.556C188.966 61.092 187.846 61.36 186.566 61.36ZM186.566 58.264C187.142 58.264 187.662 58.128 188.126 57.856C188.59 57.584 188.958 57.216 189.23 56.752C189.502 56.288 189.638 55.768 189.638 55.192V49.504C189.638 48.928 189.502 48.408 189.23 47.944C188.958 47.48 188.59 47.112 188.126 46.84C187.662 46.568 187.142 46.432 186.566 46.432C185.99 46.432 185.47 46.568 185.006 46.84C184.542 47.112 184.174 47.48 183.902 47.944C183.63 48.408 183.494 48.928 183.494 49.504V55.192C183.494 55.768 183.63 56.288 183.902 56.752C184.174 57.216 184.542 57.584 185.006 57.856C185.47 58.128 185.99 58.264 186.566 58.264ZM204.182 61.36C202.902 61.36 201.782 61.092 200.822 60.556C199.862 60.02 199.114 59.272 198.578 58.312C198.042 57.352 197.774 56.232 197.774 54.952V49.768C197.774 48.488 198.042 47.368 198.578 46.408C199.114 45.448 199.862 44.7 200.822 44.164C201.782 43.628 202.902 43.36 204.182 43.36C205.462 43.36 206.582 43.628 207.542 44.164C208.502 44.7 209.25 45.448 209.786 46.408C210.322 47.368 210.59 48.488 210.59 49.768V54.952C210.59 56.232 210.322 57.352 209.786 58.312C209.25 59.272 208.502 60.02 207.542 60.556C206.582 61.092 205.462 61.36 204.182 61.36ZM204.182 58.264C204.758 58.264 205.278 58.128 205.742 57.856C206.206 57.584 206.574 57.216 206.846 56.752C207.118 56.288 207.254 55.768 207.254 55.192V49.504C207.254 48.928 207.118 48.408 206.846 47.944C206.574 47.48 206.206 47.112 205.742 46.84C205.278 46.568 204.758 46.432 204.182 46.432C203.606 46.432 203.086 46.568 202.622 46.84C202.158 47.112 201.79 47.48 201.518 47.944C201.246 48.408 201.11 48.928 201.11 49.504V55.192C201.11 55.768 201.246 56.288 201.518 56.752C201.79 57.216 202.158 57.584 202.622 57.856C203.086 58.128 203.606 58.264 204.182 58.264Z" fill="#3F8DE5"/>
<defs>
<filter id="filter0_f_410_3" x="225.576" y="88.4446" width="48.5857" height="37.5122" filterUnits="userSpaceOnUse" color-interpolation-filters="sRGB">
<feFlood flood-opacity="0" result="BackgroundImageFix"/>
<feBlend mode="normal" in="SourceGraphic" in2="BackgroundImageFix" result="shape"/>
<feGaussianBlur stdDeviation="5.62011" result="effect1_foregroundBlur_410_3"/>
</filter>
<filter id="filter1_f_410_3" x="281.268" y="253.815" width="48.5857" height="37.5122" filterUnits="userSpaceOnUse" color-interpolation-filters="sRGB">
<feFlood flood-opacity="0" result="BackgroundImageFix"/>
<feBlend mode="normal" in="SourceGraphic" in2="BackgroundImageFix" result="shape"/>
<feGaussianBlur stdDeviation="5.62011" result="effect1_foregroundBlur_410_3"/>
</filter>
<filter id="filter2_f_410_3" x="168.145" y="185.056" width="48.5857" height="37.5122" filterUnits="userSpaceOnUse" color-interpolation-filters="sRGB">
<feFlood flood-opacity="0" result="BackgroundImageFix"/>
<feBlend mode="normal" in="SourceGraphic" in2="BackgroundImageFix" result="shape"/>
<feGaussianBlur stdDeviation="5.62011" result="effect1_foregroundBlur_410_3"/>
</filter>
<filter id="filter3_f_410_3" x="225.576" y="317.352" width="48.5857" height="37.5122" filterUnits="userSpaceOnUse" color-interpolation-filters="sRGB">
<feFlood flood-opacity="0" result="BackgroundImageFix"/>
<feBlend mode="normal" in="SourceGraphic" in2="BackgroundImageFix" result="shape"/>
<feGaussianBlur stdDeviation="5.62011" result="effect1_foregroundBlur_410_3"/>
</filter>
</defs>
</svg>
