<svg width="17" height="17" viewBox="0 0 17 17" fill="none" xmlns="http://www.w3.org/2000/svg">
<path d="M10.3125 16.125H5.8125C1.74 16.125 0 14.385 0 10.3125V5.8125C0 1.74 1.74 0 5.8125 0H9.56254C9.86998 0 10.125 0.254997 10.125 0.5625C10.125 0.869994 9.86998 1.125 9.56254 1.125H5.8125C2.35499 1.125 1.125 2.35499 1.125 5.8125V10.3125C1.125 13.77 2.35499 15 5.8125 15H10.3125C13.77 15 15 13.77 15 10.3125V6.5625C15 6.255 15.255 6 15.5625 6C15.87 6 16.125 6.255 16.125 6.5625V10.3125C16.125 14.385 14.385 16.125 10.3125 16.125Z" fill="#3F8DE5"/>
<path d="M15.5624 7.12512H12.5625C9.99747 7.12512 9 6.12761 9 3.56261V0.562615C9 0.337615 9.135 0.127618 9.34497 0.0451148C9.55494 -0.0448861 9.79497 0.00761175 9.95994 0.165112L15.96 6.16511C16.1175 6.32262 16.1699 6.57012 16.0799 6.78011C15.9899 6.99011 15.7874 7.12512 15.5624 7.12512ZM10.125 1.92011V3.56261C10.125 5.49761 10.6275 6.00012 12.5625 6.00012H14.205L10.125 1.92011Z" fill="#3F8DE5"/>
<path d="M8.81246 9.375H4.3125C4.00501 9.375 3.75 9.11994 3.75 8.8125C3.75 8.50497 4.00501 8.25 4.3125 8.25H8.81246C9.11999 8.25 9.37496 8.50497 9.37496 8.8125C9.37496 9.11994 9.11999 9.375 8.81246 9.375Z" fill="#3F8DE5"/>
<path d="M7.31251 12.375H4.3125C4.00501 12.375 3.75 12.12 3.75 11.8125C3.75 11.5051 4.00501 11.25 4.3125 11.25H7.31251C7.62 11.25 7.87501 11.5051 7.87501 11.8125C7.87501 12.12 7.62 12.375 7.31251 12.375Z" fill="#3F8DE5"/>
</svg>
