<svg width="17" height="17" viewBox="0 0 17 17" fill="none" xmlns="http://www.w3.org/2000/svg">
<path d="M10.312 16.5625H5.81201C1.73951 16.5625 -0.000488281 14.8225 -0.000488281 10.75V6.25C-0.000488281 2.1775 1.73951 0.4375 5.81201 0.4375H9.56205C9.86949 0.4375 10.1245 0.692497 10.1245 1C10.1245 1.30749 9.86949 1.5625 9.56205 1.5625H5.81201C2.35451 1.5625 1.12451 2.79249 1.12451 6.25V10.75C1.12451 14.2075 2.35451 15.4375 5.81201 15.4375H10.312C13.7695 15.4375 14.9995 14.2075 14.9995 10.75V7C14.9995 6.6925 15.2545 6.4375 15.562 6.4375C15.8695 6.4375 16.1245 6.6925 16.1245 7V10.75C16.1245 14.8225 14.3845 16.5625 10.312 16.5625Z" fill="#2C3642"/>
<path d="M15.562 7.56262H12.562C9.99698 7.56262 8.99951 6.56511 8.99951 4.00011V1.00011C8.99951 0.775115 9.13451 0.565118 9.34448 0.482615C9.55445 0.392614 9.79448 0.445112 9.95945 0.602612L15.9595 6.60261C16.117 6.76012 16.1695 7.00762 16.0795 7.21761C15.9895 7.42761 15.787 7.56262 15.562 7.56262ZM10.1245 2.35761V4.00011C10.1245 5.93511 10.627 6.43762 12.562 6.43762H14.2045L10.1245 2.35761Z" fill="#2C3642"/>
<path d="M8.81198 9.8125H4.31201C4.00452 9.8125 3.74951 9.55744 3.74951 9.25C3.74951 8.94247 4.00452 8.6875 4.31201 8.6875H8.81198C9.11951 8.6875 9.37448 8.94247 9.37448 9.25C9.37448 9.55744 9.11951 9.8125 8.81198 9.8125Z" fill="#2C3642"/>
<path d="M7.31202 12.8125H4.31201C4.00452 12.8125 3.74951 12.5575 3.74951 12.25C3.74951 11.9426 4.00452 11.6875 4.31201 11.6875H7.31202C7.61951 11.6875 7.87452 11.9426 7.87452 12.25C7.87452 12.5575 7.61951 12.8125 7.31202 12.8125Z" fill="#2C3642"/>
</svg>
