<svg width="33" height="32" viewBox="0 0 33 32" fill="none" xmlns="http://www.w3.org/2000/svg">
<rect x="0.501953" width="32" height="32" rx="16" fill="#3F8DE5"/>
<path d="M27.4607 10.5043C27.1971 9.5252 26.4251 8.75318 25.446 8.48957C23.6572 8 16.5019 8 16.5019 8C16.5019 8 9.34665 8 7.55784 8.47074C6.59753 8.73436 5.80668 9.5252 5.54307 10.5043C5.07233 12.2932 5.07233 16.0026 5.07233 16.0026C5.07233 16.0026 5.07233 19.7309 5.54307 21.5008C5.80668 22.48 6.5787 23.252 7.55784 23.5156C9.36548 24.0052 16.5019 24.0052 16.5019 24.0052C16.5019 24.0052 23.6572 24.0052 25.446 23.5344C26.4251 23.2708 27.1971 22.4988 27.4607 21.5197C27.9315 19.7309 27.9315 16.0214 27.9315 16.0214C27.9315 16.0214 27.9503 12.2932 27.4607 10.5043Z" fill="white"/>
<path d="M14.2227 19.4292L20.1729 16.0022L14.2227 12.5752V19.4292Z" fill="#3F8DE5"/>
</svg>
